<?xml version="1.0" encoding="UTF-8" standalone="no"?>
<!-- Created with Inkscape (http://www.inkscape.org/) -->

<svg
   width="19.381165"
   height="5.960351"
   viewBox="0 0 5.1279329 1.5770095"
   version="1.1"
   id="svg1"
   inkscape:version="1.3.2 (091e20e, 2023-11-25, custom)"
   sodipodi:docname="site-border.svg"
   inkscape:export-filename="site-border.png"
   inkscape:export-xdpi="96"
   inkscape:export-ydpi="96"
   xmlns:inkscape="http://www.inkscape.org/namespaces/inkscape"
   xmlns:sodipodi="http://sodipodi.sourceforge.net/DTD/sodipodi-0.dtd"
   xmlns="http://www.w3.org/2000/svg"
   xmlns:svg="http://www.w3.org/2000/svg">
  <sodipodi:namedview
     id="namedview1"
     pagecolor="#505050"
     bordercolor="#eeeeee"
     borderopacity="1"
     inkscape:showpageshadow="0"
     inkscape:pageopacity="0"
     inkscape:pagecheckerboard="0"
     inkscape:deskcolor="#d1d1d1"
     inkscape:document-units="mm"
     showgrid="true"
     inkscape:zoom="5.2667228"
     inkscape:cx="19.366882"
     inkscape:cy="57.056354"
     inkscape:window-width="1920"
     inkscape:window-height="974"
     inkscape:window-x="-11"
     inkscape:window-y="-11"
     inkscape:window-maximized="1"
     inkscape:current-layer="layer1">
    <inkscape:grid
       id="grid1"
       units="px"
       originx="-9.7170286"
       originy="-3.1777748"
       spacingx="7.9374998"
       spacingy="7.9374998"
       empcolor="#0099e5"
       empopacity="0.30196078"
       color="#0099e5"
       opacity="0.14901961"
       empspacing="5"
       dotted="false"
       gridanglex="30"
       gridanglez="30"
       visible="true" />
  </sodipodi:namedview>
  <defs
     id="defs1" />
  <g
     inkscape:label="Layer 1"
     inkscape:groupmode="layer"
     id="layer1"
     transform="translate(-9.717029,-3.1777749)">
    <path
       id="path263"
       d="m 12.196006,3.8968252 c -0.226673,-0.154477 -0.551312,-0.118268 -0.768367,0.03554 -0.241288,0.170826 -0.259202,0.531113 -0.05092,0.734866 0.196497,0.192378 0.574315,0.04697 0.575167,-0.23447 8.02e-4,-0.274026 -0.460605,-0.240921 -0.410442,0.01205 0.0051,0.02611 0.03026,0.04933 0.05544,0.05549 0.01237,0.0034 0.02482,0.0061 0.03716,0.0093 0.05562,0.01373 0.09089,-0.04206 0.06912,-0.08981 0.07176,-0.06693 0.110319,-0.05919 0.115785,0.02319 -0.007,0.03913 -0.03347,0.07646 -0.0579,0.106375 -0.06847,0.08383 -0.180378,0.08561 -0.272874,0.04243 -0.178681,-0.08345 -0.167176,-0.344338 -0.07836,-0.484008 0.153221,-0.240695 0.530285,-0.242973 0.768839,-0.1699 0.02555,0.008 0.03753,-0.02725 0.01735,-0.041"
       style="fill:#1e1c1a;fill-opacity:1;fill-rule:nonzero;stroke:none;stroke-width:0.00942897"
       inkscape:export-filename=".\path263.svg"
       inkscape:export-xdpi="96"
       inkscape:export-ydpi="96" />
    <path
       id="path264"
       d="m 10.506146,4.3186662 c 0.0346,-0.106255 0.09306,-0.198677 0.164345,-0.284083 0.05649,-0.06763 0.164347,-0.120587 0.201876,-0.19897 0.0081,-0.01667 10e-4,-0.03355 -0.0163,-0.03989 -0.108154,-0.03996 -0.23082,0.102792 -0.288807,0.174844 -0.07449,0.09247 -0.13861,0.21712 -0.131256,0.338593 0.0023,0.04045 0.05742,0.04842 0.07016,0.0095"
       style="fill:#1e1c1a;fill-opacity:1;fill-rule:nonzero;stroke:none;stroke-width:0.00942897" />
    <path
       id="path265"
       d="m 10.251752,4.4432982 c 0.18905,-0.0055 0.338501,-0.13568 0.47107,-0.257965 0.172173,-0.158783 0.360941,-0.302755 0.530285,-0.46202 0.025,-0.02347 0.0053,-0.06466 -0.02707,-0.06534 -0.191408,-0.0039 -0.351796,0.13956 -0.483141,0.262871 -0.168497,0.158339 -0.327751,0.28994 -0.519254,0.418742 -0.04366,0.02943 -0.03034,0.105422 0.02811,0.103711"
       style="fill:#1e1c1a;fill-opacity:1;fill-rule:nonzero;stroke:none;stroke-width:0.00942897" />
    <path
       id="path266"
       d="m 12.110766,3.7577472 c -0.409874,-0.132108 -0.832294,-0.177859 -1.248866,-0.04641 -0.319829,0.10089 -0.529435,0.43064 -0.755354,0.65701 -0.0214,0.0214 -0.01907,0.06364 0.01,0.07797 0.27844,0.137562 0.484744,0.0057 0.673892,-0.208653 0.118052,-0.133817 0.217524,-0.285123 0.362354,-0.392814 0.296826,-0.220739 0.645509,-0.05904 0.968925,-0.02999 0.0297,0.0027 0.02951,-0.03819 0.0064,-0.04781 -0.352924,-0.145972 -0.79797,-0.212051 -1.114787,0.04799 -0.250338,0.20545 -0.447688,0.723864 -0.846719,0.545487 0,0.02868 0,0.05714 0,0.08579 0.236194,-0.162649 0.375648,-0.425822 0.620804,-0.578564 0.36226,-0.225625 0.916778,-0.146034 1.313927,-0.07591 0.02217,0.0041 0.03129,-0.02695 0.0093,-0.03412"
       style="fill:#1e1c1a;fill-opacity:1;fill-rule:nonzero;stroke:none;stroke-width:0.00942897" />
    <path
       id="path267"
       d="m 10.220353,3.4456392 c 0.235252,0.02309 0.486724,0.0443 0.722822,0.03808 0.02763,-8.05e-4 0.02952,-0.0361 0.006,-0.04553 -0.221111,-0.08911 -0.498323,-0.05034 -0.728954,-0.02573 -0.02129,0.0023 -0.02149,0.03102 0,0.03318"
       style="fill:#1e1c1a;fill-opacity:1;fill-rule:nonzero;stroke:none;stroke-width:0.00942897" />
    <path
       id="path268"
       d="m 9.7691751,3.3190072 c 0.132572,0.264303 0.4798399,0.286188 0.7387619,0.280701 0.365561,-0.0077 0.712264,-0.08176 1.079522,-0.05026 0.02517,0.0019 0.03678,-0.03832 0.01319,-0.04865 -0.579221,-0.256202 -1.236705,0.142841 -1.7891489,-0.224153 -0.02763,-0.01843 -0.05525,0.01655 -0.04234,0.04237"
       style="fill:#1e1c1a;fill-opacity:1;fill-rule:nonzero;stroke:none;stroke-width:0.00942897" />
    <path
       id="path269"
       d="m 12.28228,3.9836372 c -0.183015,-0.35933 -0.564228,-0.506881 -0.934883,-0.599958 -0.511616,-0.128507 -1.097909,0.09636 -1.5590799,-0.199696 -0.02772,-0.01782 -0.07535,0.0051 -0.07101,0.04085 0.03997,0.329531 0.3453809,0.402605 0.6349439,0.410412 0.228939,0.0061 0.457025,-0.0495 0.685205,-0.06052 0.376784,-0.01831 0.7183,0.08486 1.078392,0.174258 0.0237,0.0058 0.04017,-0.02906 0.01709,-0.04037 -0.45193,-0.222533 -0.947141,-0.264377 -1.441221,-0.204523 -0.268631,0.03252 -0.8489849,0.119737 -0.8800039,-0.279259 -0.02367,0.01367 -0.04735,0.02715 -0.07102,0.04081 0.3533979,0.244965 0.7702539,0.154915 1.1728709,0.147656 0.479273,-0.0086 1.052179,0.188285 1.330524,0.59263 0.01612,0.02336 0.05119,0.0035 0.03819,-0.0223"
       style="fill:#1e1c1a;fill-opacity:1;fill-rule:nonzero;stroke:none;stroke-width:0.00942897" />
    <path
       id="path270"
       d="m 12.59721,3.8888012 c 0,0.188757 -0.153034,0.341801 -0.341802,0.341801 -0.188767,0 -0.341802,-0.153044 -0.341802,-0.341801 0,-0.188767 0.153035,-0.3418 0.341802,-0.3418 0.188768,0 0.341802,0.153033 0.341802,0.3418"
       style="fill:#1e1c1a;fill-opacity:1;fill-rule:nonzero;stroke:none;stroke-width:0.00942897" />
    <path
       id="path271"
       d="m 12.383266,3.9378232 c 0.255621,-0.07834 0.593459,-0.06118 0.768839,0.169901 0.111363,0.146921 0.07524,0.383797 -0.07827,0.484008 -0.08873,0.0579 -0.205172,0.02922 -0.272969,-0.04243 -0.01726,-0.02 -0.03178,-0.04186 -0.04338,-0.06553 -0.07749,-0.13966 0.10721,-0.07686 0.101369,-0.06404 -0.02185,0.04775 0.01347,0.103545 0.06913,0.08982 0.01236,-0.0031 0.02481,-0.0059 0.03705,-0.0093 0.02524,-0.0061 0.05045,-0.02935 0.05554,-0.05549 0.0495,-0.249566 -0.41129,-0.284189 -0.410536,-0.03855 8.02e-4,0.297481 0.331427,0.44121 0.562625,0.270717 0.245344,-0.181037 0.184434,-0.562243 -0.02707,-0.735839 -0.207248,-0.170382 -0.556877,-0.195945 -0.779683,-0.04431 -0.02019,0.01373 -0.0083,0.04884 0.01734,0.041"
       style="fill:#1e1c1a;fill-opacity:1;fill-rule:nonzero;stroke:none;stroke-width:0.00942897" />
    <path
       id="path272"
       d="m 14.126023,4.3091622 c 0.0072,-0.121472 -0.05685,-0.246113 -0.131252,-0.338592 -0.05808,-0.07206 -0.180751,-0.214812 -0.288903,-0.174843 -0.01733,0.0062 -0.02432,0.02319 -0.01631,0.03988 0.03678,0.07665 0.144546,0.134729 0.20197,0.19897 0.07318,0.0819 0.130213,0.179695 0.164345,0.284084 0.01263,0.03893 0.06771,0.03093 0.07016,-0.0095"
       style="fill:#1e1c1a;fill-opacity:1;fill-rule:nonzero;stroke:none;stroke-width:0.00942897" />
    <path
       id="path273"
       d="m 14.338365,4.3395822 c -0.191314,-0.128574 -0.352643,-0.258336 -0.519253,-0.418743 -0.129273,-0.12434 -0.293242,-0.266735 -0.483141,-0.26287 -0.03235,8.03e-4 -0.05213,0.04187 -0.02707,0.06534 0.158124,0.148684 0.336331,0.275542 0.493984,0.427611 0.139548,0.134668 0.302859,0.286343 0.507373,0.292374 0.05846,0.0014 0.07175,-0.07428 0.02811,-0.103711"
       style="fill:#1e1c1a;fill-opacity:1;fill-rule:nonzero;stroke:none;stroke-width:0.00942897" />
    <path
       id="path274"
       d="m 12.460584,3.7918492 c 0.407049,-0.07193 0.867088,-0.118229 1.257731,0.04671 0.285038,0.120398 0.428265,0.436526 0.676906,0.607764 0,-0.02866 0,-0.05712 0,-0.08579 -0.385362,0.172259 -0.611845,-0.329643 -0.846628,-0.545485 -0.297388,-0.273254 -0.778739,-0.186958 -1.114788,-0.04799 -0.02318,0.0095 -0.02329,0.05046 0.0064,0.0478 0.330861,-0.02969 0.609581,-0.154624 0.931771,0.0057 0.15124,0.07536 0.26137,0.251193 0.366124,0.377713 0.1916,0.231416 0.409784,0.39498 0.707271,0.247991 0.02905,-0.01431 0.03149,-0.05657 0.01,-0.07797 -0.238081,-0.23874 -0.434015,-0.526325 -0.755353,-0.65701 -0.391021,-0.159077 -0.86247,-0.07815 -1.248869,0.04641 -0.02196,0.0071 -0.01283,0.03808 0.0094,0.03412"
       style="fill:#1e1c1a;fill-opacity:1;fill-rule:nonzero;stroke:none;stroke-width:0.00942897" />
    <path
       id="path275"
       d="m 14.341662,3.4124502 c -0.230631,-0.0246 -0.507935,-0.06334 -0.728952,0.02573 -0.02347,0.0094 -0.0216,0.04479 0.006,0.04552 0.236101,0.0061 0.487571,-0.015 0.722824,-0.0381 0.02141,-0.0021 0.0213,-0.03084 0,-0.03318"
       style="fill:#1e1c1a;fill-opacity:1;fill-rule:nonzero;stroke:none;stroke-width:0.00942897" />
    <path
       id="path276"
       d="m 14.750316,3.2766542 c -0.552255,0.366994 -1.209832,-0.03192 -1.789053,0.224151 -0.02368,0.01035 -0.01209,0.0508 0.01318,0.04865 0.366124,-0.03129 0.714715,0.0343 1.079521,0.05026 0.257695,0.01124 0.607981,-0.02003 0.738667,-0.280701 0.01301,-0.02582 -0.01462,-0.06081 -0.04234,-0.04236"
       style="fill:#1e1c1a;fill-opacity:1;fill-rule:nonzero;stroke:none;stroke-width:0.00942897" />
    <path
       id="path277"
       d="m 12.317828,4.0059282 c 0.273818,-0.397941 0.790996,-0.562468 1.255657,-0.591236 0.432226,-0.02695 0.862752,0.117981 1.247828,-0.149051 -0.02368,-0.01367 -0.04742,-0.02715 -0.0711,-0.04081 -0.03092,0.398994 -0.611373,0.31189 -0.880005,0.279256 -0.494079,-0.05985 -0.989289,-0.0179 -1.441125,0.204524 -0.02319,0.01133 -0.0066,0.04619 0.01697,0.04036 0.333785,-0.08279 0.644188,-0.171824 0.992021,-0.175953 0.243739,-0.0029 0.480689,0.05484 0.723205,0.06221 0.300122,0.0089 0.641828,-0.06733 0.683411,-0.410415 0.0043,-0.03584 -0.04328,-0.05867 -0.0711,-0.04085 -0.446369,0.286547 -1.001452,0.07864 -1.495908,0.185007 -0.389792,0.08389 -0.80693,0.239299 -0.998058,0.614646 -0.01303,0.02556 0.02206,0.04564 0.03818,0.02229"
       style="fill:#1e1c1a;fill-opacity:1;fill-rule:nonzero;stroke:none;stroke-width:0.00942897" />
    <path
       id="path278"
       d="m 11.964715,3.8888012 c 0,0.188757 0.153124,0.341801 0.3418,0.341801 0.188861,0 0.341894,-0.153044 0.341894,-0.341801 0,-0.188767 -0.153033,-0.3418 -0.341894,-0.3418 -0.188676,0 -0.3418,0.153033 -0.3418,0.3418"
       style="fill:#1e1c1a;fill-opacity:1;fill-rule:nonzero;stroke:none;stroke-width:0.00942897" />
  </g>
</svg>
