<?xml version="1.0" encoding="UTF-8"?>
<!-- Created with Inkscape (http://www.inkscape.org/) -->
<svg width="34.843mm" height="11.22mm" version="1.1" viewBox="0 0 34.843 11.22" xml:space="preserve" xmlns="http://www.w3.org/2000/svg"><path d="m30.538 6.3372c-1.6584-0.35771-3.3155-0.40004-4.9998-0.25258-2.6794 0.23459-5.0998 1.3226-7.6038 2.1445-0.35171 0.11536-0.43426 0.45296-0.68862 0.62547-1.4936 1.0146-3.048 1.7649-4.9167 1.0633-0.40499-0.1524-0.82054-0.27551-1.2269-0.42404-0.19932-0.072672-0.37888-0.20214-0.3951-0.42896-0.020108-0.2794 0.23036-0.30234 0.42015-0.35737 1.8708-0.54046 3.7634-0.91262 5.7274-0.71614 0.2727 0.027164 0.5394 0.010583 0.80856-0.076199 1.8425-0.59372 3.6885-1.1758 5.5321-1.7653 0.05786-0.018706 0.1023-0.078668 0.16439-0.12806-0.48505 0-0.94931-0.00741-1.4132 0.00106-3.1011 0.057854-6.1943-0.075142-9.2897-0.27868-1.5875-0.10442-3.1728 0.23671-4.7516 0.45931-0.59583 0.084314-1.1088 0.24659-1.56 0.6946-0.64206 0.63851-1.4421 0.79797-2.3394 0.57467-1.2928-0.32244-2.499-0.84843-3.6766-1.4531-0.16012-0.082194-0.35073-0.16474-0.31792-0.39229 0.034713-0.23953 0.23784-0.24941 0.42261-0.24447 0.80811 0.022225 1.5755-0.22648 2.3584-0.3616 1.2449-0.21449 2.4101-0.086076 3.4544 0.66746 0.22719 0.16404 0.44661 0.17603 0.7045 0.15557 1.18-0.09278 2.3431-0.34112 3.5356-0.35242 0.007752-0.28117-0.2039-0.21378-0.32948-0.26035-0.084666-0.031398-0.18027-0.033514-0.26458-0.065616-1.3885-0.52916-2.8511-0.60713-4.3087-0.76482-1.7725-0.19156-3.0249-1.2788-4.0833-2.6239-0.14181-0.18062-0.27866-0.39827-0.14414-0.62653 0.15406-0.2607 0.39674-0.10442 0.61486-0.078316 0.33792 0.040568 0.68021 0.078316 1.0193 0.068791 1.6929-0.047272 3.0122 0.69037 3.9803 2.0105 0.4646 0.63393 1.0227 0.9599 1.7438 1.1807 2.9916 0.91722 6.0599 1.2301 9.1828 1.2749-0.065262-0.25611-0.27974-0.21766-0.43886-0.25188-1.1716-0.25082-2.2782-0.7627-3.5081-0.79586-0.72812-0.019394-1.2647-0.46989-1.6672-1.0654-0.617-0.91156-0.88018-1.9424-1.0121-3.0165-0.01976-0.16051-0.03528-0.33655 0.12065-0.43391 0.19826-0.12418 0.33866 0.029633 0.4787 0.14534 0.75387 0.62441 1.5176 1.2375 2.2581 1.8775 0.57856 0.50024 1.0664 1.0739 1.1236 1.887 0.02011 0.28469 0.20778 0.38523 0.42439 0.47061 1.7258 0.6819 3.4906 1.1952 5.3649 1.2287 2.2772 0.040568 4.5516-0.21378 6.8365-0.067381-0.43074-0.30763-0.9105-0.41804-1.4273-0.35911-1.888 0.21625-3.2776-0.55739-4.224-2.1597-0.16263-0.27516-0.65476-0.48365-0.45156-0.8216 0.18239-0.30302 0.57044 0.053974 0.88124 0.04727 2.0291-0.043743 3.5835 0.88441 4.804 2.4398 0.18238 0.23212 0.3951 0.34678 0.6664 0.42828 1.3748 0.41486 2.7622 0.7754 4.169 1.0671 0.92391 0.19156 1.7533 0.58983 2.5548 1.2686-0.36335 0.041275-0.59724-0.04727-0.79586-0.1718-1.1515-0.72072-2.3717-0.68121-3.6319-0.38629-0.73765 0.17286-1.4386 0.43391-2.117 0.76165-0.51363 0.248-0.87065 0.54009-1.076 1.18-0.30234 0.9405-1.1634 1.5176-2.0655 1.8767-0.9546 0.37994-1.9664 0.59054-3.0099 0.37465-0.22119-0.04551-0.44661-0.10583-0.64769-0.20426-0.2794-0.13723-0.63782-0.26282-0.59866-0.65687 0.03563-0.36054 0.39547-0.30937 0.64523-0.3824 0.60324-0.17533 1.0961-0.55138 1.6097-0.88722 1.0509-0.68756 2.1614-1.1747 3.4562-1.0717 0.19085 0.015531 0.35843-0.055033 0.51646-0.14993 1.0601-0.63605 2.1904-1.1021 3.4022-1.4414" fill="#231f20" stroke-width=".26458"/></svg>
