<?xml version="1.0" encoding="UTF-8"?>
<!-- Created with Inkscape (http://www.inkscape.org/) -->
<svg width="19.381" height="5.9604" version="1.1" viewBox="0 0 5.1279 1.577" xmlns="http://www.w3.org/2000/svg">
 <g transform="translate(-9.717 -3.1778)" fill="#1e1c1a">
  <path d="m12.196 3.8968c-0.22667-0.15448-0.55131-0.11827-0.76837 0.03554-0.24129 0.17083-0.2592 0.53111-0.05092 0.73487 0.1965 0.19238 0.57432 0.04697 0.57517-0.23447 8.02e-4 -0.27403-0.4606-0.24092-0.41044 0.01205 0.0051 0.02611 0.03026 0.04933 0.05544 0.05549 0.01237 0.0034 0.02482 0.0061 0.03716 0.0093 0.05562 0.01373 0.09089-0.04206 0.06912-0.08981 0.07176-0.06693 0.11032-0.05919 0.11578 0.02319-7e-3 0.03913-0.03347 0.07646-0.0579 0.10638-0.06847 0.08383-0.18038 0.08561-0.27287 0.04243-0.17868-0.08345-0.16718-0.34434-0.07836-0.48401 0.15322-0.2407 0.53028-0.24297 0.76884-0.1699 0.02555 8e-3 0.03753-0.02725 0.01735-0.041"/>
  <path d="m10.506 4.3187c0.0346-0.10626 0.09306-0.19868 0.16434-0.28408 0.05649-0.06763 0.16435-0.12059 0.20188-0.19897 0.0081-0.01667 1e-3 -0.03355-0.0163-0.03989-0.10815-0.03996-0.23082 0.10279-0.28881 0.17484-0.07449 0.09247-0.13861 0.21712-0.13126 0.33859 0.0023 0.04045 0.05742 0.04842 0.07016 0.0095"/>
  <path d="m10.252 4.4433c0.18905-0.0055 0.3385-0.13568 0.47107-0.25796 0.17217-0.15878 0.36094-0.30276 0.53028-0.46202 0.025-0.02347 0.0053-0.06466-0.02707-0.06534-0.19141-0.0039-0.3518 0.13956-0.48314 0.26287-0.1685 0.15834-0.32775 0.28994-0.51925 0.41874-0.04366 0.02943-0.03034 0.10542 0.02811 0.10371"/>
  <path d="m12.111 3.7577c-0.40987-0.13211-0.83229-0.17786-1.2489-0.04641-0.31983 0.10089-0.52944 0.43064-0.75535 0.65701-0.0214 0.0214-0.01907 0.06364 0.01 0.07797 0.27844 0.13756 0.48474 0.0057 0.67389-0.20865 0.11805-0.13382 0.21752-0.28512 0.36235-0.39281 0.29683-0.22074 0.64551-0.05904 0.96892-0.02999 0.0297 0.0027 0.02951-0.03819 0.0064-0.04781-0.35292-0.14597-0.79797-0.21205-1.1148 0.04799-0.25034 0.20545-0.44769 0.72386-0.84672 0.54549v0.08579c0.23619-0.16265 0.37565-0.42582 0.6208-0.57856 0.36226-0.22562 0.91678-0.14603 1.3139-0.07591 0.02217 0.0041 0.03129-0.02695 0.0093-0.03412"/>
  <path d="m10.22 3.4456c0.23525 0.02309 0.48672 0.0443 0.72282 0.03808 0.02763-8.05e-4 0.02952-0.0361 6e-3 -0.04553-0.22111-0.08911-0.49832-0.05034-0.72895-0.02573-0.02129 0.0023-0.02149 0.03102 0 0.03318"/>
  <path d="m9.7692 3.319c0.13257 0.2643 0.47984 0.28619 0.73876 0.2807 0.36556-0.0077 0.71226-0.08176 1.0795-0.05026 0.02517 0.0019 0.03678-0.03832 0.01319-0.04865-0.57922-0.2562-1.2367 0.14284-1.7891-0.22415-0.02763-0.01843-0.05525 0.01655-0.04234 0.04237"/>
  <path d="m12.282 3.9836c-0.18302-0.35933-0.56423-0.50688-0.93488-0.59996-0.51162-0.12851-1.0979 0.09636-1.5591-0.1997-0.02772-0.01782-0.07535 0.0051-0.07101 0.04085 0.03997 0.32953 0.34538 0.4026 0.63494 0.41041 0.22894 0.0061 0.45702-0.0495 0.6852-0.06052 0.37678-0.01831 0.7183 0.08486 1.0784 0.17426 0.0237 0.0058 0.04017-0.02906 0.01709-0.04037-0.45193-0.22253-0.94714-0.26438-1.4412-0.20452-0.26863 0.03252-0.84898 0.11974-0.88-0.27926-0.02367 0.01367-0.04735 0.02715-0.07102 0.04081 0.3534 0.24496 0.77025 0.15492 1.1729 0.14766 0.47927-0.0086 1.0522 0.18828 1.3305 0.59263 0.01612 0.02336 0.05119 0.0035 0.03819-0.0223"/>
  <path d="m12.597 3.8888c0 0.18876-0.15303 0.3418-0.3418 0.3418-0.18877 0-0.3418-0.15304-0.3418-0.3418 0-0.18877 0.15304-0.3418 0.3418-0.3418 0.18877 0 0.3418 0.15303 0.3418 0.3418"/>
  <path d="m12.383 3.9378c0.25562-0.07834 0.59346-0.06118 0.76884 0.1699 0.11136 0.14692 0.07524 0.3838-0.07827 0.48401-0.08873 0.0579-0.20517 0.02922-0.27297-0.04243-0.01726-0.02-0.03178-0.04186-0.04338-0.06553-0.07749-0.13966 0.10721-0.07686 0.10137-0.06404-0.02185 0.04775 0.01347 0.10354 0.06913 0.08982 0.01236-0.0031 0.02481-0.0059 0.03705-0.0093 0.02524-0.0061 0.05045-0.02935 0.05554-0.05549 0.0495-0.24957-0.41129-0.28419-0.41054-0.03855 8.02e-4 0.29748 0.33143 0.44121 0.56262 0.27072 0.24534-0.18104 0.18443-0.56224-0.02707-0.73584-0.20725-0.17038-0.55688-0.19594-0.77968-0.04431-0.02019 0.01373-0.0083 0.04884 0.01734 0.041"/>
  <path d="m14.126 4.3092c0.0072-0.12147-0.05685-0.24611-0.13125-0.33859-0.05808-0.07206-0.18075-0.21481-0.2889-0.17484-0.01733 0.0062-0.02432 0.02319-0.01631 0.03988 0.03678 0.07665 0.14455 0.13473 0.20197 0.19897 0.07318 0.0819 0.13021 0.1797 0.16434 0.28408 0.01263 0.03893 0.06771 0.03093 0.07016-0.0095"/>
  <path d="m14.338 4.3396c-0.19131-0.12857-0.35264-0.25834-0.51925-0.41874-0.12927-0.12434-0.29324-0.26674-0.48314-0.26287-0.03235 8.03e-4 -0.05213 0.04187-0.02707 0.06534 0.15812 0.14868 0.33633 0.27554 0.49398 0.42761 0.13955 0.13467 0.30286 0.28634 0.50737 0.29237 0.05846 0.0014 0.07175-0.07428 0.02811-0.10371"/>
  <path d="m12.461 3.7918c0.40705-0.07193 0.86709-0.11823 1.2577 0.04671 0.28504 0.1204 0.42826 0.43653 0.67691 0.60776v-0.08579c-0.38536 0.17226-0.61184-0.32964-0.84663-0.54548-0.29739-0.27325-0.77874-0.18696-1.1148-0.04799-0.02318 0.0095-0.02329 0.05046 0.0064 0.0478 0.33086-0.02969 0.60958-0.15462 0.93177 0.0057 0.15124 0.07536 0.26137 0.25119 0.36612 0.37771 0.1916 0.23142 0.40978 0.39498 0.70727 0.24799 0.02905-0.01431 0.03149-0.05657 0.01-0.07797-0.23808-0.23874-0.43402-0.52632-0.75535-0.65701-0.39102-0.15908-0.86247-0.07815-1.2489 0.04641-0.02196 0.0071-0.01283 0.03808 0.0094 0.03412"/>
  <path d="m14.342 3.4125c-0.23063-0.0246-0.50794-0.06334-0.72895 0.02573-0.02347 0.0094-0.0216 0.04479 6e-3 0.04552 0.2361 0.0061 0.48757-0.015 0.72282-0.0381 0.02141-0.0021 0.0213-0.03084 0-0.03318"/>
  <path d="m14.75 3.2767c-0.55226 0.36699-1.2098-0.03192-1.7891 0.22415-0.02368 0.01035-0.01209 0.0508 0.01318 0.04865 0.36612-0.03129 0.71472 0.0343 1.0795 0.05026 0.2577 0.01124 0.60798-0.02003 0.73867-0.2807 0.01301-0.02582-0.01462-0.06081-0.04234-0.04236"/>
  <path d="m12.318 4.0059c0.27382-0.39794 0.791-0.56247 1.2557-0.59124 0.43223-0.02695 0.86275 0.11798 1.2478-0.14905-0.02368-0.01367-0.04742-0.02715-0.0711-0.04081-0.03092 0.39899-0.61137 0.31189-0.88 0.27926-0.49408-0.05985-0.98929-0.0179-1.4411 0.20452-0.02319 0.01133-0.0066 0.04619 0.01697 0.04036 0.33378-0.08279 0.64419-0.17182 0.99202-0.17595 0.24374-0.0029 0.48069 0.05484 0.7232 0.06221 0.30012 0.0089 0.64183-0.06733 0.68341-0.41042 0.0043-0.03584-0.04328-0.05867-0.0711-0.04085-0.44637 0.28655-1.0015 0.07864-1.4959 0.18501-0.38979 0.08389-0.80693 0.2393-0.99806 0.61465-0.01303 0.02556 0.02206 0.04564 0.03818 0.02229"/>
  <path d="m11.965 3.8888c0 0.18876 0.15312 0.3418 0.3418 0.3418 0.18886 0 0.34189-0.15304 0.34189-0.3418 0-0.18877-0.15303-0.3418-0.34189-0.3418-0.18868 0-0.3418 0.15303-0.3418 0.3418"/>
 </g>
</svg>
