<?xml version="1.0" encoding="UTF-8" standalone="no"?>
<!-- Created with Inkscape (http://www.inkscape.org/) -->

<svg
   width="90"
   height="90"
   viewBox="0 0 23.812499 23.8125"
   version="1.1"
   id="svg1"
   inkscape:version="1.3.2 (091e20e, 2023-11-25, custom)"
   sodipodi:docname="site-border.svg"
   inkscape:export-filename="site-border.png"
   inkscape:export-xdpi="96"
   inkscape:export-ydpi="96"
   xmlns:inkscape="http://www.inkscape.org/namespaces/inkscape"
   xmlns:sodipodi="http://sodipodi.sourceforge.net/DTD/sodipodi-0.dtd"
   xmlns="http://www.w3.org/2000/svg"
   xmlns:svg="http://www.w3.org/2000/svg">
  <sodipodi:namedview
     id="namedview1"
     pagecolor="#505050"
     bordercolor="#eeeeee"
     borderopacity="1"
     inkscape:showpageshadow="0"
     inkscape:pageopacity="0"
     inkscape:pagecheckerboard="0"
     inkscape:deskcolor="#d1d1d1"
     inkscape:document-units="mm"
     showgrid="true"
     inkscape:zoom="7.4482708"
     inkscape:cx="24.435202"
     inkscape:cy="50.817164"
     inkscape:window-width="1920"
     inkscape:window-height="974"
     inkscape:window-x="-11"
     inkscape:window-y="-11"
     inkscape:window-maximized="1"
     inkscape:current-layer="layer1">
    <inkscape:grid
       id="grid1"
       units="px"
       originx="0"
       originy="0"
       spacingx="7.9374998"
       spacingy="7.9374998"
       empcolor="#0099e5"
       empopacity="0.30196078"
       color="#0099e5"
       opacity="0.14901961"
       empspacing="5"
       dotted="false"
       gridanglex="30"
       gridanglez="30"
       visible="true" />
  </sodipodi:namedview>
  <defs
     id="defs1" />
  <g
     inkscape:label="Layer 1"
     inkscape:groupmode="layer"
     id="layer1">
    <path
       id="path279"
       d="m 0.58999582,19.877758 c -0.078602,0.03886 -0.21450944,0.106635 -0.16324276,0.2179 0.0105019,0.02286 0.0491694,0.02817 0.0650878,0.0084 0.0235734,-0.02943 0.0303183,-0.06658 0.0506457,-0.09843 0.0201811,-0.03168 0.0515653,-0.06153 0.0796283,-0.08619 0.0238952,-0.02083 -0.006438,-0.0543 -0.0321147,-0.04167"
       style="fill:#1e1c1a;fill-opacity:1;fill-rule:nonzero;stroke:none;stroke-width:0.00942897" />
    <path
       id="path280"
       d="m 0.58395255,19.814006 c -0.123389,0.02687 -0.26768969,0.143238 -0.25925959,0.282793 0.003103,0.05165 0.0799669,0.08362 0.10593518,0.02866 0.0215423,-0.04563 0.0328882,-0.0927 0.0581834,-0.13701 0.0284769,-0.04988 0.0665222,-0.09448 0.11727969,-0.121916 0.0297947,-0.01601 0.008684,-0.05919 -0.0221312,-0.05251"
       style="fill:#1e1c1a;fill-opacity:1;fill-rule:nonzero;stroke:none;stroke-width:0.00942897" />
    <path
       id="path281"
       d="m 0.75599428,19.806933 c -0.087068,-0.06921 -0.22334546,-0.0071 -0.3086873,0.03669 -0.0944701,0.04846 -0.22573785,0.154366 -0.16908859,0.275621 0.0553566,0.118599 0.16854338,0.08118 0.24032568,0.0039 0.0483194,-0.05204 0.0871788,-0.113219 0.12754562,-0.171419 0.0311239,-0.04486 0.0700942,-0.0908 0.0911197,-0.140766 l -0.011574,-0.02043 c -0.11775708,-0.01734 -0.2757321,0.337085 -0.33833926,0.303235 -0.0762438,-0.04132 0.10371691,-0.156352 0.12673513,-0.16924 0.0693585,-0.03897 0.15671845,-0.07525 0.23495107,-0.0909 0.0110129,-0.0021 0.0161712,-0.01914 0.007002,-0.02651"
       style="fill:#1e1c1a;fill-opacity:1;fill-rule:nonzero;stroke:none;stroke-width:0.00942897" />
    <path
       id="path282"
       d="m 0.26598789,19.491167 c 0.12304706,0.03458 0.24364559,0.08063 0.36823995,0.107591 0.0159267,0.0037 0.0293578,-0.01601 0.016466,-0.0283 -0.0996255,-0.09531 -0.2453319,-0.116345 -0.37733794,-0.133511 -0.0316734,-0.0042 -0.0363846,0.04612 -0.007351,0.05421"
       style="fill:#1e1c1a;fill-opacity:1;fill-rule:nonzero;stroke:none;stroke-width:0.00942897" />
    <path
       id="path283"
       d="m 0.31615057,19.551134 c 0.0495405,0.02931 0.11060212,0.0359 0.16504413,0.05326 0.0506833,0.01625 0.0984091,0.03377 0.15181691,0.02357 0.0187086,-0.0036 0.0196691,-0.026 0.0100951,-0.03809 -0.0338516,-0.04269 -0.0860763,-0.06081 -0.13679543,-0.07648 -0.057497,-0.01782 -0.12305789,-0.03802 -0.18253523,-0.02085 -0.0266461,0.0077 -0.0317939,0.04441 -0.007613,0.05858"
       style="fill:#1e1c1a;fill-opacity:1;fill-rule:nonzero;stroke:none;stroke-width:0.00942897" />
    <path
       id="path284"
       d="m 0.78723132,19.627594 c -0.0842757,-0.02146 -0.16843105,-0.04998 -0.25200883,-0.07458 -0.0476171,-0.01403 -0.0964952,-0.02779 -0.14153694,-0.04893 -0.0301377,-0.01406 -0.0494368,-0.03896 -0.0774968,-0.05452 -0.0300231,-0.01668 -0.0762438,-0.0032 -0.0834285,0.03385 -0.0409882,0.212442 0.43079105,0.199149 0.54739928,0.196206 0.0295449,-8.04e-4 0.0366523,-0.0445 0.007096,-0.05204"
       style="fill:#1e1c1a;fill-opacity:1;fill-rule:nonzero;stroke:none;stroke-width:0.00942897" />
    <path
       id="path285"
       d="m 0.83532777,19.647592 c -0.0928096,-0.02264 -0.19055862,-0.02472 -0.28481973,-0.04019 -0.0518861,-0.0086 -0.29475975,-0.03288 -0.30072784,-0.106918 -0.009069,-0.113516 0.32978655,0.06157 0.36239167,0.07882 0.0602539,0.03178 0.22220437,0.14976 0.2946182,0.100502 0.008496,-0.0057 0.0101369,-0.01451 0.006219,-0.02368 -0.0204455,-0.04749 -0.10593327,-0.08213 -0.14765528,-0.107025 -0.0931482,-0.05543 -0.19053165,-0.105486 -0.28947023,-0.149609 -0.12080444,-0.05404 -0.28963852,-0.08914 -0.33944329,0.07156 -0.0794024,0.256277 0.56843407,0.265125 0.69888443,0.234769 0.0290976,-0.0068 0.0287318,-0.05118 0,-0.05827"
       style="fill:#1e1c1a;fill-opacity:1;fill-rule:nonzero;stroke:none;stroke-width:0.00942897" />
    <path
       id="path286"
       d="m 0.94130081,19.54049 c -0.0479556,-0.111827 -0.10128395,-0.2214 -0.14688523,-0.334248 -0.0377528,-0.09336 -0.0515277,-0.216868 -0.13381556,-0.282134 -0.019134,-0.01518 -0.0427575,-0.0094 -0.0517064,0.01367 -0.0399965,0.103157 0.0236832,0.224303 0.0664469,0.318594 0.0547632,0.120802 0.12058772,0.229132 0.20869082,0.328242 0.029871,0.03369 0.0723004,-0.0091 0.0572734,-0.04411"
       style="fill:#1e1c1a;fill-opacity:1;fill-rule:nonzero;stroke:none;stroke-width:0.00942897" />
    <path
       id="path287"
       d="M 0.96211124,19.589029 C 0.85927844,19.4856 0.74383848,19.379161 0.68318239,19.244393 c -0.0328985,-0.07287 -0.0282856,-0.146216 -0.0119513,-0.22242 0.009071,-0.04225 -0.0222399,-0.01772 -0.015795,-0.01124 0.0121635,0.01198 0.0205301,0.02854 0.0289554,0.04329 0.10054933,0.17565 0.10806644,0.413076 0.24853903,0.564231 0.0131213,0.01404 0.0311224,-0.0012 0.0289445,-0.01692 C 0.94121482,19.453044 0.88284142,19.302549 0.82965256,19.162443 0.80345806,19.093323 0.75790716,18.926058 0.66829395,18.91217 0.5468962,18.8931 0.53385574,19.1118 0.54678406,19.184318 c 0.0364611,0.204978 0.21752701,0.343574 0.38633179,0.442313 0.0236008,0.01384 0.04821,-0.01831 0.0289884,-0.03765"
       style="fill:#1e1c1a;fill-opacity:1;fill-rule:nonzero;stroke:none;stroke-width:0.00942897" />
    <path
       id="path288"
       d="M 7.3738044,19.48815 C 7.3444857,19.254492 7.053505,19.045468 6.8264549,19.04874 c -0.2006487,0.0031 -0.3281287,0.166893 -0.2791932,0.358415 0.038854,0.152003 0.2095134,0.310789 0.3728232,0.22291 0.092122,-0.04961 0.1371908,-0.134108 0.091083,-0.232261 -0.03988,-0.08506 -0.1708511,-0.111343 -0.2324247,-0.03986 -0.037803,0.04396 0.00907,0.106332 0.061574,0.07985 0.02951,-0.01492 0.05421,-0.01256 0.074581,0.01633 0.027063,0.03844 -0.053651,0.06796 -0.074018,0.07448 -0.040918,0.01283 -0.084675,-0.0086 -0.1155936,-0.03415 -0.067885,-0.05616 -0.1040063,-0.14762 -0.081275,-0.233989 0.035167,-0.13345 0.2229943,-0.126924 0.3225668,-0.0927 0.1585019,0.05421 0.2887132,0.19086 0.3756489,0.328976 0.00823,0.013 0.033841,0.0093 0.031587,-0.0086"
       style="fill:#1e1c1a;fill-opacity:1;fill-rule:nonzero;stroke:none;stroke-width:0.00942897" />
    <path
       id="path289"
       d="m 3.6147556,19.659088 c 0.04309,-0.04583 0.082598,-0.09495 0.1264431,-0.140219 0.049021,-0.05042 0.1246507,-0.07796 0.1680254,-0.131053 0.012087,-0.015 0.00764,-0.03482 -0.010979,-0.04128 -0.070905,-0.02535 -0.1526523,0.03439 -0.2011188,0.0808 -0.058459,0.0561 -0.102395,0.129459 -0.1242738,0.207437 -0.00657,0.02376 0.024508,0.0428 0.04186,0.02432"
       style="fill:#1e1c1a;fill-opacity:1;fill-rule:nonzero;stroke:none;stroke-width:0.00942897" />
    <path
       id="path291"
       d="m 1.5285935,19.773265 c -0.1786783,-0.0459 -0.3947352,-0.123495 -0.57411053,-0.03656 -0.1549838,0.07515 -0.23421592,0.224611 -0.19892448,0.394434 0.0302701,0.145934 0.17222052,0.212597 0.30758331,0.174436 0.1469604,-0.0415 0.2633899,-0.232075 0.1100173,-0.337745 -0.020927,-0.01445 -0.049361,-0.01101 -0.070614,0 l -0.016916,0.0088 c -0.025312,0.01302 -0.027844,0.04345 -0.017451,0.06649 0.01427,0.03176 0.047361,0.04147 0.020579,0.0758 -0.031455,0.04031 -0.0933295,0.05748 -0.14106689,0.04553 -0.0755734,-0.01893 -0.069906,-0.144828 -0.0559785,-0.198741 0.0633525,-0.245635 0.45262719,-0.168402 0.63093139,-0.148986 0.025254,0.0029 0.02951,-0.03736 0.00594,-0.04339"
       style="fill:#1e1c1a;fill-opacity:1;fill-rule:nonzero;stroke:none;stroke-width:0.00942897" />
    <path
       id="path292"
       d="m 1.5866757,20.455583 c 0.2922039,0.100706 0.6211811,0.03882 0.8907551,-0.09845 0.020286,-0.01035 0.011574,-0.04611 -0.011814,-0.04394 -0.2922012,0.02817 -0.5785601,0.07144 -0.8721793,0.09241 -0.028757,0.0019 -0.034321,0.04045 -0.00667,0.04998"
       style="fill:#1e1c1a;fill-opacity:1;fill-rule:nonzero;stroke:none;stroke-width:0.00942897" />
    <path
       id="path293"
       d="m 1.5210508,20.461579 c 0.069019,0.18361 0.3798926,0.151269 0.532359,0.126632 0.2909816,-0.04686 0.6073206,-0.203647 0.7950532,-0.434289 0.014248,-0.01772 0.00155,-0.04967 -0.024044,-0.04128 -0.2283712,0.07382 -0.424588,0.217789 -0.6569185,0.291347 -0.2163011,0.06855 -0.4093103,0.0046 -0.6212756,0.02454 -0.015369,0.0012 -0.03159,0.01584 -0.025175,0.03307"
       style="fill:#1e1c1a;fill-opacity:1;fill-rule:nonzero;stroke:none;stroke-width:0.00942897" />
    <path
       id="path294"
       d="m 1.9705298,20.556275 c -0.099472,-0.01145 -0.2022522,-0.02913 -0.3002177,-0.05016 -0.2615607,-0.05613 0.018568,-0.08762 0.087503,-0.08655 0.2000855,0.0031 0.3914923,-0.02585 0.5838429,-0.08195 0.5234983,-0.152855 0.8950922,-0.571007 1.2781935,-0.932807 0.013579,-0.01294 -0.0037,-0.03112 -0.018867,-0.02434 -0.3568849,0.161051 -0.6023211,0.51906 -0.9523252,0.707348 -0.3066292,0.164931 -0.6353247,0.211039 -0.9767491,0.213397 -0.073829,5.41e-4 -0.29041,0.02708 -0.2232755,0.156501 0.1041904,0.20077 0.3417044,0.128142 0.5218931,0.130978 0.021492,2.67e-4 0.020262,-0.03007 0,-0.03241"
       style="fill:#1e1c1a;fill-opacity:1;fill-rule:nonzero;stroke:none;stroke-width:0.00942897" />
    <path
       id="path295"
       d="m 3.2496637,20.210863 c -0.04686,0.175209 -0.1159756,0.383317 -0.015369,0.550681 0.013101,0.02185 0.04328,0.01101 0.045261,-0.01227 0.014987,-0.177349 0.00596,-0.352447 0.02951,-0.530379 0.00455,-0.03439 -0.050728,-0.04007 -0.059402,-0.0081"
       style="fill:#1e1c1a;fill-opacity:1;fill-rule:nonzero;stroke:none;stroke-width:0.00942897" />
    <path
       id="path296"
       d="m 3.2657886,20.29131 c -0.029605,0.104381 -0.052612,0.21185 -0.056944,0.320583 -0.00179,0.0492 -0.011103,0.102323 0.010262,0.14814 0.01698,0.03628 0.078925,0.03628 0.095894,0 0.020549,-0.04396 0.012459,-0.09363 0.010502,-0.140886 -0.00417,-0.103713 -0.00155,-0.204712 0.013473,-0.307661 0.00679,-0.04714 -0.059497,-0.06854 -0.073268,-0.02019"
       style="fill:#1e1c1a;fill-opacity:1;fill-rule:nonzero;stroke:none;stroke-width:0.00942897" />
    <path
       id="path297"
       d="m 3.336319,20.442835 c -0.00706,0.132195 -0.013018,0.267762 -0.00585,0.400072 0.00382,0.06957 0.1071085,0.07042 0.1086249,0 0.00274,-0.132858 -0.020655,-0.267511 -0.029127,-0.400072 -0.00299,-0.04734 -0.071096,-0.04763 -0.073639,0"
       style="fill:#1e1c1a;fill-opacity:1;fill-rule:nonzero;stroke:none;stroke-width:0.00942897" />
    <path
       id="path298"
       d="m 3.2607911,20.348544 c -0.00489,0.08232 -0.1053183,0.715642 0.1246495,0.616938 0.02481,-0.01045 0.039032,-0.03773 0.023496,-0.0625 -0.029987,-0.04763 -0.049128,-0.08196 -0.059031,-0.139557 -0.023579,-0.136164 -0.0024,-0.277788 -0.00585,-0.414876 -0.00132,-0.05394 -0.080046,-0.05326 -0.083255,0"
       style="fill:#1e1c1a;fill-opacity:1;fill-rule:nonzero;stroke:none;stroke-width:0.00942897" />
    <path
       id="path299"
       d="m 3.2519274,20.348544 c -0.0093,0.18821 -0.0776,0.471816 0.047994,0.634947 0.025071,0.03263 0.081371,0.02546 0.081657,-0.02205 5.323e-4,-0.0938 -0.029032,-0.187181 -0.037339,-0.281068 -0.00967,-0.109869 -0.011103,-0.221684 -0.014892,-0.331815 -0.00179,-0.04997 -0.074962,-0.04969 -0.077408,0"
       style="fill:#1e1c1a;fill-opacity:1;fill-rule:nonzero;stroke:none;stroke-width:0.00942897" />
    <path
       id="path300"
       d="m 3.2358061,20.375208 c -0.043089,0.106843 -0.2364796,0.669091 0.039511,0.624011 0.033936,-0.0055 0.036204,-0.04826 0.018388,-0.06977 -0.052612,-0.06315 -0.040249,-0.170455 -0.034976,-0.245812 0.00679,-0.09645 0.016408,-0.197162 0.039605,-0.291083 0.010262,-0.04166 -0.047243,-0.05514 -0.062515,-0.01735"
       style="fill:#1e1c1a;fill-opacity:1;fill-rule:nonzero;stroke:none;stroke-width:0.00942897" />
    <path
       id="path301"
       d="m 3.5566737,19.619786 c -0.1703823,0.241656 -0.3038024,0.504527 -0.3338816,0.80268 -0.017266,0.171714 -0.067408,0.424673 0.00179,0.588096 0.028198,0.06638 0.1155101,0.02309 0.1211626,-0.03293 0.01698,-0.166112 -0.00382,-0.346779 -0.00132,-0.514803 0.00406,-0.286661 0.1043763,-0.576676 0.2458122,-0.823452 0.012732,-0.02214 -0.019426,-0.03988 -0.033663,-0.01961"
       style="fill:#1e1c1a;fill-opacity:1;fill-rule:nonzero;stroke:none;stroke-width:0.00942897" />
    <path
       id="path302"
       d="m 4.1391955,19.225165 c -0.7321611,0.04026 -1.0765055,0.995607 -1.08009,1.615385 -0.00132,0.25344 0.2489243,0.508023 0.3871557,0.185258 0.078637,-0.18375 0.018282,-0.399958 -0.018387,-0.585889 -0.064116,-0.325403 0.045726,-0.608571 0.2354436,-0.869925 0.012732,-0.01753 -0.012636,-0.04316 -0.030261,-0.03019 -0.1947098,0.143502 -0.3271872,0.394219 -0.3336918,0.639079 -0.00382,0.146808 0.024605,0.285998 0.05204,0.429681 0.027339,0.143901 0.034044,0.276203 -0.028854,0.412442 -0.1156892,-0.01709 -0.1659493,-0.07722 -0.151051,-0.180473 -0.00132,-0.03819 -0.00113,-0.07639 0.00155,-0.114483 0.023389,-0.59808 0.3566018,-1.294683 0.9734449,-1.447422 0.029605,-0.0072 0.023759,-0.05517 -0.00727,-0.05348"
       style="fill:#1e1c1a;fill-opacity:1;fill-rule:nonzero;stroke:none;stroke-width:0.00942897" />
    <path
       id="path303"
       d="m 4.1687078,19.219311 c -0.3838539,-0.08023 -0.7331968,0.250056 -0.9793874,0.498046 -0.1648191,0.165961 -0.3197362,0.340764 -0.4953034,0.495795 -0.2732517,0.241467 -0.6004376,0.325961 -0.9592112,0.339445 -0.021968,8.03e-4 -0.027542,0.03338 -0.00525,0.03904 0.4881378,0.125971 0.9122544,-0.181066 1.2374595,-0.510672 0.1653837,-0.167543 0.3205837,-0.344081 0.4966234,-0.500763 0.2136601,-0.190089 0.4289231,-0.268548 0.7050985,-0.318232 0.021493,-0.0039 0.020858,-0.03832 0,-0.04266"
       style="fill:#1e1c1a;fill-opacity:1;fill-rule:nonzero;stroke:none;stroke-width:0.00942897" />
    <path
       id="path304"
       d="m 4.5575604,19.243185 c -0.3749913,-0.14332 -0.8410663,0.18839 -1.0212537,0.496999 -0.2164908,0.370647 0.031491,0.897933 0.4615487,0.955902 0.2286517,0.03075 0.7293295,-0.241353 0.4379757,-0.507353 -0.1866003,-0.170316 -0.6389073,-0.08703 -0.5029431,0.226184 0.02395,0.05518 0.1214456,0.02847 0.114663,-0.03101 -0.039319,-0.343016 0.6262737,-0.01838 0.1376648,0.163131 C 3.8899012,20.656872 3.6367313,20.40435 3.5625255,20.137132 3.4882195,19.869547 3.7204593,19.60546 3.9175258,19.464289 4.1131759,19.324172 4.321934,19.307382 4.5517181,19.285911 c 0.024879,-0.0023 0.029127,-0.03377 0.00585,-0.04273"
       style="fill:#1e1c1a;fill-opacity:1;fill-rule:nonzero;stroke:none;stroke-width:0.00942897" />
    <path
       id="path305"
       d="M 7.6626156,19.727193 C 7.3728642,19.339834 6.9905186,18.956553 6.52699,18.789925 6.2381814,18.686127 5.8522524,18.662088 5.72779,19.000569 c -0.069593,0.189058 0.04328,0.399032 0.1769801,0.525372 0.078172,0.07403 0.2592975,0.127774 0.3269055,0.01227 0.1877312,-0.320409 -0.3972452,-0.469095 -0.580355,-0.491637 -0.2373267,-0.02901 -0.8569071,-0.04193 -0.8872669,0.316717 -0.0093,0.110341 0.077981,0.322094 0.2291243,0.280512 0.1567106,-0.04306 0.057706,-0.226181 -0.013018,-0.298416 -0.2799462,-0.286255 -0.8457811,-0.171779 -1.1904081,-0.121805 -0.310591,0.04505 -0.6148659,0.109173 -0.9195155,0.184715 -0.3552842,0.08827 -0.7005725,0.216384 -1.055951,0.299556 -0.2392139,0.05598 -0.8056321,-0.0597 -0.6272157,-0.430347 0.063362,-0.131712 0.2107373,-0.152297 0.3355784,-0.133512 0.086181,0.01279 0.3263357,0.165853 0.083727,0.215724 -0.1061679,0.02181 -0.061478,0.186335 0.044796,0.162576 0.295317,-0.06594 0.2438351,-0.373776 0.018389,-0.483046 -0.2419447,-0.117397 -0.6429877,-0.0057 -0.657613,0.309456 -0.0182244,0.392407 0.4209472,0.536312 0.7410596,0.504528 0.2471343,-0.02448 0.4808788,-0.141803 0.7181127,-0.208287 0.3158698,-0.08843 0.6322125,-0.175653 0.9533616,-0.243165 0.4110096,-0.08647 0.9247027,-0.198969 1.3349558,-0.06865 0.054593,0.01927 0.1032434,0.04809 0.146057,0.08696 -0.1035299,-0.08684 0.1383221,-0.207436 0.1923493,-0.228389 0.06309,-0.02442 0.1395489,-0.02666 0.2057393,-0.03254 0.1929198,-0.01699 0.3912105,-0.0035 0.5777152,0.04901 0.092874,0.02622 0.1802805,0.07374 0.2339319,0.155987 -0.027911,0.146581 -0.088912,0.160353 -0.1832028,0.04116 -0.099854,-0.09297 -0.134647,-0.248549 -0.105224,-0.377424 0.058077,-0.254139 0.3974322,-0.204156 0.5779003,-0.15786 0.5083173,0.130423 0.8234332,0.573104 1.1948399,0.90574 0.032256,0.02876 0.09174,-0.01035 0.06309,-0.04862"
       style="fill:#1e1c1a;fill-opacity:1;fill-rule:nonzero;stroke:none;stroke-width:0.00942897" />
    <path
       id="path306"
       d="m 1.7112337,19.804869 c 2.7980477,0.05648 5.5997741,0.01809 8.3982953,0.01809 2.826525,0 5.653238,0.01158 8.479669,-0.02545 0.03414,-5.4e-4 0.03414,-0.05252 0,-0.05298 -2.795314,-0.03658 -5.59082,-0.02551 -8.386228,-0.02551 -2.8296345,0 -5.6625713,-0.03899 -8.4917363,0.01813 -0.043661,8.02e-4 -0.043661,0.06686 0,0.0677"
       style="fill:#1e1c1a;fill-opacity:1;fill-rule:nonzero;stroke:none;stroke-width:0.00942897" />
    <path
       id="path307"
       d="m 23.245627,19.919412 c 0.02895,0.02539 0.05693,0.05498 0.07967,0.08619 0.02234,0.03075 0.02687,0.06872 0.05073,0.09844 0.01585,0.01977 0.05451,0.01447 0.06497,-0.0084 0.05131,-0.111274 -0.08459,-0.179046 -0.163218,-0.217901 -0.02565,-0.01264 -0.05602,0.02084 -0.03216,0.04166"
       style="fill:#1e1c1a;fill-opacity:1;fill-rule:nonzero;stroke:none;stroke-width:0.00942897" />
    <path
       id="path308"
       d="m 23.261752,19.866523 c 0.04781,0.02585 0.07749,0.06395 0.108154,0.10769 0.033,0.04702 0.04318,0.100502 0.06723,0.151232 0.02592,0.05495 0.102876,0.02302 0.105996,-0.02867 0.0084,-0.139558 -0.135873,-0.255912 -0.259296,-0.282795 -0.03084,-0.0066 -0.05196,0.03648 -0.02205,0.05252"
       style="fill:#1e1c1a;fill-opacity:1;fill-rule:nonzero;stroke:none;stroke-width:0.00942897" />
    <path
       id="path309"
       d="m 23.118714,19.833446 c 0.05545,0.01101 0.470788,0.176214 0.361789,0.260148 -0.02931,0.02243 -0.149639,-0.155872 -0.165667,-0.176718 -0.03933,-0.05091 -0.09957,-0.137276 -0.17274,-0.126515 l -0.01158,0.02043 c 0.01963,0.04646 0.05592,0.08328 0.08195,0.126812 0.0364,0.06093 0.08136,0.119485 0.126818,0.173992 0.06968,0.08372 0.191691,0.133033 0.250242,0.0076 0.05479,-0.117311 -0.06534,-0.215726 -0.154257,-0.267699 -0.08524,-0.04957 -0.234121,-0.115507 -0.323507,-0.0446 -0.0092,0.0073 -0.0041,0.02434 0.007,0.02652"
       style="fill:#1e1c1a;fill-opacity:1;fill-rule:nonzero;stroke:none;stroke-width:0.00942897" />
    <path
       id="path310"
       d="m 23.594406,19.43695 c -0.132006,0.01716 -0.277682,0.03819 -0.377348,0.133515 -0.0129,0.01227 5.41e-4,0.03179 0.0165,0.0283 0.124556,-0.02695 0.245059,-0.07301 0.368198,-0.10759 0.02905,-0.0082 0.02432,-0.05837 -0.0073,-0.05421"
       style="fill:#1e1c1a;fill-opacity:1;fill-rule:nonzero;stroke:none;stroke-width:0.00942897" />
    <path
       id="path311"
       d="m 23.544053,19.49257 c -0.05451,-0.01566 -0.109846,10e-4 -0.163118,0.01518 -0.05638,0.01509 -0.118805,0.03482 -0.156238,0.08213 -0.0095,0.01208 -0.0088,0.03463 0.01,0.0381 0.05308,0.01 0.101552,-0.0068 0.15181,-0.02358 0.05439,-0.01802 0.115319,-0.02395 0.165098,-0.05326 0.02406,-0.01413 0.01887,-0.05084 -0.0075,-0.05858"
       style="fill:#1e1c1a;fill-opacity:1;fill-rule:nonzero;stroke:none;stroke-width:0.00942897" />
    <path
       id="path312"
       d="m 23.087597,19.679641 c 0.116632,0.0031 0.588368,0.01623 0.547451,-0.196204 -0.0072,-0.03699 -0.05346,-0.05054 -0.08343,-0.03386 -0.0278,0.01537 -0.04856,0.03913 -0.0774,0.05452 -0.04366,0.02309 -0.09476,0.0343 -0.141627,0.04893 -0.08288,0.02585 -0.168024,0.05319 -0.252033,0.07458 -0.02962,0.0074 -0.02247,0.05131 0.007,0.05204"
       style="fill:#1e1c1a;fill-opacity:1;fill-rule:nonzero;stroke:none;stroke-width:0.00942897" />
    <path
       id="path313"
       d="m 23.032439,19.705864 c 0.151619,0.03525 0.722826,0.03093 0.701047,-0.219224 -0.01537,-0.17584 -0.219886,-0.137567 -0.329262,-0.09241 -0.09588,0.0396 -0.186599,0.09101 -0.277213,0.14118 -0.04734,0.02611 -0.149353,0.0677 -0.172171,0.120766 -0.0041,0.0092 -0.0023,0.0179 0.006,0.02367 0.06704,0.04556 0.211868,-0.0561 0.268065,-0.08637 0.06382,-0.03439 0.327185,-0.202061 0.384515,-0.107286 0.04958,0.08184 -0.519257,0.146339 -0.581108,0.161431 -0.02875,0.007 -0.02913,0.0515 0,0.05827"
       style="fill:#1e1c1a;fill-opacity:1;fill-rule:nonzero;stroke:none;stroke-width:0.00942897" />
    <path
       id="path314"
       d="m 22.983692,19.58461 c 0.08817,-0.09912 0.153975,-0.20744 0.20866,-0.328243 0.04281,-0.09429 0.106451,-0.215435 0.06649,-0.318594 -0.0089,-0.02309 -0.03252,-0.02885 -0.05166,-0.01367 -0.07327,0.05808 -0.08818,0.159558 -0.118898,0.243824 -0.0464,0.12711 -0.108532,0.248283 -0.161803,0.372555 -0.015,0.03507 0.02734,0.07779 0.05724,0.04411"
       style="fill:#1e1c1a;fill-opacity:1;fill-rule:nonzero;stroke:none;stroke-width:0.00942897" />
    <path
       id="path315"
       d="m 22.934658,19.626671 c 0.163311,-0.09553 0.330298,-0.223936 0.381591,-0.415648 0.0198,-0.07403 0.01339,-0.319181 -0.116727,-0.298815 -0.08597,0.01329 -0.128421,0.16681 -0.154727,0.232926 -0.05725,0.143868 -0.117573,0.303426 -0.13889,0.456238 -0.0021,0.01559 0.01585,0.03094 0.02895,0.01693 0.132855,-0.142946 0.156991,-0.37783 0.241383,-0.550571 0.0084,-0.01716 0.01829,-0.03311 0.02905,-0.04877 0.01953,-0.0283 -0.0166,-0.02884 -0.01145,-0.01113 0.01819,0.06449 0.02217,0.134175 0.0052,0.198961 -0.03997,0.1516 -0.186787,0.275024 -0.293334,0.382241 -0.01914,0.01934 0.0055,0.0515 0.02905,0.03765"
       style="fill:#1e1c1a;fill-opacity:1;fill-rule:nonzero;stroke:none;stroke-width:0.00942897" />
    <path
       id="path316"
       d="m 16.525502,19.49673 c 0.08383,-0.133147 0.194143,-0.238005 0.333974,-0.310789 0.110881,-0.0578 0.287487,-0.06866 0.357263,0.05651 0.04423,0.0792 -0.0054,0.183866 -0.06204,0.241072 -0.03084,0.03112 -0.06902,0.04877 -0.112765,0.04791 -0.0877,-0.0015 -0.113707,-0.143677 -0.01451,-0.09363 0.05252,0.02648 0.09948,-0.0359 0.06156,-0.07986 -0.05987,-0.0696 -0.170571,-0.04603 -0.221016,0.02399 -0.06881,0.09573 -0.01479,0.197159 0.07978,0.248102 0.168964,0.09089 0.326051,-0.07452 0.372818,-0.222909 0.06412,-0.203495 -0.09202,-0.337265 -0.27919,-0.358414 -0.22375,-0.02524 -0.520103,0.22177 -0.547445,0.439408 -0.0019,0.01782 0.02338,0.02158 0.03158,0.0086"
       style="fill:#1e1c1a;fill-opacity:1;fill-rule:nonzero;stroke:none;stroke-width:0.00942897" />
    <path
       id="path317"
       d="m 20.294827,19.63478 c -0.02072,-0.07404 -0.061,-0.139001 -0.112586,-0.195395 -0.0475,-0.05204 -0.137943,-0.119628 -0.212714,-0.09286 -0.01858,0.0064 -0.02302,0.0263 -0.01101,0.04128 0.03922,0.04818 0.109092,0.07688 0.155951,0.11938 0.05064,0.04611 0.09166,0.102134 0.13842,0.151893 0.01733,0.0185 0.04846,-5.4e-4 0.04185,-0.02432"
       style="fill:#1e1c1a;fill-opacity:1;fill-rule:nonzero;stroke:none;stroke-width:0.00942897" />
    <path
       id="path318"
       d="m 19.832148,20.65083 c -0.187637,-0.09975 -0.515294,-0.15492 -0.546503,0.133803 -0.01567,0.145189 0.113433,0.266002 0.257976,0.244014 0.102677,-0.01574 0.255244,-0.130978 0.118899,-0.22195 -0.0544,-0.03622 -0.133418,0.03782 -0.09258,0.09267 0.01772,-0.03043 0.01699,-0.03693 -0.0019,-0.01951 -0.01247,0.007 -0.02575,0.0122 -0.03969,0.01535 -0.04338,0.01301 -0.09486,-0.0086 -0.121634,-0.04374 -0.04686,-0.06186 0.001,-0.154437 0.06402,-0.177275 0.104475,-0.03779 0.244588,-7.4e-5 0.352268,0.01101 0.01848,0.0017 0.02481,-0.02599 0.0093,-0.03432"
       style="fill:#1e1c1a;fill-opacity:1;fill-rule:nonzero;stroke:none;stroke-width:0.00942897" />
    <path
       id="path319"
       d="m 22.345065,19.816657 c 0.193577,-0.02113 0.500493,-0.0876 0.618448,0.117932 0.03809,0.0664 0.0297,0.163236 -0.02358,0.217931 -0.03601,0.03694 -0.09703,0.0088 -0.132666,-0.01024 -0.06506,-0.03449 -0.02687,-0.05651 -0.0077,-0.09919 0.01045,-0.02302 0.0081,-0.05348 -0.01734,-0.0665 l -0.017,-0.0088 c -0.0213,-0.01101 -0.04959,-0.01443 -0.07062,0 -0.143321,0.09884 -0.05101,0.27211 0.08306,0.326705 0.150957,0.06157 0.287678,-0.0098 0.334539,-0.163396 0.04668,-0.152589 -0.04243,-0.301651 -0.168779,-0.379808 -0.179904,-0.111452 -0.419586,-0.02545 -0.604301,0.02194 -0.02358,0.0059 -0.01932,0.04624 0.0059,0.04339"
       style="fill:#1e1c1a;fill-opacity:1;fill-rule:nonzero;stroke:none;stroke-width:0.00942897" />
    <path
       id="path320"
       d="m 22.274348,20.4056 c -0.293524,-0.02096 -0.579879,-0.06423 -0.87218,-0.09242 -0.02339,-0.0019 -0.03216,0.03355 -0.01193,0.04395 0.269669,0.137276 0.598553,0.199149 0.890759,0.09845 0.02763,-0.0095 0.02217,-0.0479 -0.0066,-0.04998"
       style="fill:#1e1c1a;fill-opacity:1;fill-rule:nonzero;stroke:none;stroke-width:0.00942897" />
    <path
       id="path321"
       d="m 22.321495,20.428501 c -0.194519,-0.01831 -0.373011,0.03148 -0.573756,-0.01215 -0.257503,-0.05603 -0.459565,-0.224599 -0.704436,-0.303718 -0.02555,-0.0084 -0.03829,0.02357 -0.02394,0.04129 0.187732,0.230643 0.503978,0.387436 0.794959,0.43429 0.152467,0.02464 0.463338,0.05698 0.532452,-0.126633 0.0064,-0.01723 -0.0097,-0.03167 -0.02525,-0.03307"
       style="fill:#1e1c1a;fill-opacity:1;fill-rule:nonzero;stroke:none;stroke-width:0.00942897" />
    <path
       id="path322"
       d="m 21.897192,20.588691 c 0.180186,-0.0029 0.417796,0.0698 0.521889,-0.130979 0.06818,-0.131344 -0.150577,-0.152994 -0.223278,-0.156502 -0.349905,-0.01708 -0.654368,-0.05535 -0.976652,-0.213397 -0.360658,-0.176868 -0.592422,-0.54489 -0.95242,-0.707363 -0.01507,-0.0068 -0.03242,0.01145 -0.01876,0.02434 0.394508,0.372633 0.75281,0.753178 1.278097,0.932809 0.186129,0.06376 0.388099,0.08644 0.583938,0.08195 0.02358,-5.41e-4 0.222899,-0.0096 0.187448,0.03457 -0.06674,0.08328 -0.302294,0.0909 -0.40026,0.102134 -0.02018,0.0023 -0.02141,0.03279 0,0.03241"
       style="fill:#1e1c1a;fill-opacity:1;fill-rule:nonzero;stroke:none;stroke-width:0.00942897" />
    <path
       id="path323"
       d="m 20.558748,20.218896 c 0.02357,0.177934 0.01444,0.353033 0.02942,0.530379 0.0017,0.02329 0.03216,0.03415 0.04535,0.01226 0.100503,-0.167365 0.03149,-0.375472 -0.01548,-0.550682 -0.0086,-0.03205 -0.06394,-0.02636 -0.05932,0.0081"
       style="fill:#1e1c1a;fill-opacity:1;fill-rule:nonzero;stroke:none;stroke-width:0.00942897" />
    <path
       id="path324"
       d="m 20.52876,20.311486 c 0.015,0.102948 0.01765,0.203942 0.01349,0.307661 -0.0017,0.04726 -0.01,0.09695 0.01045,0.140886 0.01699,0.03628 0.07883,0.03628 0.0958,0 0.0214,-0.04584 0.01236,-0.09893 0.01024,-0.14814 -0.0043,-0.108733 -0.02735,-0.216204 -0.05694,-0.320583 -0.01375,-0.04837 -0.08006,-0.02696 -0.07318,0.02019"
       style="fill:#1e1c1a;fill-opacity:1;fill-rule:nonzero;stroke:none;stroke-width:0.00942897" />
    <path
       id="path325"
       d="m 20.457762,20.442835 c -0.0084,0.132561 -0.03186,0.267214 -0.02905,0.400072 0.0012,0.07042 0.104755,0.06957 0.108532,0 0.0072,-0.13231 0.0012,-0.267877 -0.0057,-0.400072 -0.0027,-0.04763 -0.07063,-0.04734 -0.07373,0"
       style="fill:#1e1c1a;fill-opacity:1;fill-rule:nonzero;stroke:none;stroke-width:0.00942897" />
    <path
       id="path326"
       d="m 20.523766,20.348544 c -0.0035,0.129168 0.0075,0.257598 -0.0028,0.38688 -0.0048,0.06148 -0.02026,0.111062 -0.05715,0.159634 -0.01988,0.02611 -0.01181,0.05748 0.01838,0.07042 0.230068,0.09871 0.129649,-0.534622 0.124654,-0.616941 -0.0033,-0.05326 -0.08184,-0.05394 -0.08317,0"
       style="fill:#1e1c1a;fill-opacity:1;fill-rule:nonzero;stroke:none;stroke-width:0.00942897" />
    <path
       id="path327"
       d="m 20.538473,20.348544 c -0.0035,0.09654 -0.0082,0.193295 -0.01227,0.289941 -0.0046,0.108802 -0.04073,0.215171 -0.04007,0.322942 2.67e-4,0.0475 0.05667,0.0547 0.08166,0.02205 0.125594,-0.163131 0.05733,-0.446736 0.048,-0.63495 -0.0023,-0.04969 -0.07562,-0.04997 -0.07733,0"
       style="fill:#1e1c1a;fill-opacity:1;fill-rule:nonzero;stroke:none;stroke-width:0.00942897" />
    <path
       id="path328"
       d="m 20.569493,20.392557 c 0.02142,0.08684 0.02763,0.177757 0.03724,0.266482 0.0088,0.08044 0.02376,0.202611 -0.03273,0.270415 -0.01782,0.02152 -0.01549,0.06431 0.01847,0.06977 0.275986,0.04508 0.0825,-0.517159 0.03941,-0.624011 -0.01518,-0.03779 -0.0727,-0.0243 -0.06243,0.01735"
       style="fill:#1e1c1a;fill-opacity:1;fill-rule:nonzero;stroke:none;stroke-width:0.00942897" />
    <path
       id="path329"
       d="m 20.277386,19.639381 c 0.142189,0.24799 0.239873,0.535943 0.245907,0.823454 0.0036,0.168389 -0.01848,0.348287 -0.0015,0.514801 0.0057,0.05603 0.09297,0.09929 0.121163,0.03293 0.06978,-0.164271 0.01801,-0.415354 0.0019,-0.588095 -0.02754,-0.297378 -0.164345,-0.562352 -0.33388,-0.802679 -0.01433,-0.02028 -0.0464,-0.0027 -0.03375,0.01961"
       style="fill:#1e1c1a;fill-opacity:1;fill-rule:nonzero;stroke:none;stroke-width:0.00942897" />
    <path
       id="path330"
       d="m 19.721264,19.278648 c 0.631838,0.156501 0.929885,0.84692 0.973448,1.447422 0.0053,0.07233 0.0014,0.143058 -0.01035,0.214879 -0.105508,0.121651 -0.164914,0.114114 -0.178116,-0.02272 -0.01247,-0.06153 -0.01518,-0.123314 -0.0083,-0.185372 0.0091,-0.163389 0.06174,-0.322359 0.07223,-0.486518 0.01668,-0.264595 -0.125879,-0.551886 -0.335579,-0.706513 -0.01755,-0.013 -0.04301,0.01264 -0.03017,0.03017 0.160294,0.220911 0.274289,0.466065 0.255151,0.744887 -0.01667,0.242128 -0.114091,0.453987 -0.04394,0.69719 0.08986,0.311524 0.375084,0.1333 0.389511,-0.112706 0.03705,-0.631994 -0.336616,-1.633567 -1.076695,-1.674199 -0.03092,-0.0015 -0.03686,0.04619 -0.0072,0.05348"
       style="fill:#1e1c1a;fill-opacity:1;fill-rule:nonzero;stroke:none;stroke-width:0.00942897" />
    <path
       id="path331"
       d="m 19.699013,19.261966 c 0.257503,0.04626 0.455324,0.1152 0.661723,0.281542 0.197635,0.158962 0.364055,0.355727 0.539998,0.537452 0.321341,0.331965 0.752622,0.635796 1.237463,0.510673 0.02234,-0.0057 0.01668,-0.03819 -0.0053,-0.03902 -0.341612,-0.01294 -0.646164,-0.08911 -0.91678,-0.303716 -0.181602,-0.144094 -0.336049,-0.32265 -0.49634,-0.489165 -0.251755,-0.261656 -0.619015,-0.624416 -1.020782,-0.540405 -0.02072,0.0043 -0.0214,0.0388 0,0.04267"
       style="fill:#1e1c1a;fill-opacity:1;fill-rule:nonzero;stroke:none;stroke-width:0.00942897" />
    <path
       id="path332"
       d="m 19.316008,19.285908 c 0.442501,0.04141 0.951383,0.224853 0.997775,0.746575 0.02716,0.305491 -0.290793,0.586482 -0.582901,0.528506 -0.135492,-0.02702 -0.367541,-0.229057 -0.136437,-0.321907 0.114091,-0.04592 0.241381,0.0088 0.225822,0.144822 -0.0069,0.05948 0.09072,0.0862 0.114569,0.03101 0.121539,-0.279744 -0.287397,-0.422798 -0.475128,-0.251567 -0.301442,0.27525 0.131817,0.570084 0.410161,0.532736 0.403843,-0.05451 0.663988,-0.539694 0.486252,-0.905182 -0.163309,-0.335944 -0.653992,-0.697555 -1.045958,-0.54772 -0.02319,0.009 -0.01907,0.04045 0.0058,0.04272"
       style="fill:#1e1c1a;fill-opacity:1;fill-rule:nonzero;stroke:none;stroke-width:0.00942897" />
    <path
       id="path333"
       d="m 16.268185,19.775808 c 0.366124,-0.327844 0.663892,-0.731375 1.14826,-0.891963 0.167553,-0.05554 0.367634,-0.08693 0.527078,0.0054 0.191032,0.110622 0.09644,0.386408 -0.008,0.516131 -0.130496,0.162464 -0.229406,0.0057 -0.146904,-0.08941 0.0379,-0.04372 0.101644,-0.07163 0.153409,-0.09278 0.164066,-0.06667 0.353306,-0.07175 0.527836,-0.06891 0.08014,0.0012 0.160197,0.0095 0.238929,0.02319 0.0577,0.01009 0.09817,0.02799 0.152939,0.05761 0.0364,0.03536 0.07298,0.07061 0.109477,0.1059 -0.03046,0.09628 -0.01133,0.106071 0.05781,0.02931 0.173678,-0.115986 0.439388,-0.09291 0.637301,-0.08051 0.230634,0.01433 0.46287,0.05458 0.690297,0.09502 0.293242,0.05234 0.581014,0.133804 0.867842,0.212999 0.290697,0.08026 0.575168,0.201025 0.872275,0.253075 0.268538,0.04706 0.778177,-0.08855 0.761389,-0.449095 -0.01584,-0.341251 -0.350663,-0.475022 -0.642769,-0.369795 -0.250531,0.09013 -0.293056,0.424675 10e-4,0.49031 0.106155,0.02376 0.150958,-0.140777 0.04471,-0.162575 -0.285602,-0.05864 0.07524,-0.218566 0.162836,-0.22309 0.264297,-0.01337 0.352079,0.276827 0.188206,0.45296 -0.283624,0.304742 -0.78515,0.04858 -1.103849,-0.04893 -0.576771,-0.176604 -1.181077,-0.303046 -1.781891,-0.360762 -0.218093,-0.02094 -0.436657,-0.01685 -0.645978,0.05282 -0.104945,0.035 -0.336993,0.171966 -0.289658,0.31606 0.08296,0.25252 0.513879,-0.143789 0.181789,-0.380072 -0.282491,-0.201025 -0.748944,-0.163679 -1.061229,-0.05638 -0.111264,0.03818 -0.244493,0.120218 -0.278439,0.241654 -0.03716,0.133213 -5.4e-4,0.254103 0.152654,0.249794 0.371314,-0.01074 0.476163,-0.591299 0.222995,-0.79903 -0.244962,-0.201036 -0.681524,-0.03415 -0.918854,0.09675 -0.346985,0.19138 -0.649937,0.511598 -0.88472,0.825705 -0.02866,0.03827 0.03084,0.07738 0.063,0.04861"
       style="fill:#1e1c1a;fill-opacity:1;fill-rule:nonzero;stroke:none;stroke-width:0.00942897" />
    <path
       id="path334"
       d="m 22.405767,19.737168 c -1.7006,-0.05651 -3.403437,-0.01812 -5.10427,-0.01812 -1.717963,0 -3.435986,-0.01157 -5.15378,0.0255 -0.0208,5.41e-4 -0.0208,0.05249 0,0.05297 1.698883,0.03659 3.397994,0.02546 5.096933,0.02546 1.719855,0 3.44166,0.03902 5.161117,-0.01809 0.02659,-8.01e-4 0.02659,-0.06685 0,-0.06769"
       style="fill:#1e1c1a;fill-opacity:1;fill-rule:nonzero;stroke:none;stroke-width:0.00735086" />
    <path
       id="path279-5"
       d="m 0.56806742,3.6424947 c -0.078602,-0.03886 -0.21450936,-0.106635 -0.16324266,-0.2179 0.010502,-0.02286 0.049169,-0.02817 0.065088,-0.0084 0.023573,0.02943 0.030318,0.06658 0.050646,0.09843 0.020181,0.03168 0.051565,0.06153 0.079628,0.08619 0.023895,0.02083 -0.00644,0.0543 -0.032115,0.04167"
       style="fill:#1e1c1a;fill-opacity:1;fill-rule:nonzero;stroke:none;stroke-width:0.00942897" />
    <path
       id="path280-5"
       d="m 0.56202422,3.7062467 c -0.12338906,-0.02687 -0.26768966,-0.143238 -0.25925956,-0.282793 0.0031,-0.05165 0.079967,-0.08362 0.1059351,-0.02866 0.021542,0.04563 0.032888,0.0927 0.058183,0.13701 0.028477,0.04988 0.066522,0.09448 0.11727966,0.121916 0.029795,0.01601 0.00868,0.05919 -0.022131,0.05251"
       style="fill:#1e1c1a;fill-opacity:1;fill-rule:nonzero;stroke:none;stroke-width:0.00942897" />
    <path
       id="path281-1"
       d="m 0.73406592,3.7133197 c -0.087068,0.06921 -0.2233455,0.0071 -0.30868726,-0.03669 -0.09447,-0.04846 -0.2257379,-0.154366 -0.1690886,-0.275621 0.055357,-0.118599 0.1685434,-0.08118 0.2403257,-0.0039 0.048319,0.05204 0.087179,0.113219 0.12754556,0.171419 0.031124,0.04486 0.070094,0.0908 0.09112,0.140766 l -0.011574,0.02043 c -0.1177571,0.01734 -0.27573206,-0.337085 -0.33833926,-0.303235 -0.076244,0.04132 0.1037169,0.156352 0.1267352,0.16924 0.069359,0.03897 0.15671836,0.07525 0.23495096,0.0909 0.011013,0.0021 0.016171,0.01914 0.007,0.02651"
       style="fill:#1e1c1a;fill-opacity:1;fill-rule:nonzero;stroke:none;stroke-width:0.00942897" />
    <path
       id="path282-5"
       d="m 0.24405956,4.0290857 c 0.1230471,-0.03458 0.2436456,-0.08063 0.36823986,-0.107591 0.015927,-0.0037 0.029358,0.01601 0.016466,0.0283 -0.099625,0.09531 -0.24533186,0.116345 -0.37733786,0.133511 -0.031673,0.0042 -0.036385,-0.04612 -0.00735,-0.05421"
       style="fill:#1e1c1a;fill-opacity:1;fill-rule:nonzero;stroke:none;stroke-width:0.00942897" />
    <path
       id="path283-9"
       d="m 0.29422226,3.9691187 c 0.04954,-0.02931 0.1106021,-0.0359 0.1650441,-0.05326 0.050683,-0.01625 0.098409,-0.03377 0.15181686,-0.02357 0.018709,0.0036 0.019669,0.026 0.010095,0.03809 -0.033852,0.04269 -0.086076,0.06081 -0.13679536,0.07648 -0.057497,0.01782 -0.1230579,0.03802 -0.1825352,0.02085 -0.026646,-0.0077 -0.031794,-0.04441 -0.00761,-0.05858"
       style="fill:#1e1c1a;fill-opacity:1;fill-rule:nonzero;stroke:none;stroke-width:0.00942897" />
    <path
       id="path284-1"
       d="m 0.76530292,3.8926587 c -0.084276,0.02146 -0.168431,0.04998 -0.2520088,0.07458 -0.047617,0.01403 -0.096495,0.02779 -0.14153696,0.04893 -0.030138,0.01406 -0.049437,0.03896 -0.077497,0.05452 -0.030023,0.01668 -0.076244,0.0032 -0.083429,-0.03385 -0.040988,-0.212442 0.43079096,-0.199149 0.54739916,-0.196206 0.029545,8.04e-4 0.036652,0.0445 0.0071,0.05204"
       style="fill:#1e1c1a;fill-opacity:1;fill-rule:nonzero;stroke:none;stroke-width:0.00942897" />
    <path
       id="path285-6"
       d="m 0.81339942,3.8726607 c -0.09281,0.02264 -0.1905587,0.02472 -0.2848198,0.04019 -0.051886,0.0086 -0.29475966,0.03288 -0.30072776,0.106918 -0.00907,0.113516 0.32978646,-0.06157 0.36239166,-0.07882 0.060254,-0.03178 0.2222043,-0.14976 0.2946182,-0.100502 0.0085,0.0057 0.010137,0.01451 0.00622,0.02368 -0.020445,0.04749 -0.1059333,0.08213 -0.1476553,0.107025 -0.093148,0.05543 -0.1905317,0.105486 -0.28947016,0.149609 -0.1208045,0.05404 -0.2896386,0.08914 -0.3394433,-0.07156 -0.079402,-0.256277 0.56843396,-0.265125 0.69888436,-0.234769 0.029098,0.0068 0.028732,0.05118 0,0.05827"
       style="fill:#1e1c1a;fill-opacity:1;fill-rule:nonzero;stroke:none;stroke-width:0.00942897" />
    <path
       id="path286-7"
       d="m 0.91937242,3.9797627 c -0.047956,0.111827 -0.1012839,0.2214 -0.1468852,0.334248 -0.037753,0.09336 -0.051528,0.216868 -0.1338156,0.282134 -0.019134,0.01518 -0.042758,0.0094 -0.051706,-0.01367 -0.039996,-0.103157 0.023683,-0.224303 0.066447,-0.318594 0.054763,-0.120802 0.1205877,-0.229132 0.2086908,-0.328242 0.029871,-0.03369 0.0723,0.0091 0.057273,0.04411"
       style="fill:#1e1c1a;fill-opacity:1;fill-rule:nonzero;stroke:none;stroke-width:0.00942897" />
    <path
       id="path287-3"
       d="m 0.94018282,3.9312237 c -0.1028328,0.103429 -0.2182727,0.209868 -0.2789288,0.344636 -0.032898,0.07287 -0.028286,0.146216 -0.011951,0.22242 0.00907,0.04225 -0.02224,0.01772 -0.015795,0.01124 0.012164,-0.01198 0.02053,-0.02854 0.028955,-0.04329 0.1005493,-0.17565 0.1080664,-0.413076 0.248539,-0.564231 0.013121,-0.01404 0.031122,0.0012 0.028944,0.01692 -0.02066,0.14829 -0.079034,0.298785 -0.1322224,0.438891 -0.026194,0.06912 -0.071745,0.236385 -0.1613587,0.250273 -0.1213977,0.01907 -0.1344382,-0.19963 -0.1215098,-0.272148 0.036461,-0.204978 0.217527,-0.343574 0.3863318,-0.442313 0.023601,-0.01384 0.04821,0.01831 0.028988,0.03765"
       style="fill:#1e1c1a;fill-opacity:1;fill-rule:nonzero;stroke:none;stroke-width:0.00942897" />
    <path
       id="path288-0"
       d="m 7.3518761,4.0321027 c -0.029319,0.233658 -0.3202994,0.442682 -0.5473495,0.43941 -0.2006487,-0.0031 -0.3281287,-0.166893 -0.2791932,-0.358415 0.038854,-0.152003 0.2095134,-0.310789 0.3728232,-0.22291 0.092122,0.04961 0.1371908,0.134108 0.091083,0.232261 -0.03988,0.08506 -0.1708511,0.111343 -0.2324247,0.03986 -0.037803,-0.04396 0.00907,-0.106332 0.061574,-0.07985 0.02951,0.01492 0.05421,0.01256 0.074581,-0.01633 0.027063,-0.03844 -0.053651,-0.06796 -0.074018,-0.07448 -0.040918,-0.01283 -0.084675,0.0086 -0.1155936,0.03415 -0.067885,0.05616 -0.1040063,0.14762 -0.081275,0.233989 0.035167,0.13345 0.2229943,0.126924 0.3225668,0.0927 0.1585019,-0.05421 0.2887132,-0.19086 0.3756489,-0.328976 0.00823,-0.013 0.033841,-0.0093 0.031587,0.0086"
       style="fill:#1e1c1a;fill-opacity:1;fill-rule:nonzero;stroke:none;stroke-width:0.00942897" />
    <path
       id="path289-9"
       d="m 3.5928273,3.8611647 c 0.04309,0.04583 0.082598,0.09495 0.1264431,0.140219 0.049021,0.05042 0.1246507,0.07796 0.1680254,0.131053 0.012087,0.015 0.00764,0.03482 -0.010979,0.04128 -0.070905,0.02535 -0.1526523,-0.03439 -0.2011188,-0.0808 -0.058459,-0.0561 -0.102395,-0.129459 -0.1242738,-0.207437 -0.00657,-0.02376 0.024508,-0.0428 0.04186,-0.02432"
       style="fill:#1e1c1a;fill-opacity:1;fill-rule:nonzero;stroke:none;stroke-width:0.00942897" />
    <path
       id="path291-9"
       d="m 1.5066652,3.7469877 c -0.1786783,0.0459 -0.3947352,0.123495 -0.57411058,0.03656 -0.1549838,-0.07515 -0.234216,-0.224611 -0.1989245,-0.394434 0.03027,-0.145934 0.1722205,-0.212597 0.30758338,-0.174436 0.1469604,0.0415 0.2633899,0.232075 0.1100173,0.337745 -0.020927,0.01445 -0.049361,0.01101 -0.070614,0 l -0.016916,-0.0088 c -0.025312,-0.01302 -0.027844,-0.04345 -0.017451,-0.06649 0.01427,-0.03176 0.047361,-0.04147 0.020579,-0.0758 -0.031455,-0.04031 -0.093329,-0.05748 -0.14106698,-0.04553 -0.075573,0.01893 -0.069906,0.144828 -0.055979,0.198741 0.063353,0.245635 0.45262728,0.168402 0.63093148,0.148986 0.025254,-0.0029 0.02951,0.03736 0.00594,0.04339"
       style="fill:#1e1c1a;fill-opacity:1;fill-rule:nonzero;stroke:none;stroke-width:0.00942897" />
    <path
       id="path292-1"
       d="m 1.5647474,3.0646697 c 0.2922039,-0.100706 0.6211811,-0.03882 0.8907551,0.09845 0.020286,0.01035 0.011574,0.04611 -0.011814,0.04394 -0.2922012,-0.02817 -0.5785601,-0.07144 -0.8721793,-0.09241 -0.028757,-0.0019 -0.034321,-0.04045 -0.00667,-0.04998"
       style="fill:#1e1c1a;fill-opacity:1;fill-rule:nonzero;stroke:none;stroke-width:0.00942897" />
    <path
       id="path293-9"
       d="m 1.4991225,3.0586737 c 0.069019,-0.18361 0.3798926,-0.151269 0.532359,-0.126632 0.2909816,0.04686 0.6073206,0.203647 0.7950532,0.434289 0.014248,0.01772 0.00155,0.04967 -0.024044,0.04128 -0.2283712,-0.07382 -0.424588,-0.217789 -0.6569185,-0.291347 -0.2163011,-0.06855 -0.4093103,-0.0046 -0.6212756,-0.02454 -0.015369,-0.0012 -0.03159,-0.01584 -0.025175,-0.03307"
       style="fill:#1e1c1a;fill-opacity:1;fill-rule:nonzero;stroke:none;stroke-width:0.00942897" />
    <path
       id="path294-3"
       d="m 1.9486015,2.9639777 c -0.099472,0.01145 -0.2022522,0.02913 -0.3002177,0.05016 -0.2615607,0.05613 0.018568,0.08762 0.087503,0.08655 0.2000855,-0.0031 0.3914923,0.02585 0.5838429,0.08195 0.5234983,0.152855 0.8950922,0.571007 1.2781935,0.932807 0.013579,0.01294 -0.0037,0.03112 -0.018867,0.02434 C 3.2221713,3.9787337 2.9767351,3.6207247 2.626731,3.4324367 2.3201018,3.2675057 1.9914063,3.2213977 1.6499819,3.2190397 c -0.073829,-5.41e-4 -0.29041,-0.02708 -0.2232755,-0.156501 0.1041904,-0.20077 0.3417044,-0.128142 0.5218931,-0.130978 0.021492,-2.67e-4 0.020262,0.03007 0,0.03241"
       style="fill:#1e1c1a;fill-opacity:1;fill-rule:nonzero;stroke:none;stroke-width:0.00942897" />
    <path
       id="path295-9"
       d="m 3.2277354,3.3093897 c -0.04686,-0.175209 -0.1159756,-0.383317 -0.015369,-0.550681 0.013101,-0.02185 0.04328,-0.01101 0.045261,0.01227 0.014987,0.177349 0.00596,0.352447 0.02951,0.530379 0.00455,0.03439 -0.050728,0.04007 -0.059402,0.0081"
       style="fill:#1e1c1a;fill-opacity:1;fill-rule:nonzero;stroke:none;stroke-width:0.00942897" />
    <path
       id="path296-1"
       d="m 3.2438603,3.2289427 c -0.029605,-0.104381 -0.052612,-0.21185 -0.056944,-0.320583 -0.00179,-0.0492 -0.011103,-0.102323 0.010262,-0.14814 0.01698,-0.03628 0.078925,-0.03628 0.095894,0 0.020549,0.04396 0.012459,0.09363 0.010502,0.140886 -0.00417,0.103713 -0.00155,0.204712 0.013473,0.307661 0.00679,0.04714 -0.059497,0.06854 -0.073268,0.02019"
       style="fill:#1e1c1a;fill-opacity:1;fill-rule:nonzero;stroke:none;stroke-width:0.00942897" />
    <path
       id="path297-9"
       d="m 3.3143907,3.0774177 c -0.00706,-0.132195 -0.013018,-0.267762 -0.00585,-0.400072 0.00382,-0.06957 0.1071085,-0.07042 0.1086249,0 0.00274,0.132858 -0.020655,0.267511 -0.029127,0.400072 -0.00299,0.04734 -0.071096,0.04763 -0.073639,0"
       style="fill:#1e1c1a;fill-opacity:1;fill-rule:nonzero;stroke:none;stroke-width:0.00942897" />
    <path
       id="path298-1"
       d="m 3.2388628,3.1717087 c -0.00489,-0.08232 -0.1053183,-0.715642 0.1246495,-0.616938 0.02481,0.01045 0.039032,0.03773 0.023496,0.0625 -0.029987,0.04763 -0.049128,0.08196 -0.059031,0.139557 -0.023579,0.136164 -0.0024,0.277788 -0.00585,0.414876 -0.00132,0.05394 -0.080046,0.05326 -0.083255,0"
       style="fill:#1e1c1a;fill-opacity:1;fill-rule:nonzero;stroke:none;stroke-width:0.00942897" />
    <path
       id="path299-4"
       d="m 3.2299991,3.1717087 c -0.0093,-0.18821 -0.0776,-0.471816 0.047994,-0.634947 0.025071,-0.03263 0.081371,-0.02546 0.081657,0.02205 5.323e-4,0.0938 -0.029032,0.187181 -0.037339,0.281068 -0.00967,0.109869 -0.011103,0.221684 -0.014892,0.331815 -0.00179,0.04997 -0.074962,0.04969 -0.077408,0"
       style="fill:#1e1c1a;fill-opacity:1;fill-rule:nonzero;stroke:none;stroke-width:0.00942897" />
    <path
       id="path300-7"
       d="m 3.2138778,3.1450447 c -0.043089,-0.106843 -0.2364796,-0.669091 0.039511,-0.624011 0.033936,0.0055 0.036204,0.04826 0.018388,0.06977 -0.052612,0.06315 -0.040249,0.170455 -0.034976,0.245812 0.00679,0.09645 0.016408,0.197162 0.039605,0.291083 0.010262,0.04166 -0.047243,0.05514 -0.062515,0.01735"
       style="fill:#1e1c1a;fill-opacity:1;fill-rule:nonzero;stroke:none;stroke-width:0.00942897" />
    <path
       id="path301-8"
       d="M 3.5347454,3.9004667 C 3.3643631,3.6588107 3.230943,3.3959397 3.2008638,3.0977867 c -0.017266,-0.171714 -0.067408,-0.424673 0.00179,-0.588096 0.028198,-0.06638 0.1155101,-0.02309 0.1211626,0.03293 0.01698,0.166112 -0.00382,0.346779 -0.00132,0.514803 0.00406,0.286661 0.1043763,0.576676 0.2458122,0.823452 0.012732,0.02214 -0.019426,0.03988 -0.033663,0.01961"
       style="fill:#1e1c1a;fill-opacity:1;fill-rule:nonzero;stroke:none;stroke-width:0.00942897" />
    <path
       id="path302-5"
       d="m 4.1172672,4.2950877 c -0.7321611,-0.04026 -1.0765055,-0.995607 -1.08009,-1.615385 -0.00132,-0.25344 0.2489243,-0.508023 0.3871557,-0.185258 0.078637,0.18375 0.018282,0.399958 -0.018387,0.585889 -0.064116,0.325403 0.045726,0.608571 0.2354436,0.869925 0.012732,0.01753 -0.012636,0.04316 -0.030261,0.03019 -0.1947098,-0.143502 -0.3271872,-0.394219 -0.3336918,-0.639079 -0.00382,-0.146808 0.024605,-0.285998 0.05204,-0.429681 0.027339,-0.143901 0.034044,-0.276203 -0.028854,-0.412442 -0.1156892,0.01709 -0.1659493,0.07722 -0.151051,0.180473 -0.00132,0.03819 -0.00113,0.07639 0.00155,0.114483 0.023389,0.59808 0.3566018,1.294683 0.9734449,1.447422 0.029605,0.0072 0.023759,0.05517 -0.00727,0.05348"
       style="fill:#1e1c1a;fill-opacity:1;fill-rule:nonzero;stroke:none;stroke-width:0.00942897" />
    <path
       id="path303-6"
       d="M 4.1467795,4.3009417 C 3.7629256,4.3811717 3.4135827,4.0508857 3.1673921,3.8028957 3.002573,3.6369347 2.8476559,3.4621317 2.6720887,3.3071007 2.398837,3.0656337 2.0716511,2.9811397 1.7128775,2.9676557 c -0.021968,-8.03e-4 -0.027542,-0.03338 -0.00525,-0.03904 0.4881378,-0.125971 0.9122544,0.181066 1.2374595,0.510672 0.1653837,0.167543 0.3205837,0.344081 0.4966234,0.500763 0.2136601,0.190089 0.4289231,0.268548 0.7050985,0.318232 0.021493,0.0039 0.020858,0.03832 0,0.04266"
       style="fill:#1e1c1a;fill-opacity:1;fill-rule:nonzero;stroke:none;stroke-width:0.00942897" />
    <path
       id="path304-3"
       d="m 4.5356321,4.2770677 c -0.3749913,0.14332 -0.8410663,-0.18839 -1.0212537,-0.496999 -0.2164908,-0.370647 0.031491,-0.897933 0.4615487,-0.955902 0.2286517,-0.03075 0.7293295,0.241353 0.4379757,0.507353 -0.1866003,0.170316 -0.6389073,0.08703 -0.5029431,-0.226184 0.02395,-0.05518 0.1214456,-0.02847 0.114663,0.03101 -0.039319,0.343016 0.6262737,0.01838 0.1376648,-0.163131 -0.2953146,-0.109834 -0.5484845,0.142688 -0.6226903,0.409906 -0.074306,0.267585 0.1579338,0.531672 0.3550003,0.672843 0.1956501,0.140117 0.4044082,0.156907 0.6341923,0.178378 0.024879,0.0023 0.029127,0.03377 0.00585,0.04273"
       style="fill:#1e1c1a;fill-opacity:1;fill-rule:nonzero;stroke:none;stroke-width:0.00942897" />
    <path
       id="path305-4"
       d="m 7.6406873,3.7930597 c -0.2897514,0.387359 -0.672097,0.77064 -1.1356256,0.937268 -0.2888086,0.103798 -0.6747376,0.127837 -0.7992,-0.210644 -0.069593,-0.189058 0.04328,-0.399032 0.1769801,-0.525372 0.078172,-0.07403 0.2592975,-0.127774 0.3269055,-0.01227 0.1877312,0.320409 -0.3972452,0.469095 -0.580355,0.491637 -0.2373267,0.02901 -0.8569071,0.04193 -0.8872669,-0.316717 -0.0093,-0.110341 0.077981,-0.322094 0.2291243,-0.280512 0.1567106,0.04306 0.057706,0.226181 -0.013018,0.298416 -0.2799462,0.286255 -0.8457811,0.171779 -1.1904081,0.121805 -0.310591,-0.04505 -0.6148659,-0.109173 -0.9195155,-0.184715 -0.3552842,-0.08827 -0.7005725,-0.216384 -1.055951,-0.299556 -0.2392139,-0.05598 -0.80563218,0.0597 -0.6272157,0.430347 0.063362,0.131712 0.2107373,0.152297 0.3355784,0.133512 0.086181,-0.01279 0.3263357,-0.165853 0.083727,-0.215724 -0.1061679,-0.02181 -0.061478,-0.186335 0.044796,-0.162576 0.295317,0.06594 0.2438351,0.373776 0.018389,0.483046 -0.2419447,0.117397 -0.6429877,0.0057 -0.65761308,-0.309456 -0.018224,-0.392407 0.42094728,-0.536312 0.74105968,-0.504528 0.2471343,0.02448 0.4808788,0.141803 0.7181127,0.208287 0.3158698,0.08843 0.6322125,0.175653 0.9533616,0.243165 0.4110096,0.08647 0.9247027,0.198969 1.3349558,0.06865 0.054593,-0.01927 0.1032434,-0.04809 0.146057,-0.08696 -0.1035299,0.08684 0.1383221,0.207436 0.1923493,0.228389 0.06309,0.02442 0.1395489,0.02666 0.2057393,0.03254 0.1929198,0.01699 0.3912105,0.0035 0.5777152,-0.04901 0.092874,-0.02622 0.1802805,-0.07374 0.2339319,-0.155987 -0.027911,-0.146581 -0.088912,-0.160353 -0.1832028,-0.04116 -0.099854,0.09297 -0.134647,0.248549 -0.105224,0.377424 0.058077,0.254139 0.3974322,0.204156 0.5779003,0.15786 0.5083173,-0.130423 0.8234332,-0.573104 1.1948399,-0.90574 0.032256,-0.02876 0.09174,0.01035 0.06309,0.04862"
       style="fill:#1e1c1a;fill-opacity:1;fill-rule:nonzero;stroke:none;stroke-width:0.00942897" />
    <path
       id="path306-1"
       d="m 1.6893054,3.7153837 c 2.7980477,-0.05648 5.5997741,-0.01809 8.3982956,-0.01809 2.826525,0 5.653238,-0.01158 8.479669,0.02545 0.03414,5.4e-4 0.03414,0.05252 0,0.05298 -2.795314,0.03658 -5.59082,0.02551 -8.386228,0.02551 -2.8296348,0 -5.6625716,0.03899 -8.4917366,-0.01813 -0.043661,-8.02e-4 -0.043661,-0.06686 0,-0.0677"
       style="fill:#1e1c1a;fill-opacity:1;fill-rule:nonzero;stroke:none;stroke-width:0.00942897" />
    <path
       id="path307-5"
       d="m 23.223699,3.6008407 c 0.02895,-0.02539 0.05693,-0.05498 0.07967,-0.08619 0.02234,-0.03075 0.02687,-0.06872 0.05073,-0.09844 0.01585,-0.01977 0.05451,-0.01447 0.06497,0.0084 0.05131,0.111274 -0.08459,0.179046 -0.163218,0.217901 -0.02565,0.01264 -0.05602,-0.02084 -0.03216,-0.04166"
       style="fill:#1e1c1a;fill-opacity:1;fill-rule:nonzero;stroke:none;stroke-width:0.00942897" />
    <path
       id="path308-8"
       d="m 23.239824,3.6537297 c 0.04781,-0.02585 0.07749,-0.06395 0.108154,-0.10769 0.033,-0.04702 0.04318,-0.100502 0.06723,-0.151232 0.02592,-0.05495 0.102876,-0.02302 0.105996,0.02867 0.0084,0.139558 -0.135873,0.255912 -0.259296,0.282795 -0.03084,0.0066 -0.05196,-0.03648 -0.02205,-0.05252"
       style="fill:#1e1c1a;fill-opacity:1;fill-rule:nonzero;stroke:none;stroke-width:0.00942897" />
    <path
       id="path309-1"
       d="m 23.096786,3.6868067 c 0.05545,-0.01101 0.470788,-0.176214 0.361789,-0.260148 -0.02931,-0.02243 -0.149639,0.155872 -0.165667,0.176718 -0.03933,0.05091 -0.09957,0.137276 -0.17274,0.126515 l -0.01158,-0.02043 c 0.01963,-0.04646 0.05592,-0.08328 0.08195,-0.126812 0.0364,-0.06093 0.08136,-0.119485 0.126818,-0.173992 0.06968,-0.08372 0.191691,-0.133033 0.250242,-0.0076 0.05479,0.117311 -0.06534,0.215726 -0.154257,0.267699 -0.08524,0.04957 -0.234121,0.115507 -0.323507,0.0446 -0.0092,-0.0073 -0.0041,-0.02434 0.007,-0.02652"
       style="fill:#1e1c1a;fill-opacity:1;fill-rule:nonzero;stroke:none;stroke-width:0.00942897" />
    <path
       id="path310-9"
       d="m 23.572478,4.0833027 c -0.132006,-0.01716 -0.277682,-0.03819 -0.377348,-0.133515 -0.0129,-0.01227 5.41e-4,-0.03179 0.0165,-0.0283 0.124556,0.02695 0.245059,0.07301 0.368198,0.10759 0.02905,0.0082 0.02432,0.05837 -0.0073,0.05421"
       style="fill:#1e1c1a;fill-opacity:1;fill-rule:nonzero;stroke:none;stroke-width:0.00942897" />
    <path
       id="path311-1"
       d="m 23.522125,4.0276827 c -0.05451,0.01566 -0.109846,-10e-4 -0.163118,-0.01518 -0.05638,-0.01509 -0.118805,-0.03482 -0.156238,-0.08213 -0.0095,-0.01208 -0.0088,-0.03463 0.01,-0.0381 0.05308,-0.01 0.101552,0.0068 0.15181,0.02358 0.05439,0.01802 0.115319,0.02395 0.165098,0.05326 0.02406,0.01413 0.01887,0.05084 -0.0075,0.05858"
       style="fill:#1e1c1a;fill-opacity:1;fill-rule:nonzero;stroke:none;stroke-width:0.00942897" />
    <path
       id="path312-2"
       d="m 23.065669,3.8406117 c 0.116632,-0.0031 0.588368,-0.01623 0.547451,0.196204 -0.0072,0.03699 -0.05346,0.05054 -0.08343,0.03386 -0.0278,-0.01537 -0.04856,-0.03913 -0.0774,-0.05452 -0.04366,-0.02309 -0.09476,-0.0343 -0.141627,-0.04893 -0.08288,-0.02585 -0.168024,-0.05319 -0.252033,-0.07458 -0.02962,-0.0074 -0.02247,-0.05131 0.007,-0.05204"
       style="fill:#1e1c1a;fill-opacity:1;fill-rule:nonzero;stroke:none;stroke-width:0.00942897" />
    <path
       id="path313-0"
       d="m 23.010511,3.8143887 c 0.151619,-0.03525 0.722826,-0.03093 0.701047,0.219224 -0.01537,0.17584 -0.219886,0.137567 -0.329262,0.09241 -0.09588,-0.0396 -0.186599,-0.09101 -0.277213,-0.14118 -0.04734,-0.02611 -0.149353,-0.0677 -0.172171,-0.120766 -0.0041,-0.0092 -0.0023,-0.0179 0.006,-0.02367 0.06704,-0.04556 0.211868,0.0561 0.268065,0.08637 0.06382,0.03439 0.327185,0.202061 0.384515,0.107286 0.04958,-0.08184 -0.519257,-0.146339 -0.581108,-0.161431 -0.02875,-0.007 -0.02913,-0.0515 0,-0.05827"
       style="fill:#1e1c1a;fill-opacity:1;fill-rule:nonzero;stroke:none;stroke-width:0.00942897" />
    <path
       id="path314-7"
       d="m 22.961764,3.9356427 c 0.08817,0.09912 0.153975,0.20744 0.20866,0.328243 0.04281,0.09429 0.106451,0.215435 0.06649,0.318594 -0.0089,0.02309 -0.03252,0.02885 -0.05166,0.01367 -0.07327,-0.05808 -0.08818,-0.159558 -0.118898,-0.243824 -0.0464,-0.12711 -0.108532,-0.248283 -0.161803,-0.372555 -0.015,-0.03507 0.02734,-0.07779 0.05724,-0.04411"
       style="fill:#1e1c1a;fill-opacity:1;fill-rule:nonzero;stroke:none;stroke-width:0.00942897" />
    <path
       id="path315-1"
       d="m 22.91273,3.8935817 c 0.163311,0.09553 0.330298,0.223936 0.381591,0.415648 0.0198,0.07403 0.01339,0.319181 -0.116727,0.298815 -0.08597,-0.01329 -0.128421,-0.16681 -0.154727,-0.232926 -0.05725,-0.143868 -0.117573,-0.303426 -0.13889,-0.456238 -0.0021,-0.01559 0.01585,-0.03094 0.02895,-0.01693 0.132855,0.142946 0.156991,0.37783 0.241383,0.550571 0.0084,0.01716 0.01829,0.03311 0.02905,0.04877 0.01953,0.0283 -0.0166,0.02884 -0.01145,0.01113 0.01819,-0.06449 0.02217,-0.134175 0.0052,-0.198961 -0.03997,-0.1516 -0.186787,-0.275024 -0.293334,-0.382241 -0.01914,-0.01934 0.0055,-0.0515 0.02905,-0.03765"
       style="fill:#1e1c1a;fill-opacity:1;fill-rule:nonzero;stroke:none;stroke-width:0.00942897" />
    <path
       id="path316-9"
       d="m 16.503574,4.0235227 c 0.08383,0.133147 0.194143,0.238005 0.333974,0.310789 0.110881,0.0578 0.287487,0.06866 0.357263,-0.05651 0.04423,-0.0792 -0.0054,-0.183866 -0.06204,-0.241072 -0.03084,-0.03112 -0.06902,-0.04877 -0.112765,-0.04791 -0.0877,0.0015 -0.113707,0.143677 -0.01451,0.09363 0.05252,-0.02648 0.09948,0.0359 0.06156,0.07986 -0.05987,0.0696 -0.170571,0.04603 -0.221016,-0.02399 -0.06881,-0.09573 -0.01479,-0.197159 0.07978,-0.248102 0.168964,-0.09089 0.326051,0.07452 0.372818,0.222909 0.06412,0.203495 -0.09202,0.337265 -0.27919,0.358414 -0.22375,0.02524 -0.520103,-0.22177 -0.547445,-0.439408 -0.0019,-0.01782 0.02338,-0.02158 0.03158,-0.0086"
       style="fill:#1e1c1a;fill-opacity:1;fill-rule:nonzero;stroke:none;stroke-width:0.00942897" />
    <path
       id="path317-6"
       d="m 20.272899,3.8854727 c -0.02072,0.07404 -0.061,0.139001 -0.112586,0.195395 -0.0475,0.05204 -0.137943,0.119628 -0.212714,0.09286 -0.01858,-0.0064 -0.02302,-0.0263 -0.01101,-0.04128 0.03922,-0.04818 0.109092,-0.07688 0.155951,-0.11938 0.05064,-0.04611 0.09166,-0.102134 0.13842,-0.151893 0.01733,-0.0185 0.04846,5.4e-4 0.04185,0.02432"
       style="fill:#1e1c1a;fill-opacity:1;fill-rule:nonzero;stroke:none;stroke-width:0.00942897" />
    <path
       id="path318-0"
       d="m 19.81022,2.8694227 c -0.187637,0.09975 -0.515294,0.15492 -0.546503,-0.133803 -0.01567,-0.145189 0.113433,-0.266002 0.257976,-0.244014 0.102677,0.01574 0.255244,0.130978 0.118899,0.22195 -0.0544,0.03622 -0.133418,-0.03782 -0.09258,-0.09267 0.01772,0.03043 0.01699,0.03693 -0.0019,0.01951 -0.01247,-0.007 -0.02575,-0.0122 -0.03969,-0.01535 -0.04338,-0.01301 -0.09486,0.0086 -0.121634,0.04374 -0.04686,0.06186 0.001,0.154437 0.06402,0.177275 0.104475,0.03779 0.244588,7.4e-5 0.352268,-0.01101 0.01848,-0.0017 0.02481,0.02599 0.0093,0.03432"
       style="fill:#1e1c1a;fill-opacity:1;fill-rule:nonzero;stroke:none;stroke-width:0.00942897" />
    <path
       id="path319-3"
       d="m 22.323137,3.7035957 c 0.193577,0.02113 0.500493,0.0876 0.618448,-0.117932 0.03809,-0.0664 0.0297,-0.163236 -0.02358,-0.217931 -0.03601,-0.03694 -0.09703,-0.0088 -0.132666,0.01024 -0.06506,0.03449 -0.02687,0.05651 -0.0077,0.09919 0.01045,0.02302 0.0081,0.05348 -0.01734,0.0665 l -0.017,0.0088 c -0.0213,0.01101 -0.04959,0.01443 -0.07062,0 -0.143321,-0.09884 -0.05101,-0.27211 0.08306,-0.326705 0.150957,-0.06157 0.287678,0.0098 0.334539,0.163396 0.04668,0.152589 -0.04243,0.301651 -0.168779,0.379808 -0.179904,0.111452 -0.419586,0.02545 -0.604301,-0.02194 -0.02358,-0.0059 -0.01932,-0.04624 0.0059,-0.04339"
       style="fill:#1e1c1a;fill-opacity:1;fill-rule:nonzero;stroke:none;stroke-width:0.00942897" />
    <path
       id="path320-0"
       d="m 22.25242,3.1146527 c -0.293524,0.02096 -0.579879,0.06423 -0.87218,0.09242 -0.02339,0.0019 -0.03216,-0.03355 -0.01193,-0.04395 0.269669,-0.137276 0.598553,-0.199149 0.890759,-0.09845 0.02763,0.0095 0.02217,0.0479 -0.0066,0.04998"
       style="fill:#1e1c1a;fill-opacity:1;fill-rule:nonzero;stroke:none;stroke-width:0.00942897" />
    <path
       id="path321-5"
       d="m 22.299567,3.0917517 c -0.194519,0.01831 -0.373011,-0.03148 -0.573756,0.01215 -0.257503,0.05603 -0.459565,0.224599 -0.704436,0.303718 -0.02555,0.0084 -0.03829,-0.02357 -0.02394,-0.04129 0.187732,-0.230643 0.503978,-0.387436 0.794959,-0.43429 0.152467,-0.02464 0.463338,-0.05698 0.532452,0.126633 0.0064,0.01723 -0.0097,0.03167 -0.02525,0.03307"
       style="fill:#1e1c1a;fill-opacity:1;fill-rule:nonzero;stroke:none;stroke-width:0.00942897" />
    <path
       id="path322-9"
       d="m 21.875264,2.9315617 c 0.180186,0.0029 0.417796,-0.0698 0.521889,0.130979 0.06818,0.131344 -0.150577,0.152994 -0.223278,0.156502 -0.349905,0.01708 -0.654368,0.05535 -0.976652,0.213397 -0.360658,0.176868 -0.592422,0.54489 -0.95242,0.707363 -0.01507,0.0068 -0.03242,-0.01145 -0.01876,-0.02434 0.394508,-0.372633 0.75281,-0.753178 1.278097,-0.932809 0.186129,-0.06376 0.388099,-0.08644 0.583938,-0.08195 0.02358,5.41e-4 0.222899,0.0096 0.187448,-0.03457 -0.06674,-0.08328 -0.302294,-0.0909 -0.40026,-0.102134 -0.02018,-0.0023 -0.02141,-0.03279 0,-0.03241"
       style="fill:#1e1c1a;fill-opacity:1;fill-rule:nonzero;stroke:none;stroke-width:0.00942897" />
    <path
       id="path323-1"
       d="m 20.53682,3.3013567 c 0.02357,-0.177934 0.01444,-0.353033 0.02942,-0.530379 0.0017,-0.02329 0.03216,-0.03415 0.04535,-0.01226 0.100503,0.167365 0.03149,0.375472 -0.01548,0.550682 -0.0086,0.03205 -0.06394,0.02636 -0.05932,-0.0081"
       style="fill:#1e1c1a;fill-opacity:1;fill-rule:nonzero;stroke:none;stroke-width:0.00942897" />
    <path
       id="path324-6"
       d="m 20.506832,3.2087667 c 0.015,-0.102948 0.01765,-0.203942 0.01349,-0.307661 -0.0017,-0.04726 -0.01,-0.09695 0.01045,-0.140886 0.01699,-0.03628 0.07883,-0.03628 0.0958,0 0.0214,0.04584 0.01236,0.09893 0.01024,0.14814 -0.0043,0.108733 -0.02735,0.216204 -0.05694,0.320583 -0.01375,0.04837 -0.08006,0.02696 -0.07318,-0.02019"
       style="fill:#1e1c1a;fill-opacity:1;fill-rule:nonzero;stroke:none;stroke-width:0.00942897" />
    <path
       id="path325-6"
       d="m 20.435834,3.0774177 c -0.0084,-0.132561 -0.03186,-0.267214 -0.02905,-0.400072 0.0012,-0.07042 0.104755,-0.06957 0.108532,0 0.0072,0.13231 0.0012,0.267877 -0.0057,0.400072 -0.0027,0.04763 -0.07063,0.04734 -0.07373,0"
       style="fill:#1e1c1a;fill-opacity:1;fill-rule:nonzero;stroke:none;stroke-width:0.00942897" />
    <path
       id="path326-8"
       d="m 20.501838,3.1717087 c -0.0035,-0.129168 0.0075,-0.257598 -0.0028,-0.38688 -0.0048,-0.06148 -0.02026,-0.111062 -0.05715,-0.159634 -0.01988,-0.02611 -0.01181,-0.05748 0.01838,-0.07042 0.230068,-0.09871 0.129649,0.534622 0.124654,0.616941 -0.0033,0.05326 -0.08184,0.05394 -0.08317,0"
       style="fill:#1e1c1a;fill-opacity:1;fill-rule:nonzero;stroke:none;stroke-width:0.00942897" />
    <path
       id="path327-0"
       d="m 20.516545,3.1717087 c -0.0035,-0.09654 -0.0082,-0.193295 -0.01227,-0.289941 -0.0046,-0.108802 -0.04073,-0.215171 -0.04007,-0.322942 2.67e-4,-0.0475 0.05667,-0.0547 0.08166,-0.02205 0.125594,0.163131 0.05733,0.446736 0.048,0.63495 -0.0023,0.04969 -0.07562,0.04997 -0.07733,0"
       style="fill:#1e1c1a;fill-opacity:1;fill-rule:nonzero;stroke:none;stroke-width:0.00942897" />
    <path
       id="path328-5"
       d="m 20.547565,3.1276957 c 0.02142,-0.08684 0.02763,-0.177757 0.03724,-0.266482 0.0088,-0.08044 0.02376,-0.202611 -0.03273,-0.270415 -0.01782,-0.02152 -0.01549,-0.06431 0.01847,-0.06977 0.275986,-0.04508 0.0825,0.517159 0.03941,0.624011 -0.01518,0.03779 -0.0727,0.0243 -0.06243,-0.01735"
       style="fill:#1e1c1a;fill-opacity:1;fill-rule:nonzero;stroke:none;stroke-width:0.00942897" />
    <path
       id="path329-3"
       d="m 20.255458,3.8808717 c 0.142189,-0.24799 0.239873,-0.535943 0.245907,-0.823454 0.0036,-0.168389 -0.01848,-0.348287 -0.0015,-0.514801 0.0057,-0.05603 0.09297,-0.09929 0.121163,-0.03293 0.06978,0.164271 0.01801,0.415354 0.0019,0.588095 -0.02754,0.297378 -0.164345,0.562352 -0.33388,0.802679 -0.01433,0.02028 -0.0464,0.0027 -0.03375,-0.01961"
       style="fill:#1e1c1a;fill-opacity:1;fill-rule:nonzero;stroke:none;stroke-width:0.00942897" />
    <path
       id="path330-4"
       d="m 19.699336,4.2416047 c 0.631838,-0.156501 0.929885,-0.84692 0.973448,-1.447422 0.0053,-0.07233 0.0014,-0.143058 -0.01035,-0.214879 -0.105508,-0.121651 -0.164914,-0.114114 -0.178116,0.02272 -0.01247,0.06153 -0.01518,0.123314 -0.0083,0.185372 0.0091,0.163389 0.06174,0.322359 0.07223,0.486518 0.01668,0.264595 -0.125879,0.551886 -0.335579,0.706513 -0.01755,0.013 -0.04301,-0.01264 -0.03017,-0.03017 0.160294,-0.220911 0.274289,-0.466065 0.255151,-0.744887 -0.01667,-0.242128 -0.114091,-0.453987 -0.04394,-0.69719 0.08986,-0.311524 0.375084,-0.1333 0.389511,0.112706 0.03705,0.631994 -0.336616,1.633567 -1.076695,1.674199 -0.03092,0.0015 -0.03686,-0.04619 -0.0072,-0.05348"
       style="fill:#1e1c1a;fill-opacity:1;fill-rule:nonzero;stroke:none;stroke-width:0.00942897" />
    <path
       id="path331-5"
       d="m 19.677085,4.2582867 c 0.257503,-0.04626 0.455324,-0.1152 0.661723,-0.281542 0.197635,-0.158962 0.364055,-0.355727 0.539998,-0.537452 0.321341,-0.331965 0.752622,-0.635796 1.237463,-0.510673 0.02234,0.0057 0.01668,0.03819 -0.0053,0.03902 -0.341612,0.01294 -0.646164,0.08911 -0.91678,0.303716 -0.181602,0.144094 -0.336049,0.32265 -0.49634,0.489165 -0.251755,0.261656 -0.619015,0.624416 -1.020782,0.540405 -0.02072,-0.0043 -0.0214,-0.0388 0,-0.04267"
       style="fill:#1e1c1a;fill-opacity:1;fill-rule:nonzero;stroke:none;stroke-width:0.00942897" />
    <path
       id="path332-1"
       d="m 19.29408,4.2343447 c 0.442501,-0.04141 0.951383,-0.224853 0.997775,-0.746575 0.02716,-0.305491 -0.290793,-0.586482 -0.582901,-0.528506 -0.135492,0.02702 -0.367541,0.229057 -0.136437,0.321907 0.114091,0.04592 0.241381,-0.0088 0.225822,-0.144822 -0.0069,-0.05948 0.09072,-0.0862 0.114569,-0.03101 0.121539,0.279744 -0.287397,0.422798 -0.475128,0.251567 -0.301442,-0.27525 0.131817,-0.570084 0.410161,-0.532736 0.403843,0.05451 0.663988,0.539694 0.486252,0.905182 -0.163309,0.335944 -0.653992,0.697555 -1.045958,0.54772 -0.02319,-0.009 -0.01907,-0.04045 0.0058,-0.04272"
       style="fill:#1e1c1a;fill-opacity:1;fill-rule:nonzero;stroke:none;stroke-width:0.00942897" />
    <path
       id="path333-5"
       d="m 16.246257,3.7444447 c 0.366124,0.327844 0.663892,0.731375 1.14826,0.891963 0.167553,0.05554 0.367634,0.08693 0.527078,-0.0054 0.191032,-0.110622 0.09644,-0.386408 -0.008,-0.516131 -0.130496,-0.162464 -0.229406,-0.0057 -0.146904,0.08941 0.0379,0.04372 0.101644,0.07163 0.153409,0.09278 0.164066,0.06667 0.353306,0.07175 0.527836,0.06891 0.08014,-0.0012 0.160197,-0.0095 0.238929,-0.02319 0.0577,-0.01009 0.09817,-0.02799 0.152939,-0.05761 0.0364,-0.03536 0.07298,-0.07061 0.109477,-0.1059 -0.03046,-0.09628 -0.01133,-0.106071 0.05781,-0.02931 0.173678,0.115986 0.439388,0.09291 0.637301,0.08051 0.230634,-0.01433 0.46287,-0.05458 0.690297,-0.09502 0.293242,-0.05234 0.581014,-0.133804 0.867842,-0.212999 0.290697,-0.08026 0.575168,-0.201025 0.872275,-0.253075 0.268538,-0.04706 0.778177,0.08855 0.761389,0.449095 -0.01584,0.341251 -0.350663,0.475022 -0.642769,0.369795 -0.250531,-0.09013 -0.293056,-0.424675 0.001,-0.49031 0.106155,-0.02376 0.150958,0.140777 0.04471,0.162575 -0.285602,0.05864 0.07524,0.218566 0.162836,0.22309 0.264297,0.01337 0.352079,-0.276827 0.188206,-0.45296 -0.283624,-0.304742 -0.78515,-0.04858 -1.103849,0.04893 -0.576771,0.176604 -1.181077,0.303046 -1.781891,0.360762 -0.218093,0.02094 -0.436657,0.01685 -0.645978,-0.05282 -0.104945,-0.035 -0.336993,-0.171966 -0.289658,-0.31606 0.08296,-0.25252 0.513879,0.143789 0.181789,0.380072 -0.282491,0.201025 -0.748944,0.163679 -1.061229,0.05638 -0.111264,-0.03818 -0.244493,-0.120218 -0.278439,-0.241654 -0.03716,-0.133213 -5.4e-4,-0.254103 0.152654,-0.249794 0.371314,0.01074 0.476163,0.591299 0.222995,0.79903 -0.244962,0.201036 -0.681524,0.03415 -0.918854,-0.09675 -0.346985,-0.19138 -0.649937,-0.511598 -0.88472,-0.825705 -0.02866,-0.03827 0.03084,-0.07738 0.063,-0.04861"
       style="fill:#1e1c1a;fill-opacity:1;fill-rule:nonzero;stroke:none;stroke-width:0.00942897" />
    <path
       id="path334-2"
       d="m 22.383839,3.7830847 c -1.7006,0.05651 -3.403437,0.01812 -5.10427,0.01812 -1.717963,0 -3.435986,0.01157 -5.15378,-0.0255 -0.0208,-5.41e-4 -0.0208,-0.05249 0,-0.05297 1.698883,-0.03659 3.397994,-0.02546 5.096933,-0.02546 1.719855,0 3.44166,-0.03902 5.161117,0.01809 0.02659,8.01e-4 0.02659,0.06685 0,0.06769"
       style="fill:#1e1c1a;fill-opacity:1;fill-rule:nonzero;stroke:none;stroke-width:0.00735086" />
  </g>
</svg>
