<?xml version="1.0" encoding="UTF-8" standalone="no"?>
<!-- Created with Inkscape (http://www.inkscape.org/) -->

<svg
   width="34.811115mm"
   height="11.213322mm"
   viewBox="0 0 34.811115 11.213322"
   version="1.1"
   id="svg1"
   xml:space="preserve"
   xmlns:inkscape="http://www.inkscape.org/namespaces/inkscape"
   xmlns:sodipodi="http://sodipodi.sourceforge.net/DTD/sodipodi-0.dtd"
   xmlns="http://www.w3.org/2000/svg"
   xmlns:svg="http://www.w3.org/2000/svg"><sodipodi:namedview
     id="namedview1"
     pagecolor="#505050"
     bordercolor="#eeeeee"
     borderopacity="1"
     inkscape:showpageshadow="0"
     inkscape:pageopacity="0"
     inkscape:pagecheckerboard="0"
     inkscape:deskcolor="#d1d1d1"
     inkscape:document-units="mm"><inkscape:page
       x="6.3707785e-06"
       y="-4.3366771e-07"
       width="34.811115"
       height="11.213322"
       id="page3"
       margin="0"
       bleed="0" /></sodipodi:namedview><defs
     id="defs1" /><g
     id="g1"
     inkscape:groupmode="layer"
     inkscape:label="1"
     transform="matrix(0.26458333,0,0,0.26458334,99.787789,-44.610419)"><g
       id="group-R5"><path
         id="path3"
         d="m 4427.54,1493.98 c -11.38,31.39 -7.77,57.58 4.9,82.67 12.34,24.46 31.82,39.38 59.84,38.99 29.5,-0.41 54.4,-11.31 69.22,-38.55 10.28,-18.88 8.52,-37.81 -4.72,-54.49 -13.44,-16.92 -31.75,-23.83 -53.34,-20.54 -5.74,0.88 -11.23,3.24 -15.36,7.68 -3.64,3.91 -6.61,8.46 -4.23,13.93 2.83,6.51 8.46,4.5 13.4,3.15 3.72,-1.01 7.15,-3.21 10.89,-3.91 16.14,-3 29.75,1.53 38.55,15.75 8.8,14.2 4.39,27.4 -5.67,39.1 -27.38,31.8 -75.35,24.48 -92.02,-13.93 -15.83,-36.47 -6.83,-64.95 27.82,-85.97 41.65,-25.28 88.53,-31.29 135.7,-34.9 82.1,-6.25 160.74,9.03 236.52,40.36 3.57,1.48 7.04,3.21 10.41,5.09 0.85,0.48 1.12,2 2.23,4.17 -20.72,1.95 -40.93,4.38 -60.45,10.9 -66.17,22.14 -89.25,104.69 -43.67,157.68 18.99,22.08 43.82,30.01 71.66,24.07 26.56,-5.67 40.64,-25.43 48.74,-50.32 13.01,-39.99 -32,-69.55 -60.92,-64.23 -16.46,3.02 -32.86,28.15 -29.91,44.78 1.09,6.17 3.63,11.8 10.42,12.16 8.45,0.44 7.69,-6.33 8.17,-12.29 1.75,-21.63 10.07,-30.96 25.21,-28.94 21.7,2.89 40.26,24.4 35.88,42.71 -4.79,19.95 -15.61,36.38 -36.3,41.71 -23.64,6.09 -45.05,-0.08 -61.19,-19.31 -36.35,-43.32 -19.65,-110.89 32.29,-132.49 33.08,-13.75 66.79,-12.3 100.93,-5.56 51.28,10.13 101.85,24.05 154.31,27.73 51.99,3.64 100.07,-7.32 142.92,-37.82 4.66,-3.32 7.15,-5.35 12.95,-1.05 54.05,40 115.15,45.8 179.03,34.73 48.33,-8.36 96.3,-18.8 144.63,-27.11 32.97,-5.67 64.6,0.48 92.99,18.42 43.04,27.21 45.37,102.23 4.64,132.81 -30.95,23.24 -70.75,12.29 -84.67,-23.3 -9.53,-24.32 11.48,-53.75 37.64,-51.61 16.14,1.32 20.32,13.82 21.19,27.69 0.36,5.61 -1.94,13.07 6.44,13.58 9.23,0.58 11.51,-7.2 12.18,-14.52 2.29,-25.11 -23.62,-47.42 -48.17,-41.79 -26.21,6.01 -46.88,29.01 -45.66,50.78 1.73,30.8 27.3,60.41 55.43,64.19 39.7,5.33 74.03,-18.31 86.04,-59.21 17.31,-58.95 -9.41,-108 -68.09,-125.44 -17.87,-5.32 -36.26,-7.36 -54.91,-8.84 1.11,-5.84 5.56,-6.24 8.84,-7.63 102.31,-43.4 207.79,-55.17 316.68,-31.08 22.18,4.91 43.29,13.17 62.42,25.64 36.53,23.82 43.35,64.03 16.97,98.92 -11.6,15.36 -27.06,21.13 -46.07,18.04 -20.22,-3.3 -37.3,-11.35 -45.54,-31.45 -9.21,-22.45 10.51,-45.71 36.16,-43.08 3.16,0.33 6.29,1.38 9.37,2.31 6.9,2.09 15.76,9.01 19.36,-1.99 3.07,-9.4 -5.1,-15.34 -13.51,-18.31 -20.42,-7.2 -38.51,-1.3 -53.75,12.46 -15.73,14.22 -21.25,32.61 -13.69,52.85 10.94,29.28 34.54,42.39 64.11,45.89 27.77,3.28 49.15,-7.96 64.1,-31.24 16.62,-25.88 19.64,-51.21 10.47,-87.11 11.92,-0.87 20.67,6.37 29.99,10.61 49.25,22.41 99.93,38.67 154.7,39.1 14.93,0.11 29.62,-1.69 44.34,-3.97 96.61,-14.9 120.65,-119.52 84.98,-184.52 -30.88,-56.26 -128.24,-64.13 -170.08,-15.83 -37.32,43.06 4.96,111.29 42.61,118.65 24.02,4.71 49.39,-11.92 54.26,-35.78 1.93,-9.42 -0.1,-18.02 -6.01,-25.54 -3.38,-4.28 -7.79,-7.3 -13.43,-4.51 -5.92,2.93 -6.25,8.24 -3.14,13.14 8.36,13.17 4.63,23.49 -7.31,31.42 -12.9,8.58 -24.96,4.75 -35.11,-5.15 -16.88,-16.46 -29.92,-36.55 -22.97,-60.27 7.27,-24.8 27.81,-38.04 53.68,-41.26 50.35,-6.28 90.81,19.38 100.65,63.5 12.26,54.88 -13.66,107.13 -61.42,123.11 -45.23,15.15 -90.8,11.6 -135.63,-0.72 -51.81,-14.23 -101.19,-35.24 -147.94,-61.68 -45.23,-25.58 -94.54,-33.69 -145.08,-37.21 -86.02,-5.98 -168.25,9.36 -247.49,43.57 -47.36,20.44 -95.09,40.61 -146.23,50.24 -49,9.23 -97.88,3.31 -146.59,-3 -16.92,-2.18 -28.12,-14.91 -39.93,-25.97 -16.23,-15.23 -18.99,-15.5 -34.93,0.11 -15.63,15.31 -32.69,24.24 -55.28,28.36 -97.01,17.69 -185.71,-8.26 -272.3,-47.3 -98.93,-44.62 -201.73,-57.16 -308.56,-39.49 -34.82,5.76 -66.12,19.78 -97.66,35.49 -62.9,31.31 -126.51,62.2 -198.7,66.73 -20.82,1.31 -41.15,-0.9 -61.58,-4.84 -79.93,-15.4 -94.24,-104.37 -66.05,-154.54 24,-42.73 101.66,-50.11 133.95,-13.39 22.04,25.06 4.99,79.09 -27.58,87.32 -10.47,2.65 -19.16,-0.84 -26.15,-8.56 -6.18,-6.81 -8.26,-14.37 -3.23,-23.02 3.35,-5.76 6.64,-12.73 -1.7,-16.44 -8.48,-3.78 -13.04,3.14 -16.42,9.53 -6.97,13.13 -2.28,31.15 10.96,43.95 14.65,14.16 35.16,16.93 53.7,7.24 27.17,-14.2 48.78,-54.8 44.04,-82.78 -5,-29.55 -36.09,-57.43 -69.31,-62.15 -62.88,-8.95 -115.11,24.61 -127.65,81.99 -14.22,65.06 19.4,127.43 79.01,144.97 55.54,16.34 109.93,7.92 163.83,-9.14 27.69,-8.77 53.34,-22.55 84.95,-34.9"
         style="fill:#231f20;fill-opacity:1;fill-rule:nonzero;stroke:none"
         transform="matrix(0.13333333,0,0,-0.13333333,0,666.66667)" /><path
         id="path4"
         d="m 1538.55,3533.05 c -9.67,7.51 -18.92,7.37 -27.3,9.65 -26.15,7.14 -53.03,12.13 -78.51,21.14 -55.6,19.65 -106.51,5.89 -156.74,-17.9 -9.34,-4.42 -14.89,-10.44 -17.31,-21.27 -4.41,-19.75 -16.51,-26.43 -33.84,-21.08 -18.43,5.69 -26.7,20.3 -21.05,37.18 5.88,17.53 24.76,29.68 39.3,21.22 13.8,-8.03 22.96,-2.57 33.68,2.8 20.65,10.35 42.78,16.43 65.27,22.05 -85.47,37.32 -171.37,63.23 -263.19,24.38 -6.86,-2.9 -11.62,-6.33 -15.63,-12.99 -8.17,-13.58 -22.38,-15.58 -34.7,-6.42 -12.82,9.53 -15.44,23.49 -6.67,35.46 9.44,12.89 20.59,14.31 34.75,3.6 4.26,-3.22 7.58,-6.9 13.54,-4.67 37.42,13.97 75.96,22.65 116.33,23.53 -67.45,38.98 -135.38,74.01 -216.89,57.54 -9.555,-1.92 -18.024,-4.02 -25.469,-11.85 -10.406,-10.94 -25.316,-10.47 -34.508,-0.73 -8.644,9.14 -9.925,19.49 -2.015,29.74 8.222,10.66 23.437,12.89 34.433,3.21 7.367,-6.49 13.793,-7.41 22.598,-5.67 28.437,5.63 57.211,5.09 91.101,1.62 -21.35,19.88 -39.11,36.41 -56.851,52.97 -3.664,3.41 -8.195,3.32 -12.727,3.42 -8.004,0.18 -15.156,2.89 -21.648,7.45 -14.16,9.94 -17.121,24.98 -7.223,36.56 9.211,10.79 27.508,11.94 38.285,1.72 4.098,-3.89 8.744,-9.04 9.594,-14.2 6.35,-38.71 43.19,-49.32 65.87,-73.36 -11.2,23.99 -22.37,47.48 -30.81,72.15 -1.94,5.68 -7.23,6.81 -11.46,9.59 -14.87,9.76 -17.87,25.47 -7.92,40.06 7.91,11.59 22.55,14.73 33.98,7.28 12.62,-8.23 16.93,-26.5 6.12,-39.08 -8.73,-10.16 -5.87,-18.02 -2.5,-28.1 24,-71.81 76.74,-111.91 146.68,-133.76 0.35,6.87 -5.54,9.67 -8.96,13.73 -17.58,20.87 -32.89,43.15 -43.72,68.29 -5.53,12.86 -9.83,25.12 -24.6,32.49 -14.6,7.28 -15.23,31.66 -4.18,46.65 9.07,12.3 23.68,15.2 35.86,7.11 14.8,-9.83 20.94,-33.14 9.12,-45.96 -10.22,-11.1 -8.01,-19.61 -2.82,-30.88 30.57,-66.37 77.16,-115.65 147.92,-139 35.35,-11.67 70.15,-25.45 108.24,-31.73 -3.16,8.08 -10.03,9.46 -15.04,12.88 -28.79,19.63 -52.38,44.08 -68.86,74.85 -5.38,10.04 -11.09,16.92 -23.17,20.37 -18.7,5.35 -24.74,25.9 -14.72,42.52 8.59,14.24 28.52,19.89 42.42,12.02 12.93,-7.33 18.23,-26.9 8.09,-40.82 -7.41,-10.17 -5.04,-16.99 0.06,-25.91 13.95,-24.42 30.6,-47.11 53.55,-63.1 65.74,-45.81 139.49,-71.41 219.18,-83.28 -1.67,8.05 -8.35,8.53 -12.86,11.05 -47.96,26.9 -92.09,57.82 -116.59,109.59 -3.15,6.65 -8.9,8.55 -14.76,11.37 -14.27,6.87 -21.14,18.81 -19.92,34.51 1.24,15.82 15.41,31.72 29.94,34.45 11.74,2.2 22.38,-0.61 28.98,-10.94 8.86,-13.89 9.69,-30.76 -1.62,-41.43 -15.84,-14.94 -8.92,-25.97 -0.55,-39.61 16.62,-27.09 39.83,-47.11 65.78,-64.67 77.01,-52.12 161.5,-74.38 254.47,-64.92 -1.39,6.9 -7.68,6.84 -11.89,8.64 -41.61,17.78 -77.75,43.48 -108.95,75.95 -9.57,9.95 -18.71,14.77 -33.34,13.75 -23.18,-1.62 -37.54,10.85 -40.21,30.47 -2.89,21.19 7.89,38.55 28,45.12 26.34,8.6 54.67,-18.4 47.43,-48.02 -3.65,-14.93 1.21,-22.59 10.33,-31.62 53.46,-52.88 117.1,-85.87 191.13,-98.95 11.85,-2.1 23.91,-3.6 35.7,-9.13 -4.68,-10.27 -12.78,-10.68 -21.26,-9.41 -45.8,6.86 -91.45,3.99 -136.81,-3.35 -46.65,-7.54 -91.85,-20.47 -135.03,-40.07 -9.48,-4.32 -15.03,-9.22 -14.97,-21.47 0.09,-18.9 -10.65,-31.14 -25.66,-34.18 -16.4,-3.32 -35.05,5.4 -42.77,20.01 -7.68,14.53 -4.26,35.21 7.71,46.54 12.29,11.63 30.49,14.39 44.42,4.01 8.8,-6.55 15.23,-6.53 24.22,-1.76 29.24,15.53 61.71,22.18 95.29,32.64 -5.96,5.27 -11.68,4.77 -16.67,5.51 -35.11,5.24 -70.42,9.33 -105.34,15.59 -44.48,7.96 -87.4,3.89 -129.39,-12.15 -17.48,-6.69 -34.74,-13.98 -52.33,-20.38 -11.24,-4.09 -19.91,-9.4 -25.93,-21.01 -9.09,-17.51 -32.33,-23.32 -46.59,-13.95 -15.14,9.93 -16.9,33.05 -3.79,49.98 13.08,16.9 34.45,20.39 48.79,5.67 8.13,-8.34 14.15,-7.81 23.35,-3.99 30.86,12.87 62.03,24.98 96.75,32.69"
         style="fill:#231f20;fill-opacity:1;fill-rule:nonzero;stroke:none"
         transform="matrix(0.13333333,0,0,-0.13333333,0,666.66667)" /><path
         id="path5"
         d="m 3058.96,3737.5 c 18.96,17.21 37.94,34.38 56.86,51.64 4.3,3.93 3.31,9.5 4.03,14.54 1.35,9.37 5.76,17.15 13.04,23.06 11.61,9.42 29.6,7.37 38.13,-4.03 8.45,-11.3 5.24,-25.93 -8.04,-35.1 -3.66,-2.53 -7.87,-5.59 -12.03,-5.92 -36.9,-2.86 -49.16,-37.67 -74.93,-55.57 32.51,1.61 63.78,0.79 94.74,-5.49 6.34,-1.28 9.08,3.33 13.15,6.3 13.03,9.52 27.55,8.41 36.15,-2.81 8.02,-10.45 6.19,-20.67 -2.5,-29.66 -9.26,-9.57 -23.73,-9.58 -34.6,1.12 -5.88,5.8 -11.86,9.58 -19.76,10.79 -52.85,8.07 -104.21,5.86 -152.79,-19.93 -22.68,-12.03 -46.16,-22.57 -68.81,-33.57 -0.07,-4.91 2.87,-5 5.23,-4.95 36.09,0.74 70.5,-7.6 104.14,-19.57 8,-2.85 13.56,-3.09 20.77,3.15 12.33,10.65 24.02,8.51 33.25,-3.63 9.31,-12.25 6.23,-27.81 -7.3,-36.87 -12.04,-8.04 -26.12,-6.11 -33.25,6.79 -4.66,8.45 -11.22,11.48 -19.18,14.51 -62.97,23.97 -126.02,24.58 -189.43,1.63 -23.37,-8.46 -47.04,-16.13 -70.69,-26.38 28.68,-7.06 55.67,-16.77 81.14,-30.45 5.79,-3.11 9.51,2.12 14.06,4.01 18.39,7.6 36.59,-1.05 43.1,-20.41 5.9,-17.55 -3.35,-32.86 -22.79,-37.71 -15.99,-4 -27.65,2.4 -31.38,19.78 -2.6,12.15 -8.85,19.23 -19.61,24.14 -49.84,22.78 -100.05,36.04 -155.11,17.02 -33.99,-11.73 -69.56,-18.92 -109.76,-29.56 40.69,-9.74 74.68,-23.2 108.56,-36.97 6.12,-2.49 9.31,0.77 13.02,4.93 10.23,11.47 23.04,14.28 36.83,7.88 15.5,-7.18 23.45,-20.4 23.19,-37.25 -0.19,-13.19 -6.18,-24.37 -20.15,-27.5 -15.13,-3.38 -30.42,0.76 -36.95,14.54 -7.42,15.64 -20.15,20.61 -33.88,26.07 -9.6,3.82 -19.19,7.64 -28.75,11.55 -50.14,20.51 -101.21,28.56 -155.31,17.23 -37.11,-7.78 -75.07,-11.53 -114.95,-17.42 10.44,-7.13 20.64,-8.13 30.05,-10.81 18.65,-5.3 37.36,-10.43 54.88,-18.83 13.99,-6.71 25.84,-12.59 41.92,-0.87 13.1,9.56 28.81,2.99 40.11,-8.75 11.15,-11.57 13.29,-31.42 5.7,-45.19 -7.83,-14.23 -27.26,-23.13 -43.21,-19.1 -15.76,3.98 -25.29,15.34 -24.43,30.8 0.88,15.98 -7.66,21.76 -19.56,26.56 -46.2,18.63 -93.34,33.04 -143.11,39.71 -41.94,5.62 -83.46,6.9 -125.31,1.7 -8.01,-1 -15.59,-0.55 -20.76,9.02 20.63,10.01 43.53,9.37 64.73,15.37 65.42,18.53 122.55,50.7 169.4,100.54 6.53,6.95 5.3,12.92 3.13,20.95 -4.63,17.1 0.89,31.67 14.09,43.49 11.92,10.68 24.74,12.73 39.21,5.48 18.1,-9.06 26.02,-26.2 21.36,-47.11 -3.63,-16.3 -17.41,-27.71 -38.01,-26.02 -16.24,1.33 -26.07,-4.69 -36.52,-15.54 -30.78,-31.99 -66.65,-56.99 -107.67,-74.44 -4.3,-1.83 -10.41,-1.95 -12.2,-8.54 107.65,-10.6 202.34,19.99 285.5,87.87 17.75,14.49 30.49,33.1 41.97,52.81 5.45,9.37 6.25,16.45 -3.3,22.94 -1.04,0.69 -1.78,1.87 -2.56,2.89 -12.58,16.43 -11.03,40.17 3.29,50.58 14.04,10.21 33.74,5.29 45.47,-11.35 12.44,-17.64 9.63,-41.82 -8.69,-50.51 -12.98,-6.15 -19.58,-15.45 -25.85,-26.79 -14.64,-26.47 -34.98,-47.78 -59.66,-65.2 -20,-14.12 -40.98,-26.63 -62.41,-38.75 1.98,-5.23 5.56,-3.39 8.05,-2.98 63.65,10.53 123.63,31.61 180.41,62.2 36.97,19.93 64.73,48.72 85.03,85.17 4.19,7.52 7.02,13.21 0.32,22.36 -11.45,15.6 -6.1,36.27 8.68,43.29 15.39,7.32 35.53,-0.36 42.45,-16.18 7.73,-17.69 -0.24,-34.32 -20.15,-40.75 -5.59,-1.81 -10.99,-2.43 -13.99,-8.66 -19.67,-40.68 -50.45,-71.17 -89.43,-94.65 6.07,-5.08 10.64,-1.16 15.01,-0.12 39.64,9.42 78.55,21.62 115.86,37.73 62.71,27.06 102.61,76.42 128.79,138.15 3.21,7.59 2.6,13.43 -3.85,18.86 -4.02,3.39 -6.13,8.15 -7.23,13.39 -3.49,16.5 5.81,35.37 20.37,39.59 14.64,4.25 25.29,-2.02 32.2,-14.79 9.13,-16.89 5.78,-36.51 -9.59,-44.22 -10.51,-5.27 -15.1,-12.86 -18.85,-22.73 -12.73,-33.43 -33.63,-61.8 -59.92,-90.58 78.12,23.06 130.56,67.61 153.95,143.24 2.34,7.56 -0.2,11.52 -4.3,17.07 -11.07,15 -9.01,31.81 3.99,40.96 11.78,8.31 27.36,4.97 35.34,-7.57 9.72,-15.29 6.62,-29.51 -9.36,-39.57 -5.02,-3.16 -9.76,-5.66 -11.78,-11.88 -7.6,-23.3 -18.43,-45.2 -30.69,-66.44 1.23,-1.24 2.46,-2.49 3.69,-3.73"
         style="fill:#231f20;fill-opacity:1;fill-rule:nonzero;stroke:none"
         transform="matrix(0.13333333,0,0,-0.13333333,0,666.66667)" /><path
         id="path6"
         d="m 1396.68,2953.56 c -30.36,28.88 -58.94,53.04 -97.11,63.4 -14.66,3.98 -29.49,10.02 -41.44,20.44 -10.88,9.49 -18.86,21.25 -11.35,35.66 6.97,13.35 20.28,11.6 32.67,8.46 8.56,-2.16 16.99,-4.84 25.65,-7.34 2.09,11.07 3.1,21.39 6.08,31.09 4.86,15.83 15.59,19.32 29.72,10.54 9.87,-6.13 15.53,-15.75 18.46,-26.45 7.21,-26.3 11.36,-53.2 7.28,-80.38 -1.04,-6.92 0.18,-11.02 4.32,-15.34 25.09,-26.18 52.67,-44.47 92.09,-38.23 49.63,7.86 98.9,18.87 149.89,16.53 26.1,-1.2 52.14,-4.07 79.01,-3.47 -29.8,17.29 -57.08,37.29 -83.08,59.33 -8.65,7.32 -22.08,6.03 -33.6,7.17 -19.25,1.92 -38.76,1.52 -57.63,6.82 -20.08,5.63 -30.7,19.28 -28.96,37.65 1.43,15.07 15.65,28.21 34.31,27.86 15.05,-0.28 19.96,2.8 17.09,18.84 -2.46,13.77 6.54,23.03 19.94,26.92 15.14,4.39 31.2,-1.7 39.83,-16.68 13.05,-22.64 22.39,-47.12 22.21,-73.4 -0.13,-19.22 8.52,-30.88 22.69,-41.78 61.7,-47.48 131.47,-73.3 208.73,-79.73 10.32,-0.86 20.69,-1.57 30.3,-5.72 3.46,-1.49 7.05,-4.02 5.23,-8.83 -1.46,-3.87 -4.94,-3.3 -8.19,-2.85 -33.83,4.57 -68.55,1.73 -101.63,12.65 -75.64,24.98 -149.2,10.89 -222.2,-12.31 -4.3,-1.36 -8.28,-3.83 -12.62,-4.92 -28.85,-7.25 -46.35,-22.65 -47.78,-55.14 -0.88,-19.91 -9.48,-38.22 -25.8,-52.54 -12.42,-10.89 -24.03,-11.84 -36.68,-3.3 -12.34,8.35 -16.1,19.74 -8.07,33.54 0.91,1.58 1.07,3.59 1.66,5.71 -7.78,3.44 -15.46,-0.41 -22.98,0.73 -14.49,2.2 -26.78,8.66 -30.32,23.29 -3.64,15.06 9,21.91 19.93,27.24 22.73,11.08 47.65,11.2 72.11,10.59 14.7,-0.36 27.5,2.52 40.78,8.67 32.01,14.82 65.15,26.93 99.75,35.63 -18.38,6.28 -36.59,4.29 -54.6,1.49 -29.32,-4.56 -58.6,-9.52 -87.75,-15.08 -21.14,-4.04 -42.42,-5.25 -63.67,-3.56 -19.75,1.57 -37.25,-4.3 -53.49,-13.81 -18.76,-10.99 -31.38,-25.96 -27.91,-50.45 1.89,-13.38 2.48,-26.94 5.58,-40.21 2.69,-11.46 3.62,-23.2 -0.86,-34.37 -4.36,-10.86 -12.3,-18.54 -24.56,-19.08 -11.16,-0.49 -18.67,6.61 -21.51,16.38 -3.33,11.43 -7.72,11.71 -17.37,6.61 -13.84,-7.29 -23.61,0.14 -30.07,12.26 -7.55,14.15 -4.47,34.58 7.54,46.81 6.25,6.37 13.38,13.47 21.47,16.13 34.94,11.49 59.07,37.62 87.86,62.34 -38.88,5.32 -74.46,1.76 -108.86,-13.07 -4.05,-1.75 -4.24,-4.51 -4.6,-8.98 -3.03,-38.43 -24.1,-65.52 -56.24,-84.6 -10.58,-6.28 -22.66,-7.15 -32.51,1.93 -10.58,9.75 -11.14,22.84 -3.54,33.61 12.08,17.11 3.51,20.57 -11.68,23.81 -9.28,1.98 -19.45,6.23 -20.74,17.7 -1.39,12.3 7.97,18.63 17.27,23.3 25.76,12.94 52.74,10.91 79.29,3.48 9.4,-2.64 17.07,-2.86 25.85,1.19 19.39,8.95 39.91,14.39 61.57,18 -16.89,9.64 -33.1,20.66 -54.36,15.43 -16.29,-4 -32.76,-7.3 -49.01,-11.48 -15.01,-3.85 -29.55,-3.24 -43.42,3.56 -10.32,5.06 -18.17,12.75 -18.49,25.19 -0.32,12.75 7.66,20.49 18.29,24.89 8.52,3.52 13.36,5.49 10.59,17.46 -3.78,16.35 15.18,27.38 33.72,20.25 19.37,-7.43 34.15,-21.14 44.13,-39.06 6.71,-12.05 16.17,-19.04 28.36,-24.71 41.43,-19.28 84.53,-31.27 133.43,-33.71"
         style="fill:#231f20;fill-opacity:1;fill-rule:nonzero;stroke:none"
         transform="matrix(0.13333333,0,0,-0.13333333,0,666.66667)" /><path
         id="path7"
         d="m 2436.92,2966.91 c 21.16,1.51 42.31,2.91 63.46,4.54 57.37,4.42 113.05,-8.52 169.23,-16.41 38.49,-5.4 64.99,15.13 88.98,41.11 3.39,3.66 3.07,7.49 2.3,12.4 -4.12,26.59 0.06,52.7 6.43,78.48 1.38,5.54 4.02,10.95 6.97,15.89 6.72,11.29 16.45,19.47 30.12,16.62 12.51,-2.6 14.24,-15.43 14.11,-24.97 -0.26,-19.99 6.73,-21.48 23.52,-14.87 13.56,5.34 29.75,9.49 39.37,-7.93 6.65,-12.05 -2.03,-29.53 -19.59,-39.65 -9.46,-5.45 -19.49,-10.58 -29.93,-13.54 -38.94,-11.02 -70.23,-33.72 -99.48,-64.04 14.83,-1.81 28.25,1.68 41.48,3.75 34.75,5.42 67.15,18.12 98.86,33.01 8.94,4.2 13.87,11.15 18.41,19.01 9.63,16.65 22.86,29.79 39.91,38.49 22.63,11.55 39.01,1.4 37.88,-23.75 -0.36,-7.77 3.94,-8.29 8.61,-10.15 12.94,-5.15 23.41,-13.31 21.54,-28.46 -1.88,-15.16 -13.47,-22.6 -27.47,-26.62 -11.51,-3.3 -22.85,-3.02 -34.39,-0.08 -13.75,3.51 -27.96,5.51 -41.39,9.92 -23.31,7.66 -42.15,-2.2 -65.92,-14.23 28.5,-4.07 51.65,-10.66 73.61,-20.99 6.71,-3.15 12.46,1.14 18.59,2.68 24.21,6.07 48.56,8 72.35,-1.12 11.52,-4.41 24.14,-10.77 23.46,-25.16 -0.66,-14.03 -14.12,-16.74 -25.23,-20.26 -4.84,-1.52 -9.66,-3.11 -15.31,-4.93 3.71,-7.77 7.55,-14.47 10.17,-21.61 3.79,-10.33 3.25,-20.51 -4.98,-28.84 -8.39,-8.47 -18.64,-7.98 -28.91,-4.55 -27.06,9.05 -61.2,55.26 -60.84,83.95 0.08,7.03 -0.59,10.33 -7.14,13.03 -33.59,13.86 -68.29,16.37 -108.15,11.94 29.57,-19.34 47.15,-48.01 79.74,-57.33 11.77,-3.36 21.87,-11.01 30.63,-19.87 12.09,-12.21 14.87,-27.07 10.68,-42.99 -4.54,-17.28 -17.64,-23.71 -34.01,-16.8 -6.63,2.8 -11.09,6.11 -14.08,-3.93 -3.57,-12.01 -11,-21.67 -24.94,-19.57 -15.34,2.3 -22.56,13.73 -25.1,28.32 -2.29,13.17 2.05,25.63 4.54,38.23 11.43,57.86 -17.74,92.87 -76.72,90.79 -33.21,-1.17 -65.53,3.38 -97.95,10.02 -36.38,7.45 -73.05,14.65 -111.26,6.85 15.16,-4.29 31.13,-6.78 45.33,-13.2 46.21,-20.87 93.75,-34.51 144.92,-33.88 10.45,0.14 20.21,-4.17 28.94,-10.01 8.17,-5.45 16.42,-11.33 14.95,-22.88 -1.35,-10.74 -9.26,-16.34 -17.99,-21.26 -10.95,-6.17 -22.76,-2.18 -35.39,-3.27 0.35,-9 8.09,-16.08 5.26,-25.52 -5.55,-18.59 -29.77,-25.81 -45.59,-13.83 -25.39,19.21 -29.14,48.04 -33.07,75.92 -1.75,12.38 -7.08,18.64 -16.81,22.81 -82.96,35.52 -167.82,56.45 -257.73,29.26 -34.57,-10.45 -70.29,-8.95 -105.43,-13.39 -3.25,-0.41 -6.77,-0.83 -8.08,3.05 -1.58,4.73 1.85,7.33 5.41,8.81 9.66,4.03 20,4.76 30.33,5.63 78.64,6.58 149.45,33.14 211.67,82.25 12.57,9.92 19.53,20.75 19.35,37.5 -0.3,26.39 8.93,50.78 21.47,73.64 8.82,16.07 25.19,22.78 40.91,18.04 17.58,-5.3 22.48,-18.08 19.19,-34.81 -1.5,-7.6 0.46,-10.89 8.49,-10.48 5.13,0.27 10.53,0.47 15.42,-0.81 14.57,-3.84 26.38,-11.33 28.32,-27.89 1.85,-15.76 -8.03,-30.49 -24.03,-35.77 -19.23,-6.34 -39.4,-6.73 -59.38,-7.86 -21.12,-1.2 -39.75,-5.99 -55.71,-22.2 -18.05,-18.34 -41.48,-30.17 -62.91,-46.23"
         style="fill:#231f20;fill-opacity:1;fill-rule:nonzero;stroke:none"
         transform="matrix(0.13333333,0,0,-0.13333333,0,666.66667)" /><path
         id="path8"
         d="m 5791.63,3463.38 c 0.86,-9.27 2.1,-21.98 11.22,-24.06 8.63,-1.97 11.98,10.17 12.48,18.24 0.6,9.58 -4.07,18.45 -14.19,19.89 -8.72,1.24 -8.66,-7.29 -9.51,-14.07 z m -1165.24,-1.16 c -0.77,6.68 -0.77,15.24 -8.7,15.2 -10.55,-0.05 -15.02,-8.86 -15.39,-18.52 -0.31,-8.58 3.29,-20.27 11,-19.58 10.47,0.92 10.41,14.14 13.09,22.9 z m 998.4,40.29 c 0.95,-21.67 15.77,-38.6 31.71,-54.87 3.66,-3.72 7.94,-4.73 11.89,-0.8 14.95,14.92 27.38,31.43 25.3,54.01 -1.81,19.77 -24.23,37.21 -44.15,35.6 -15.67,-1.26 -25.09,-13.08 -24.75,-33.94 z m -831.86,-0.58 c 0.55,19.95 -7.96,31.65 -22.6,34.12 -24.15,4.09 -50.15,-20.03 -46.91,-44.26 2.31,-17.24 11.75,-31.1 23.78,-43.3 4.17,-4.23 8.63,-5.9 13.38,-1.17 16.19,16.13 30.52,33.35 32.35,54.61 z m 219.92,52.74 c -0.23,24.37 -6.16,44.97 -15.79,56.6 -10.91,13.2 -30.06,17.61 -45.44,10.48 -14.33,-6.64 -20.34,-20.62 -16.17,-39.16 7.58,-33.66 27.42,-58.98 54.24,-79.74 9.75,-7.56 13.02,-3.1 15.7,6.12 4.51,15.56 6.89,31.41 7.46,45.7 z m 437.05,70.43 c -17.73,0.15 -31.03,-9.71 -38.39,-29.76 -10.94,-29.81 -7.56,-59.57 1.55,-89.16 2.08,-6.73 4.86,-10.47 12.19,-5.09 29.68,21.76 51.05,49.29 57.7,86.13 3.93,21.69 -10.89,37.69 -33.05,37.88 z m -314.71,78.47 c -2.05,-69.47 20.76,-135.49 65.67,-191.85 6.11,-7.66 9.94,-8.54 15.6,0.05 18.05,27.43 37.92,53.7 48.78,85.35 23.03,67.07 23.45,134.33 0.82,201.26 -8.39,24.86 -28.14,41.74 -53.58,45.58 -23.03,3.49 -39.02,-13.7 -53.11,-30.18 -5.52,-6.46 -8.04,-14.61 -10.95,-22.5 -10.43,-28.34 -11.39,-58.08 -13.23,-87.71 z m -783.13,-316.66 c 18.67,17.21 36.75,20.59 55.7,19.7 29.03,-1.38 57.98,-3.98 87,-5.61 28.6,-1.59 56.83,0.93 84.13,10.27 19.45,6.65 19.67,7.53 10.14,25.71 -9.75,18.59 -5.91,38.2 9.87,50.41 17.59,13.61 38.38,5.62 42.14,-16.46 2.23,-13.18 -0.17,-25.89 -6.94,-37.39 -4.55,-7.73 -1.89,-11.64 5.44,-14.69 31.53,-13.13 60.79,-4.15 89.59,9.1 6.99,3.22 2.82,7.11 -0.02,10.48 -8.79,10.46 -16.42,21.62 -20.89,34.64 -13.1,38.21 14.44,77.88 54.93,79.24 24.31,0.82 43.19,-16.45 45.18,-41.05 2.16,-26.6 -9.51,-47.87 -26.81,-66.21 -11.25,-11.94 -7.3,-16.82 6.21,-19.82 72.24,-16.02 136.81,-0.08 194.28,46.23 9.3,7.49 6,11.78 -1.86,17.32 -31.27,22.08 -52.44,51.45 -61.3,88.91 -5.65,23.88 3.12,44.8 21.87,55.22 20.36,11.33 47.68,7.24 64.24,-9.72 10.67,-10.93 17.05,-24.1 20.38,-38.96 6.23,-27.86 4.89,-55.56 -4.71,-82.14 -5.23,-14.51 -0.82,-21.06 11.87,-26.79 53.23,-24.08 104.83,-23.3 155.3,7.86 11.16,6.88 11.28,11.92 2.77,21.9 -70.93,83.1 -84.21,178.74 -59.35,282.08 8.35,34.71 30.11,57.68 63.65,69.91 9.69,3.52 18.58,3.16 28.23,-0.18 45.1,-15.62 62.28,-51.69 69.16,-94.73 15.21,-95.21 -0.6,-182.85 -65.71,-257.56 -7.86,-9.02 -8.01,-13.61 2.13,-20.9 43.27,-31.06 120.11,-33.12 163.95,-4.42 9.21,6.03 7.35,12.19 4.83,19.69 -8.81,26.24 -11,53.01 -6.39,80.31 6.32,37.33 30.85,60.82 62.23,59.7 30.38,-1.08 50.64,-24.02 46.13,-54.34 -5.81,-39.09 -26.68,-69.8 -58.28,-92.58 -13.24,-9.54 -13.77,-15.13 -0.71,-24.95 55.91,-42 117.78,-57.3 186.27,-42.39 20.96,4.57 20.83,5.98 7.3,22.14 -13.1,15.65 -23.32,32.51 -25.09,53.46 -3.09,36.19 24.52,59.26 59.31,49.47 36.61,-10.29 53.65,-45.6 39.47,-81.05 -5.57,-13.92 -16.23,-24.57 -24.3,-38.41 29.35,-13.93 57.97,-24.21 90.08,-13.19 10.34,3.55 15.23,7.78 8.58,19.37 -6.19,10.79 -8.3,23.06 -5.37,35.63 5.17,22.2 25.29,29 42.81,14.49 15.69,-12.97 19.65,-33.29 6.9,-52.08 -9.22,-13.57 -3.59,-17.43 8.04,-21.74 40.65,-15.08 82.46,-13.62 124.46,-9.2 20.6,2.17 41.19,3.62 61.89,2.8 15.15,-0.61 28.58,-5.7 40.66,-15.17 -1.71,-2.01 -2.51,-3.68 -3.22,-3.65 -45.97,1.98 -91.53,-4.08 -137.27,-6.7 -39.08,-2.24 -77.49,2.84 -112,23.78 -4.95,3.01 -9.24,4.05 -14.35,1.22 -38.9,-21.55 -76.5,-11.41 -113.19,5.78 -11.02,5.17 -19.29,4.27 -30.65,0.45 -83.78,-28.17 -159.09,-9.27 -226.37,45.19 -11.2,9.07 -18.33,10.87 -31.38,3.89 -56.82,-30.4 -127.31,-22.61 -175.78,18.69 -7.31,6.22 -10.73,5.24 -17.39,-0.47 -47.56,-40.79 -119.08,-48.36 -175.96,-18.03 -12.03,6.41 -18.76,5.88 -29.88,-3.1 -70.2,-56.76 -147.99,-76.64 -234.92,-42.84 -8.07,3.14 -13.54,0.3 -19.94,-2.59 -21.27,-9.61 -42.85,-18.31 -66.63,-18.88 -7.06,-0.17 -15.59,-1.57 -21,1.67 -25.23,15.12 -47.17,5.92 -71.64,-3.74 -39.3,-15.52 -81.21,-13.45 -122.52,-8.06 -33.38,4.36 -66.85,4.09 -105.3,3.08"
         style="fill:#231f20;fill-opacity:1;fill-rule:nonzero;stroke:none"
         transform="matrix(0.13333333,0,0,-0.13333333,0,666.66667)" /><path
         id="path9"
         d="m -448.53337,192.57488 c -6.268,-1.352 -12.53066,-1.512 -18.89733,-0.95466 -10.12667,0.88666 -19.27467,4.99866 -28.73867,8.10533 -1.32933,0.436 -1.64133,1.712 -2.60266,2.364 -5.64534,3.83467 -11.52,6.67067 -18.58267,4.01867 -1.53066,-0.576 -3.10133,-1.04134 -4.63733,-1.60267 -0.75333,-0.27467 -1.432,-0.764 -1.49333,-1.62133 -0.076,-1.056 0.87066,-1.14267 1.588,-1.35067 7.07066,-2.04267 14.224,-3.44933 21.64666,-2.70667 1.03067,0.10267 2.03867,0.04 3.056,-0.288 6.964,-2.244 13.94133,-4.444 20.90933,-6.672 0.21867,-0.0707 0.38667,-0.29733 0.62134,-0.484 -1.83334,0 -3.588,-0.028 -5.34134,0.004 -11.72133,0.21867 -23.412,-0.284 -35.11066,-1.05333 -6,-0.39467 -11.992,0.89467 -17.95867,1.736 -2.252,0.31867 -4.19066,0.932 -5.896,2.62533 -2.42666,2.41334 -5.45066,3.016 -8.84213,2.172 -4.8864,-1.21866 -9.44533,-3.20666 -13.89627,-5.492 -0.6052,-0.31066 -1.3256,-0.62266 -1.2016,-1.48266 0.1312,-0.90534 0.89894,-0.94267 1.59734,-0.924 3.05426,0.084 5.95466,-0.856 8.9136,-1.36667 4.7052,-0.81067 9.10906,-0.32533 13.05573,2.52267 0.85867,0.62 1.688,0.66533 2.66267,0.588 4.46,-0.35067 8.856,-1.28934 13.36266,-1.332 0.0293,-1.06267 -0.77066,-0.808 -1.24533,-0.984 -0.32,-0.11867 -0.68133,-0.12667 -1,-0.248 -5.248,-2 -10.776,-2.29467 -16.28533,-2.89067 -6.69934,-0.724 -11.4332,-4.83333 -15.43267,-9.91733 -0.536,-0.68267 -1.0532,-1.50534 -0.5448,-2.368 0.58227,-0.98534 1.49947,-0.39467 2.32387,-0.296 1.2772,0.15333 2.57093,0.296 3.85266,0.26 6.39827,-0.17867 11.38494,2.60933 15.0436,7.59866 1.756,2.396 3.86534,3.628 6.59067,4.46267 11.30667,3.46667 22.904,4.64933 34.70666,4.81867 -0.24666,-0.968 -1.05733,-0.82267 -1.65866,-0.952 -4.428,-0.948 -8.61067,-2.88267 -13.25867,-3.008 -2.752,-0.0733 -4.78,-1.776 -6.30133,-4.02667 -2.332,-3.44533 -3.32667,-7.34133 -3.82533,-11.40133 -0.0747,-0.60667 -0.13334,-1.272 0.456,-1.64 0.74933,-0.46934 1.28,0.112 1.80933,0.54933 2.84933,2.36 5.736,4.67733 8.53467,7.096 2.18666,1.89067 4.03066,4.05867 4.24666,7.132 0.076,1.076 0.78533,1.456 1.604,1.77867 6.52267,2.57733 13.19333,4.51733 20.27733,4.644 8.60667,0.15333 17.20267,-0.808 25.83867,-0.25467 -1.628,-1.16267 -3.44133,-1.58 -5.39467,-1.35733 -7.136,0.81733 -12.388,-2.10667 -15.96533,-8.16267 -0.61467,-1.04 -2.47467,-1.828 -1.70667,-3.10533 0.68934,-1.14534 2.156,0.204 3.33067,0.17866 7.66933,-0.16533 13.544,3.34267 18.15733,9.22134 0.68934,0.87733 1.49334,1.31066 2.51867,1.61866 5.196,1.568 10.44,2.93067 15.75733,4.03334 3.492,0.724 6.62667,2.22933 9.656,4.79466 -1.37333,0.156 -2.25733,-0.17866 -3.008,-0.64933 -4.352,-2.724 -8.964,-2.57467 -13.72666,-1.46 -2.788,0.65333 -5.43734,1.64 -8.00134,2.87867 -1.94133,0.93733 -3.29066,2.04133 -4.06666,4.46 -1.14267,3.55466 -4.39734,5.736 -7.80667,7.09333 -3.608,1.436 -7.432,2.232 -11.376,1.416 -0.836,-0.172 -1.688,-0.4 -2.448,-0.772 -1.056,-0.51867 -2.41067,-0.99333 -2.26267,-2.48267 0.13467,-1.36266 1.49467,-1.16933 2.43867,-1.44533 2.28,-0.66267 4.14267,-2.084 6.084,-3.35333 3.972,-2.59867 8.16933,-4.44 13.06267,-4.05067 0.72133,0.0587 1.35466,-0.208 1.952,-0.56667 4.00666,-2.404 8.27866,-4.16533 12.85866,-5.448"
         style="fill:#231f20;fill-opacity:1;fill-rule:nonzero;stroke:none;stroke-width:0.133333" /><path
         id="path10"
         d="m -377.1507,197.46022 c 2.69867,-2.95734 6.04266,-4.58534 9.804,-5.35067 5.152,-1.04667 10.22,-2.408 15.26,-3.888 1.196,-0.352 2.13733,-0.86667 2.94133,-1.88933 4.56533,-5.81067 10.41733,-9.2 17.976,-9.04534 1.18667,0.024 2.65067,-1.3 3.35467,-0.21866 0.852,1.312 -1.06534,2.04933 -1.66667,3.07866 -3.60933,6.168 -8.948,9.09467 -16.18267,8.212 -1.84,-0.22533 -3.50266,0.35867 -5.124,1.24534 6.59067,-0.18134 13.148,0.005 19.692,0.37866 8.76134,0.5 17.14,-1.04266 25.288,-4.168 1.64,-0.62933 2.712,-1.39066 2.89467,-3.41333 0.21067,-2.31867 1.84133,-4.05867 3.54533,-5.54133 2.98534,-2.59734 6.06267,-5.088 9.104,-7.62134 0.46134,-0.384 0.92534,-0.84666 1.59734,-0.524 0.67733,0.32667 0.64,0.988 0.568,1.58134 -0.552,4.49733 -1.66534,8.79066 -4.53067,12.45866 -1.92133,2.46 -4.62,3.38134 -7.512,3.40267 -4.692,0.032 -8.61867,2.75867 -13.12133,3.46 1.96,0 3.92266,0.0507 5.88266,-0.008 10.56134,-0.32133 20.896,-1.98133 30.95867,-5.26667 1.44667,-0.47066 2.55467,-1.16133 3.45333,-2.45733 4.22134,-6.08667 9.88,-9.452 17.508,-8.97467 0.924,0.0587 1.87334,-0.168 2.80134,-0.32133 0.76266,-0.12667 1.57333,-0.47067 2.07733,0.40933 0.46267,0.80534 -0.0107,1.53734 -0.47067,2.13867 -3.81466,4.99467 -8.408,8.896 -14.80933,10.056 -2.428,0.43867 -4.82,1.06267 -7.40133,0.36 -1.06667,-0.29067 -2.45067,0.572 -3.68667,0.92133 -2.71733,0.76667 -5.432,1.54 -8.15467,2.312 0.10667,0.908 0.772,0.59467 1.18134,0.64 4.02133,0.44134 8.04933,0.824 12.06933,1.28 1.08,0.12267 1.96,-0.0373 2.88933,-0.692 3.63867,-2.56133 7.70667,-3.19466 12.06534,-2.54266 3.31333,0.49466 6.53866,1.556 9.936,1.50933 0.61733,-0.009 1.23866,0.10533 1.364,0.88133 0.11866,0.73334 -0.38267,1.10134 -0.93067,1.38534 -4.98267,2.58 -10.06133,4.91466 -15.64667,5.88533 -3.524,0.612 -6.13333,-1.17867 -8.52933,-3.40267 -0.568,-0.52666 -1.00267,-1.076 -1.87467,-1.20933 -9.36,-1.43467 -18.67333,-2.70667 -28.24,-1.77467 -10.28666,1.00267 -20.644,0.95467 -30.98266,0.46 -0.68134,-0.0333 -1.36667,-0.005 -2.08534,-0.005 0.1,0.67733 0.68,0.67067 1.10267,0.80533 6.47733,2.068 12.96,4.116 19.436,6.184 1.23333,0.39334 2.444,0.812 3.77867,0.668 7.50533,-0.81466 14.748,0.57867 21.904,2.652 0.71466,0.20667 1.65466,0.24667 1.672,1.288 0.016,0.90134 -0.70134,1.336 -1.40667,1.684 -7.912,3.90934 -15.72667,3.60267 -22.50667,-2.00133 -3.144,-2.6 -6.58933,-3.81067 -10.12933,-5.136 -8.404,-3.148 -16.95333,-5.76267 -26.03067,-6.07067 -4.97733,-0.16933 -9.91466,0.136 -14.91333,0.984 0.27867,1.03067 1.012,0.79067 1.51333,0.96 1.792,0.60667 3.66667,1.032 5.37067,1.82667 4.10267,1.91467 8.07333,3.92533 12.832,3.99067 2.84133,0.0387 5.34,1.79466 7.75867,3.31866 2.46533,1.55334 4.77866,3.34 7.77066,3.95467 1.65867,0.34133 1.744,1.65333 0.29867,2.81067 -1.764,1.41066 -3.92,1.90933 -6.06933,1.864 -5.36534,-0.11467 -10.444,-1.208 -14.408,-5.26134 -1.38534,-1.416 -2.85467,-2.74 -2.924,-4.96666 -0.0333,-1.05867 -1.00134,-1.56667 -1.80134,-2.024 -4.54533,-2.60134 -9.41066,-4.228 -14.65466,-4.62 -2.90534,-0.21734 -5.632,0.37066 -8.20533,1.79466 -1.15067,0.63734 -2.42934,1.044 -3.65067,1.55334"
         style="fill:#231f20;fill-opacity:1;fill-rule:nonzero;stroke:none;stroke-width:0.133333" /><path
         id="path11"
         d="m 3141.47,1372.67 c 1.8,-3.6 2.27,-5.59 3.48,-6.85 10.32,-10.69 19.86,-22.47 10.51,-37.54 -9.45,-15.22 -25.38,-19.79 -42.42,-16.81 -22.51,3.94 -44.67,11.92 -62.16,25.8 -30.78,24.44 -64.17,29.2 -101.07,22.69 -8.82,-1.55 -17.83,-2.01 -30.76,-3.39 18.77,-17.61 27.22,-37.02 26.09,-59.75 -0.97,-19.53 -6.37,-37.67 -24.92,-47.37 -20.05,-10.5 -40.36,-6.99 -59,4.55 -13.44,8.31 -18.98,21.25 -15,36.74 3.61,14.04 14.47,19.39 28.12,18.29 10.8,-0.87 18.04,-7.32 19.49,-18.28 0.89,-6.73 -1.18,-13.76 -9.19,-14.6 -7.35,-0.79 -7.63,5.23 -6.93,10.78 0.79,6.12 -2.22,8.29 -7.87,7.56 -5.08,-0.66 -8.22,-3.62 -8.84,-8.74 -0.97,-7.96 2.97,-13.49 9.17,-17.93 26.13,-18.73 56.6,-5.26 59.86,26.52 3.5,34.05 -19.34,59.27 -53.6,57.99 -48.99,-1.84 -97.96,-4.46 -148.28,-6.81 2.2,-10.92 11.14,-13.95 15.96,-20.17 10.92,-14.14 7.45,-28 -9.53,-33.16 -13.84,-4.2 -27.88,-3.42 -41.95,0.96 -24.49,7.61 -45.25,21.82 -66.22,35.76 -8.18,5.43 -16.25,9.87 -26.74,9.5 -49.7,-1.78 -99.42,-3.07 -149.13,-4.62 -3.05,-0.09 -6.09,-0.82 -11.53,-1.58 6.21,-7.81 11.61,-13.84 16.16,-20.45 16.52,-24.03 12.81,-50.29 -9.46,-69.17 -21.96,-18.6 -52.67,-18.31 -72.28,0.98 -9.24,9.09 -14.98,19.96 -10.55,33.16 4.19,12.53 13.47,20.42 26.49,23.08 18.03,3.69 33.88,-12.14 30.37,-29.98 -0.91,-4.61 -2.3,-9.68 -7.91,-9.31 -6.63,0.44 -5.6,5.68 -4.42,10.26 2.01,7.8 0.57,14.49 -7.43,17.67 -8.44,3.35 -15.06,-0.78 -20.46,-7 -5.77,-6.64 -6.14,-13.82 -1.56,-21.41 9.18,-15.22 32.64,-21.31 49.98,-12.83 20.43,9.98 30.33,31.19 22.03,49.49 -9.65,21.26 -26.2,33.27 -50.22,32.93 -33.58,-0.48 -67.15,-1.33 -100.73,-1.89 -15.95,-0.27 -31.97,-1.31 -51.51,2.06 12.63,9.28 24.12,9.63 35.13,10.42 25.77,1.84 51.66,2.2 77.36,4.69 33.73,3.27 62.68,15.91 78.87,48.1 9.07,18.02 4.83,34.98 -9.79,44.54 -14.51,9.49 -35.54,6.36 -47.77,-7.06 -4.57,-5.01 -7.59,-10.77 -6.3,-17.57 1.68,-8.81 7.75,-13.67 16.57,-12.97 8.16,0.64 13.36,4.95 10.39,14.38 -1.47,4.69 -2.14,9.57 4.36,10.27 5.34,0.59 7.9,-3.72 9.15,-8.28 3.41,-12.45 -0.6,-21.99 -12.68,-26.69 -11.85,-4.61 -23.14,-2.48 -31.86,7.24 -9.37,10.43 -9.23,22.34 -3.09,34.25 11.05,21.42 41.35,30.93 63.88,20.36 23.35,-10.95 32.01,-35.72 21.97,-60.49 -6.81,-16.82 -20.7,-27.34 -33.27,-38.75 2.35,-4.9 6.01,-3.42 8.83,-3.31 54.2,2.15 108.4,4.69 162.61,6.5 10.67,0.36 17.68,4.21 24.53,12.32 19.77,23.4 42.81,43.02 71.32,55.32 5.33,2.3 10.72,4.88 16.34,5.96 12.25,2.34 25.52,4.02 33.57,-8.06 8,-12.01 1.63,-23.31 -5.31,-34.02 -6.02,-9.3 -15.56,-14.91 -27.23,-25.56 26.6,1.19 48.64,1.9 70.64,3.21 36.11,2.15 72.2,4.44 108.27,7.17 18.12,1.38 38.47,18.4 42.88,34.6 3.98,14.62 -4.34,34.19 -19.42,45.67 -13.35,10.17 -34.08,10.15 -44.92,-0.04 -9.86,-9.28 -8.61,-21.68 3.04,-26.79 6.17,-2.71 13.39,-5.27 12.75,6.31 -0.26,4.62 1.28,7.98 5.81,8.31 5.24,0.38 7.96,-3.72 9.7,-8.06 3.91,-9.77 -3.21,-20.8 -14.96,-22.33 -11.77,-1.54 -21.65,2.79 -28.89,12.22 -7.51,9.79 -7.59,20.49 -1.7,30.89 6.84,12.09 17.91,18.25 31.57,19.77 24.18,2.68 40.84,-9.19 53.22,-28.39 11.94,-18.53 13.13,-37.37 0.23,-56.21 -2.06,-3.03 -5.72,-5.48 -4.18,-12.7 28.9,2.41 58.14,4.67 87.34,7.38 7.71,0.72 11.78,7.5 16.61,12.58 16.1,16.96 33.53,32.22 54.4,43.14 7.47,3.91 15.35,6.7 23.77,7.95 12.15,1.8 23.59,0.54 31.6,-9.82 8.14,-10.52 2.59,-20.89 -2.11,-30.86 -1.88,-3.97 -4.61,-7.54 -7.7,-12.5 7.16,-4.02 14.24,-2.33 20.76,-1.68 29.5,2.97 59.65,0.88 88.43,9.31 34.02,9.96 44.22,45.17 21.29,72.21 -8.63,10.17 -20.22,14.76 -32.9,8.75 -10.93,-5.19 -15.95,-14.88 -12.94,-27.34 1.24,-5.13 3.88,-10.29 9.16,-11.7 7.47,-2.02 4.82,5.55 6.95,8.7 5.87,8.65 10.94,4.5 14.73,-1.69 4.67,-7.61 3.01,-15.22 -3.35,-21.07 -7.62,-7.01 -16.27,-6.87 -24.98,-1.58 -14.39,8.73 -20.89,29.45 -14.45,46.16 6.86,17.82 23.21,27.75 41.13,25.1 20.89,-3.08 33.28,-15.89 39.77,-35.12 7.24,-21.42 7.31,-42.01 -9.04,-59.88 -3.44,-3.77 -7.64,-6.86 -11.59,-10.35 1.27,-7.52 8.51,-7.05 13.01,-9.78 20.58,-12.45 33.79,-29.64 36.34,-54.07 2.62,-25.03 -7.7,-44.3 -28.8,-53.9 -20.48,-9.31 -50.42,-4.46 -65.2,10.56 -16.94,17.22 -14.31,41 5.92,52.55 9.15,5.21 18.62,5.36 27.6,-0.16 7.17,-4.41 10.28,-11.44 9.89,-19.8 -0.25,-5.4 -1.57,-10.77 -8.11,-11.32 -6.07,-0.52 -7.53,4.08 -7.23,9.01 0.35,5.72 -0.32,10.64 -7.16,11.41 -5.81,0.65 -9.62,-2.95 -12.83,-7.26 -3.79,-5.06 -4.71,-10.18 -1.57,-16.18 6.54,-12.5 27.05,-20.65 44.44,-16.3 15.7,3.94 26.47,13.27 27.89,30.54 2.2,26.82 -17.26,54.96 -44.37,57.28 -37.58,3.22 -75.52,1.83 -114.36,-2.62"
         style="fill:#231f20;fill-opacity:1;fill-rule:nonzero;stroke:none"
         transform="matrix(0.13333333,0,0,-0.13333333,0,666.66667)" /><path
         id="path12"
         d="m 1423.31,1360.99 c -13.17,11.21 -23.59,17.75 -29.89,28.28 -5.87,9.81 -10.73,20.07 -4.27,30.87 7.15,11.94 19.69,11.71 31.23,9.37 19.96,-4.05 37.46,-14.12 53.28,-26.59 11.12,-8.77 22.85,-17.66 31.17,-28.83 11.39,-15.3 25.43,-18.36 43.15,-19.36 52.23,-2.95 104.59,-0.49 156.42,-6.66 2.91,8.71 -4,9.79 -7.32,12.66 -8.91,7.71 -16.6,16.18 -21.74,26.9 -11.58,24.12 -5.63,48.19 15.28,61.12 21.5,13.3 50.82,7.73 65.83,-12.83 8.29,-11.36 10.65,-23.71 2.32,-36.03 -7.84,-11.61 -19.43,-14.67 -32.45,-10.99 -13.86,3.92 -20.41,20.02 -13.06,30.78 2.24,3.27 4.87,6.34 9.46,4.58 3.85,-1.47 3.94,-4.96 3.07,-8.11 -1.95,-7.07 -1.51,-13.02 6.52,-15.63 6.98,-2.25 12.78,0.24 17.17,5.72 5.21,6.53 3.71,13.29 -0.14,19.85 -8.83,15.05 -32.02,21.42 -47.95,13.24 -15.92,-8.19 -22.3,-25.23 -14.43,-42.95 15.39,-34.62 45.31,-48.21 80.57,-51.43 31.47,-2.89 63.27,-2.08 94.56,-7.34 4.6,-0.77 10.66,0.42 13.6,-6.95 -6.91,-4.39 -14.69,-3.16 -21.93,-3.06 -41.33,0.51 -82.66,1.31 -123.98,2.16 -20.34,0.42 -36.36,-7.26 -47.7,-24.35 -12.7,-19.13 -9.46,-38.46 8.93,-52.96 16.99,-13.37 40.47,-12.17 54.57,2.92 6.12,6.56 9.96,13.92 4.64,22.68 -4.62,7.64 -11.29,13.3 -20.71,11.01 -10.44,-2.55 -11.82,-10.5 -9.11,-19.87 1.18,-4.1 0.58,-8.17 -4.47,-8.83 -4.66,-0.62 -6.6,3.27 -7.99,6.95 -6.35,16.86 10.69,36.11 29.31,32.67 12.96,-2.39 22.3,-10.02 26.98,-22.52 4.34,-11.61 0.15,-21.64 -7.14,-30.52 -17.2,-21.01 -48.6,-24.03 -71.78,-7.17 -23.66,17.22 -30.09,44.27 -15.52,68.1 4.92,8.03 11.44,15.08 19.17,25.11 -20.13,1.13 -37.85,2.38 -55.6,3.06 -14.84,0.57 -29.83,-0.68 -44.54,0.87 -45.52,4.81 -87.61,0.25 -125.16,-30.61 -16.15,-13.26 -37.96,-19.2 -60.39,-16.22 -10.61,1.41 -21.08,3.62 -25.28,14.82 -4.44,11.84 3.93,19.28 11.41,26.57 3.21,3.12 6.57,6.1 9.52,8.83 -0.57,5.46 -4.33,4.81 -7.25,4.97 -48.36,2.52 -96.73,5.08 -145.1,7.36 -19.45,0.92 -33.69,-8.83 -42.47,-25.13 -9.76,-18.1 -10.78,-37.44 1.15,-55.2 11.99,-17.85 48.37,-15.76 58.9,2.77 2.65,4.68 4.02,9.53 0.97,14.65 -2.23,3.73 -5.68,5.26 -9.78,4.98 -8.42,-0.57 -5.8,-6.27 -5.31,-11.32 0.43,-4.49 -2.04,-7.37 -6.73,-7.51 -4.54,-0.13 -6.92,3.03 -8.63,6.62 -5.18,10.87 3.88,24.92 17.6,26.52 11.93,1.38 21.93,-2.63 27.33,-13.96 6.35,-13.29 3.26,-26.03 -6.92,-35.51 -16.89,-15.73 -37.45,-19.86 -59.43,-12.72 -20.58,6.68 -28.03,23.84 -30.41,43.32 -3.04,24.89 2.08,38.3 23.76,67.02 -28.1,2.23 -54.95,4.3 -81.79,6.53 -6.55,0.53 -10.57,-3.75 -15.4,-6.93 -24.31,-15.99 -49.29,-30.83 -76.92,-40.52 -13.53,-4.73 -27.1,-8.16 -41.533,-2.61 -23.66,9.08 -29.047,27.27 -13.394,47.07 2.343,2.97 5.042,5.66 8.437,9.42 -6.676,4.94 -13.859,4.54 -20.41,4.75 -28.305,0.88 -56.637,1.89 -84.938,1.57 -28.617,-0.31 -51.414,-22.79 -53.656,-51.14 -1.355,-17.19 7.02,-30.49 22.859,-36.31 16.723,-6.14 38.852,-0.53 47.711,11.89 4.192,5.88 5.227,11.8 1.157,17.96 -3.293,4.97 -7.368,9.45 -14.09,8.38 -6.629,-1.06 -7.567,-5.78 -6.598,-11.67 0.875,-5.31 -1.402,-9.14 -7.172,-9 -5.527,0.11 -7.34,4.62 -8.367,9.18 -2.512,11.16 6.098,23.12 18.348,25.48 13.023,2.51 22.547,-3.23 30.054,-13.24 7.723,-10.31 8.692,-21.17 2.504,-32.65 -10.75,-19.96 -38.187,-29.89 -64.691,-23.25 -22.172,5.55 -38.574,27.17 -37.516,50.23 1.535,33.57 20.563,54.45 52.582,68.02 -30.964,22.69 -33.879,50.88 -18.738,82.46 7.695,16.05 21.238,23.9 38.438,25.63 16.695,1.68 32.914,-9.72 38.539,-26.44 5.578,-16.56 -0.594,-36.11 -14.219,-44.8 -7.723,-4.93 -15.652,-5.96 -23.567,-0.49 -6.55,4.52 -8.835,10.95 -7.218,18.62 0.976,4.64 3.519,8.53 8.304,9.88 5.754,1.62 7.938,-1.91 9.317,-6.92 3.691,-13.31 8.762,-5.14 12.168,-0.16 7.437,10.87 4.562,21.07 -4.375,29.54 -10.985,10.41 -23.129,7.41 -33.66,-0.1 -24.59,-17.53 -20.707,-59.69 6.246,-73.19 2.297,-1.15 4.695,-2.23 7.172,-2.89 36.332,-9.72 73.562,-8.43 112.918,-11.21 -4.743,8.81 -8.579,14.65 -11.172,20.99 -8.2,20.05 1.582,35.02 23.3,35.47 14.65,0.31 27.81,-5.16 40.11,-12.68 17.21,-10.51 32.83,-23.13 45.96,-38.36 8.63,-10.03 18.61,-14.91 31.77,-15.51 24.43,-1.11 48.82,-3.14 72.83,-4.77 2.82,6.65 -2.03,9.32 -4.2,12.88 -12.44,20.43 -11.52,39.38 3.13,59.44 15.09,20.68 35.51,29.12 57.09,23.6 18.1,-4.63 30.58,-20.2 28.96,-36.12 -1.4,-13.79 -14.66,-25.72 -29.27,-26.14 -7.49,-0.22 -14.12,1.88 -18.34,8.64 -3.34,5.34 -3.73,11.19 -0.36,16.46 1.56,2.46 4.69,4.69 7.5,5.35 3.64,0.84 6.17,-2.19 6.07,-5.72 -0.35,-13 6.59,-12.39 14.8,-7.77 8.76,4.91 10.89,12.35 5.53,21.26 -8.5,14.13 -33,16.63 -48.57,5.01 -15.35,-11.47 -23.64,-30.56 -19.74,-45.48 4.5,-17.25 24.78,-33.85 44.39,-35.16 46.4,-3.08 92.83,-5.68 139.25,-8.45 11.25,-0.68 22.49,-1.27 39.17,-2.2"
         style="fill:#231f20;fill-opacity:1;fill-rule:nonzero;stroke:none"
         transform="matrix(0.13333333,0,0,-0.13333333,0,666.66667)" /><path
         id="path13"
         d="m 4378.72,3119.07 c -4.91,18.33 -9.54,33.13 -6.91,48.61 2.26,13.36 5.97,27.02 22.41,26.75 15.4,-0.25 18.2,-13.85 21,-26.16 4.11,-17.96 -1.15,-34.67 -6.96,-51.12 -3.69,-10.48 -2.41,-19.16 6.03,-26.15 22.35,-18.52 47.68,-31.86 74.9,-42.54 -9.98,17.61 -21.66,33.69 -25.19,53.7 -2.6,14.77 -4.31,29.52 1.12,43.95 3.33,8.87 9.14,15.92 19.28,17 10.48,1.12 16.79,-5.65 21.61,-13.68 7.89,-13.19 9.62,-27.9 9.62,-42.94 -0.02,-17.42 -0.38,-34.76 3.11,-52.1 3.27,-16.27 11.52,-25.97 27.49,-31.39 88.56,-30.09 179.73,-41.14 272.83,-38.98 49.73,1.15 99.26,7 149.09,5.55 50.13,-1.46 99.29,-7.05 144.54,-30.94 6.46,-3.42 14.89,-4.88 17.22,-13.77 -4.74,-6.13 -9.57,-1.41 -14.11,-0.51 -123.86,24.6 -247.67,37.1 -371.98,1.97 -18.17,-5.13 -28.19,-12.41 -27,-32.82 0.75,-12.72 -1.62,-25.78 -3.87,-38.47 -2.26,-12.77 -8.36,-24.85 -23.22,-23.9 -15.32,0.98 -18.15,13.61 -18.88,26.98 -0.89,16.35 7.5,29.44 16.84,47.36 -28.49,-10.13 -51.14,-21.45 -71.04,-37.71 -9.64,-7.86 -20.14,-13.8 -31.04,-19.46 -12.22,-6.33 -22.97,-4.4 -30.86,6.33 -7.99,10.86 -8.96,22.86 0.58,33.79 11.15,12.78 26.27,18.71 42.28,21.89 11.34,2.25 23.39,4.82 34.57,3.28 33.81,-4.67 59.67,16.12 89.41,27.3 -4.69,0.27 -9.37,0.85 -14.05,0.76 -60.85,-1.2 -121.42,2.35 -181.56,11.68 -11.11,1.73 -17.82,-1.09 -23.81,-10.86 -9.12,-14.84 -20.15,-28.49 -33.52,-39.95 -6.44,-5.53 -13.54,-9.88 -21.88,-12.01 -10.89,-2.78 -20.94,-1.46 -27.82,8.07 -6.62,9.16 -3.59,18.67 2.01,27.16 10.26,15.54 25.9,24.67 44.87,33.74 -14.56,7.35 -27.97,7.53 -40.62,10.27 -6.22,1.34 -8.85,-3.76 -12.26,-7.67 -9.32,-10.7 -18.46,-21.64 -28.6,-31.52 -11.06,-10.79 -24.84,-15.93 -40.53,-15.45 -10.88,0.33 -21.25,2.04 -25,14.02 -3.48,11.11 3.2,18.79 11.57,24.39 13.35,8.92 27.25,17.02 42.42,26.41 -14.71,8.1 -29.86,10.06 -44.56,13.12 -24.84,5.16 -46.6,15.53 -61.95,36.42 -7.9,10.76 -14.15,22.8 -4.11,35.41 9.56,12.01 22.05,8.21 33.74,3.57 18.81,-7.49 36.33,-18.09 50.26,-32.33 33.61,-34.34 74.61,-49.81 121.3,-56.9 53.54,-8.12 106.78,-17.84 165.31,-21.74 -15.46,7.94 -28.21,8.85 -40.33,11.75 -74.44,17.8 -142.8,48.41 -204.34,94.34 -22.3,16.66 -48.24,27.3 -73.38,39.02 -14.79,6.88 -28.89,14.67 -39.17,27.69 -7.24,9.17 -11.32,19.45 -3.41,30.15 7.91,10.71 18.39,7.16 28.12,3.09 21.38,-8.96 37.56,-24.81 53.05,-41.37 6.92,-7.4 13.14,-15.49 25.38,-23.08"
         style="fill:#231f20;fill-opacity:1;fill-rule:nonzero;stroke:none"
         transform="matrix(0.13333333,0,0,-0.13333333,0,666.66667)" /><path
         id="path14"
         d="m 5783.83,2980.39 c 45.57,-0.16 90.13,6.73 134.64,14.02 5.09,0.83 10.14,2.03 15.26,2.7 51.35,6.79 98.9,20.92 136.13,60.64 14.41,15.37 33.53,26.23 54.27,32.87 9.91,3.18 19.4,3.52 26.8,-4.84 7.96,-9.01 6.56,-19.27 1.18,-28.9 -13.97,-24.95 -36.93,-37.19 -63.71,-43.17 -15.59,-3.47 -31.24,-6.45 -48.7,-13.13 15.16,-9.19 28.45,-16.63 41.06,-25.09 9.18,-6.17 18.56,-13.61 14.08,-26.79 -4.36,-12.88 -15.87,-13.54 -27.21,-13.56 -23.78,-0.07 -39.24,14.34 -53.53,30.77 -24.94,28.67 -24.94,28.67 -64.82,14.3 13.3,-9.01 27.78,-14.97 37.71,-26.92 9.09,-10.94 17.35,-23.21 6.34,-36.28 -10.48,-12.44 -24.73,-9.17 -37.24,-2.01 -20.23,11.6 -33.07,30.54 -45.79,49.23 -4.89,7.19 -9.74,10.93 -18.91,9.5 -64.01,-10.01 -128.46,-13.35 -193.19,-12.14 -1.59,0.02 -3.2,-0.92 -5.3,-3.61 27.66,-6.2 49.81,-27.04 81,-24.37 25.79,2.2 51.8,-1.27 74.44,-16.3 12.91,-8.58 20.73,-19.63 14.45,-36.03 -5.51,-14.4 -18.89,-20.27 -32.89,-13.7 -11.05,5.17 -21.67,11.05 -31.37,18.93 -10.45,8.49 -22.21,15.53 -33.99,22.18 -10.58,5.96 -21.96,10.51 -33.88,16.1 -2.59,-8.89 3.38,-13.29 5.85,-18.63 6.19,-13.38 9.22,-27.15 4.33,-41.34 -5.66,-16.46 -21.86,-18.79 -33.1,-5.49 -8.21,9.7 -7.53,21.61 -8.95,33.05 -6.66,53.57 6.77,42.73 -51.51,59.46 -84.15,24.16 -169.18,15.3 -254.14,8.6 -34.04,-2.68 -68.2,-6.33 -100.85,-17.78 -2.16,-0.76 -4.82,-0.1 -7.5,-0.1 -0.79,10.76 7.98,11.65 13.55,14.67 39.49,21.41 82.5,28.99 126.77,31.6 50.48,2.97 100.72,-1.73 151.04,-4.08 97.04,-4.52 192.01,6.35 284.95,35.65 23.3,7.35 34.39,21.12 35.55,44.36 0.67,13.53 0.86,27.09 1.26,40.64 0.41,14.29 1.54,28.53 8.38,41.42 5,9.4 11.59,18.05 23.92,16.1 11.59,-1.84 17.65,-10.57 19.9,-21.27 5.62,-26.65 -0.49,-51.26 -14.6,-74.11 -3.65,-5.89 -7.75,-11.49 -10.48,-18.8 27.92,11.37 54.66,24.39 77.05,45.04 7.31,6.75 6.19,14.55 3.36,23.11 -5.5,16.57 -11.1,33.31 -7,51.17 2.93,12.75 5.83,27.43 22.8,26.34 16.1,-1.04 18.91,-15.28 21.26,-28.34 2.7,-14.95 -3.67,-28.91 -5.9,-44.21 11.73,4.03 17.08,13.31 24.11,20.64 16.14,16.84 32.63,33.28 54.99,41.9 9.47,3.64 19.1,5.73 26.16,-4.35 6.5,-9.26 4.11,-18.56 -1.71,-27.08 -8.66,-12.64 -21,-20.99 -34.65,-27.2 -37.1,-16.87 -72.23,-36.74 -105.89,-60.03 -58.06,-40.17 -123.15,-64.9 -192.06,-79.67 -7.95,-1.71 -15.82,-3.77 -23.72,-5.67"
         style="fill:#231f20;fill-opacity:1;fill-rule:nonzero;stroke:none"
         transform="matrix(0.13333333,0,0,-0.13333333,0,666.66667)" /><path
         id="path15"
         d="m 1241.08,871.371 c 5.32,4.938 4.23,10.301 4.97,15.031 10.74,68.836 82.27,106.688 145.47,77.207 38.18,-17.82 66.17,-46.187 86.89,-82.218 15.16,-26.371 33.96,-48.84 61.26,-63.661 37.47,-20.339 77.11,-12.25 102.02,22.321 17.07,23.668 31.62,48.961 45.39,74.687 19.98,37.332 51.46,59.961 92.12,70.242 67.07,16.96 133.71,-38.371 128.7,-106.718 -2.03,-27.653 -24.24,-54.121 -53.53,-62.864 -22.56,-6.718 -40.89,2.114 -55.16,18.731 -11.29,13.141 -18.79,28.34 -7.75,45.633 7.47,0.277 7.28,-4.653 8.27,-8.59 6.5,-25.742 21.2,-39.473 41.03,-38.301 20.22,1.199 42.97,23.059 46.12,44.32 8.06,54.289 -49.3,103.508 -101.94,87.27 -31.94,-9.859 -56.71,-28.731 -72.86,-58.563 -12.18,-22.488 -25.05,-44.617 -37.62,-66.898 -46.12,-81.789 -134.07,-78.578 -195.48,-11.281 -12.02,13.172 -20.83,28.75 -29.98,44.011 -17.21,28.75 -40.23,51.141 -70.72,65.911 -28.01,13.57 -54.06,9.39 -78.28,-7.86 -24.78,-17.66 -31.39,-43.32 -26.08,-71.89 8.43,-45.36 30.64,-70.532 65.89,-77.059 20.49,-3.793 39.45,7.809 50.46,30.84 9.38,19.637 6.83,30.887 -10.13,44.898 -10.11,8.352 -19.61,12.309 -27.62,-2.679 -4.02,-7.532 -9.87,-13.411 -18.67,-7.141 -7.84,5.609 -5.81,13.609 -2.35,21.199 7.75,17 27.64,25.66 46.72,20.281 33.62,-9.492 53.57,-45.628 43.58,-78.941 -9.92,-33.059 -36.02,-57.019 -65.27,-59.937 -32.43,-3.231 -77.48,21.64 -92.35,51.148 -3.48,6.898 -6.48,14.031 -11.02,23.93 -11.06,-32.489 -32.58,-50.211 -62.66,-57.371 -24.8,-5.879 -48.71,3.132 -60.29,21.621 -10.5,16.75 -8.96,37.691 4.87,55.64 5.8,-8.91 1.47,-18.25 2.58,-26.808 2.91,-22.492 15.21,-32.84 37.63,-30.621 44.92,4.441 63.32,41.488 39.57,79.691 -24.62,39.598 -78.75,47.727 -122.33,18.008 -20.75,-14.141 -37.25,-32.969 -53.91,-51.442 -30.05,-33.296 -66.983,-54.589 -110.495,-64.687 -54.824,-12.731 -111.172,9.059 -140.164,54.039 -31.141,48.309 0.762,116.539 57.961,123.941 38.141,4.95 70.465,-25.589 67.601,-63.859 -1.585,-21.211 -17.628,-39.441 -38.347,-42.871 -12.918,-2.141 -24.09,1.039 -31.106,13.18 -2.679,4.64 -2.699,9.57 0.125,14.199 3.09,5.07 7.914,6.34 12.907,3.75 13.898,-7.199 25.132,-5.801 30.718,10.101 4.535,12.891 -5.343,31.149 -18.882,36.868 -8.161,3.429 -16.711,3.64 -25.098,1.113 -36.942,-11.102 -52.02,-55.59 -28.52,-86.141 24.598,-31.992 57.715,-45.422 97.668,-39.531 38.422,5.672 71.336,23.129 99.562,49.73 16.55,15.61 32.68,31.782 50.26,46.161 64.2,52.55 125.89,46.429 178.27,-17.77"
         style="fill:#231f20;fill-opacity:1;fill-rule:nonzero;stroke:none"
         transform="matrix(0.13333333,0,0,-0.13333333,0,666.66667)" /><path
         id="path16"
         d="m 2956.9,844.102 c 23.99,-29.09 7.01,-75.954 -34.43,-78 -39.88,-1.993 -67.38,17.468 -85.69,60.148 -9.06,-36.25 -29.99,-55.758 -58.38,-68.191 -45.21,-19.789 -85.49,-4.071 -105.09,41.281 -15.62,36.152 -1.85,70.871 34.32,86.582 23.26,10.109 50.91,-2.231 54.5,-24.313 1.11,-6.82 0.29,-13.14 -6.65,-16.339 -6.23,-2.86 -11.34,0.23 -14.47,5.5 -5.42,9.14 -11.07,18.32 -23.1,10.3 -13.25,-8.828 -25.38,-18.929 -20.81,-38.129 4.92,-20.601 22.27,-40.582 40.64,-42.199 25.23,-2.23 46.81,8.52 60.89,28.61 13.5,19.257 20.92,42.05 20.11,66.347 -1.75,52.711 -56.9,85.289 -104.48,62.473 -33.4,-16.024 -57.62,-41.082 -75.62,-72.781 -16.42,-28.922 -37.19,-53.121 -66.46,-70.45 -53.04,-31.449 -111.22,-19.91 -146.41,30.7 -17.51,25.179 -31.62,52.328 -45.93,79.359 -14.28,27.02 -35.9,45.379 -64.27,56.391 -52.59,20.398 -109.13,-16.371 -111.43,-72.641 -1.01,-24.539 16.2,-48.41 39.47,-54.738 21.08,-5.75 40.32,7.929 48.15,34.109 1.29,4.301 -0.77,12.07 6.33,11.301 6.88,-0.742 6.61,-8.192 6.86,-13.82 1.4,-30.954 -36.75,-59.59 -67.23,-50.532 -37.6,11.18 -59.22,45.129 -53.39,83.84 9.29,61.649 71.36,101.72 131.57,85.078 39.76,-10.996 70.02,-33.968 89.35,-70.648 12.96,-24.57 27.09,-48.43 43.06,-71.16 26.42,-37.598 66.66,-45.5 106.82,-22.5 25.7,14.73 43.2,36.429 57.74,61.371 19.36,33.219 45.3,59.199 78.97,78.879 56.16,32.832 146.35,4.129 154.5,-77.391 0.34,-3.48 1.05,-6.93 1.55,-10.148 4.05,-0.789 6.06,1.281 7.49,3.73 30.92,53.141 104.01,61.719 155.96,26.328 24.25,-16.527 44.75,-37.34 65.71,-57.617 28.99,-28.043 63.08,-46.402 103.1,-51.82 39.99,-5.41 73,8.668 97.04,41.109 22.62,30.52 5.48,76.117 -31.26,85.309 -19.12,4.781 -36.06,-4.871 -41.78,-23.469 -2.73,-8.871 -2.2,-16.949 4.45,-23.781 6.21,-6.391 13.65,-7.149 21.51,-3.301 6.9,3.391 14.04,6 17.71,-3.457 3.65,-9.371 -0.88,-16.52 -8.8,-21.703 -18.88,-12.328 -49.31,1.383 -58.4,26.301 -14.44,39.531 21.57,81.992 64.86,76.468 57.26,-7.308 89.25,-75.449 58.14,-123.867 -28.94,-45.031 -85.38,-66.949 -140.14,-54.191 -42.73,9.949 -79.37,30.519 -109.06,63.16 -15.31,16.832 -30.44,33.941 -48.54,47.93 -25.61,19.789 -54.15,27.968 -86.13,19.562 -30.96,-8.16 -47.35,-30.66 -54.44,-59.973 -5.56,-23.007 20.98,-49.199 50.82,-52.218 24.99,-2.532 37.48,10.257 38.24,39.019 0.14,5.492 -1.61,11.219 2.53,18.192"
         style="fill:#231f20;fill-opacity:1;fill-rule:nonzero;stroke:none"
         transform="matrix(0.13333333,0,0,-0.13333333,0,666.66667)" /><path
         id="path17"
         d="m 5424.1,912.27 c 6.55,-13.129 5.04,-26.391 0.07,-38.68 -25.87,-64 -70.62,-78.11 -128.55,-35.129 -41.22,30.578 -47.84,89.988 -19.34,136.609 49.62,81.21 160.12,109.98 243.25,63.12 29.52,-16.64 54.65,-38.768 77.86,-63.331 31.5,-33.32 61.56,-68.308 95.56,-98.89 78.39,-70.5 169.06,-113.43 276.99,-110.969 53.34,1.219 103.31,15.762 148.48,44.539 62.28,39.711 80.51,127.84 39.8,189.68 -22.24,33.801 -66.99,50.221 -101.5,37.231 -42.36,-15.93 -71.74,-60.52 -66.72,-101.02 2.76,-22.282 18.07,-33.391 36.85,-40.86 16.59,-6.601 31.69,-3.308 44.41,9.551 10.68,10.809 17.1,22.508 9.74,38.188 -3.77,8.031 -5.37,17.062 5.01,21.461 9.39,3.992 16.09,-2.11 21.18,-9.231 6.68,-9.328 8.61,-20.019 7.23,-31.328 -4.26,-35.012 -44,-64.629 -78.67,-58.672 -47.08,8.113 -73.46,41.77 -69.69,88.973 4.19,52.518 48.16,101.848 100.18,112.378 46.09,9.35 100.03,-20.24 124.71,-66.781 42.19,-79.57 6.45,-182.14 -65.64,-219.859 -89.11,-46.609 -180.79,-55.559 -275.51,-24.508 -76.55,25.098 -144.41,65.547 -199.03,126.188 -22.91,25.441 -46.63,50.129 -69.79,75.32 -20.17,21.949 -41.33,42.828 -66.35,59.18 -73.78,48.25 -179.66,20.51 -220.69,-57.508 -23.34,-44.371 -4.15,-96.152 42.05,-113.43 25.1,-9.402 42.32,-5.16 61.09,14.309 14.44,14.98 20.11,34.031 27.02,53.469"
         style="fill:#231f20;fill-opacity:1;fill-rule:nonzero;stroke:none"
         transform="matrix(0.13333333,0,0,-0.13333333,0,666.66667)" /><path
         id="path18"
         d="m 4990.54,915.621 c 2.54,-8.789 4.25,-14.891 6.07,-20.973 9.92,-33.226 37.38,-57.828 61.76,-55.359 36.6,3.723 67.89,35.223 70.93,71.25 1.56,18.621 -2.4,35.75 -11.9,51.949 -45.48,77.562 -150.9,100.782 -224.2,48.912 -23.3,-16.478 -43.31,-36.67 -62.67,-57.591 -29.4,-31.758 -58.03,-64.387 -89.29,-94.227 -67.68,-64.582 -148.16,-105.73 -240.86,-119.391 -77.16,-11.371 -150.59,2.801 -218.03,43.289 -77.63,46.629 -101.59,152.961 -51.82,228.83 29.02,44.26 86.19,65.68 131.72,49.36 54.39,-19.49 91.95,-76.01 85.9,-129.272 -3.76,-33.128 -31.14,-60.269 -68.09,-67.468 -29.73,-5.809 -59.34,9.949 -74.85,39.808 -10,19.274 -7.99,42.262 4.94,54.133 5.47,5.02 11.7,8.641 19.2,4.27 6.83,-3.993 6.4,-10.282 4.87,-17.051 -6.41,-28.289 5.45,-49.68 29.73,-54.039 24.2,-4.332 54.99,16.211 59.04,39.398 7.35,42.16 -21.56,88.261 -65.87,105.001 -35.2,13.29 -80.38,-3.82 -102.58,-38.848 -39.86,-62.883 -21.18,-150.622 42.55,-188.911 87.07,-52.312 179.4,-57.312 273.95,-23.019 67.1,24.34 126.58,61.058 175.03,114.5 23.43,25.84 47.92,50.707 71.79,76.16 22.68,24.168 47.55,45.668 76.54,61.938 83.36,46.76 193.66,17.93 243.23,-63.399 34.26,-56.223 14.55,-126.461 -42.4,-151.039 -54.11,-23.352 -106.34,9.316 -109.6,68.82 -0.38,6.649 -2.47,13.996 4.91,22.969"
         style="fill:#231f20;fill-opacity:1;fill-rule:nonzero;stroke:none"
         transform="matrix(0.13333333,0,0,-0.13333333,0,666.66667)" /><path
         id="path19"
         d="m 6120.3,2599.34 c 8.26,15.91 5.73,29.08 -7.95,40.53 -3.25,-14.96 -0.78,-28.04 7.95,-40.53 z m 19.37,-46.67 c -2.05,-18.22 -2.47,-32.11 7.51,-45.15 8.49,17.92 7.54,24.77 -7.51,45.15 z m -478.2,-173.23 c -6.98,-21.03 -11.29,-37.61 -7.8,-55.16 0.81,-4.11 1.09,-9.96 7.09,-9.8 4.44,0.12 5.74,4.84 6.13,8.5 1.89,17.71 3.55,35.47 -5.42,56.46 z m 538.93,230.28 c 18.41,5.68 37.83,7.89 53.28,20.25 4.59,3.69 8.59,9.08 4.86,15.08 -3.48,5.6 -9.24,3.31 -13.79,0.74 -16.71,-9.41 -31.12,-21.75 -44.35,-36.07 z m -283.09,-145.44 c -4.69,-23.6 -5.36,-41.6 1.52,-59.4 1.38,-3.58 3.02,-7.85 7.23,-7.94 4.67,-0.1 5.55,4.68 6.6,8.23 6.09,20.65 0.39,38.51 -15.35,59.11 z m 101.51,77.73 c 8.9,18.68 4.34,34.95 -2.92,50.96 -1.6,3.52 -4.55,6.67 -9.05,5.85 -5.31,-0.98 -7.03,-5.47 -7.34,-10.07 -1.23,-18.08 2.99,-34.02 19.31,-46.74 z m -355.94,-109.24 c 11.99,18.45 14.68,35.25 12.97,52.83 -0.64,6.71 -0.88,15.88 -10.56,15.38 -7.41,-0.38 -9.47,-7.92 -10.2,-14.5 -1.92,-17.28 -0.64,-34.16 7.79,-53.71 z m 249.8,69.49 c 10.46,16.37 11.93,32.37 9.29,49.04 -0.87,5.44 -0.98,12.7 -8.88,12.74 -6.47,0.03 -10.47,-5.18 -12.55,-10.66 -7.15,-18.88 -0.42,-34.63 12.14,-51.12 z m -123.14,-76.25 c -5.84,-18.26 -9.51,-33.7 -3.45,-49.49 2.94,-7.65 6.72,-17.78 16.32,-16.08 10.19,1.8 8.9,12.74 8.34,20.73 -1.13,16.32 -7.6,30.51 -21.21,44.84 z m -276.68,3.97 c 18.41,27.5 16.11,72.84 -4.39,92.73 -6.28,-31.49 -3.52,-61.25 4.39,-92.73 z m 289.38,67.52 c -2.15,9.8 0.67,23.22 -14.19,25.35 -9.78,1.4 -17.82,-13.91 -14.49,-28.72 2.83,-12.52 3.25,-34.44 14.77,-33.37 12.03,1.11 12.21,22.51 13.91,36.74 z m 227.67,12.62 c -6.24,-16.75 -10.19,-32.04 -7.5,-48.29 1.32,-7.95 4.38,-15.86 14.19,-15.3 8.96,0.5 13.66,7.47 14.45,15.68 1.83,19.03 -4.55,34.82 -21.14,47.91 z m -517.14,-133.17 c -9.19,-22.9 -15.13,-46.03 -9.95,-70.73 1.04,-4.94 1.29,-11.73 7.38,-12.28 6.75,-0.61 9.58,5.87 11.43,11.37 8.45,25.09 2.69,48.58 -8.86,71.64 z m -157.58,30.02 c 43.01,-5.09 86.17,-3.62 129.31,-3.76 15.82,-0.05 20.49,3.87 15.85,20.21 -8.56,30.16 -10.49,61.1 -3.16,91.97 1.89,7.99 3.98,17.92 13.84,19.14 11.4,1.42 14.4,-9.03 17.99,-17.19 13.04,-29.61 10.67,-59.12 -0.89,-88.56 -8.78,-22.4 -7.93,-23.98 16.67,-22.2 30.28,2.19 60.44,5.66 90.7,8.14 12.59,1.03 18.59,4.36 14.67,19.2 -4.81,18.11 -5.74,37.13 -1.41,55.72 2.44,10.49 7.68,20.94 20.09,19.93 11.76,-0.95 16.78,-10.97 18.27,-22.06 2.49,-18.58 -2.41,-35.94 -9.86,-52.63 -5.1,-11.43 -1.01,-14.08 9.74,-11.62 26.44,6.02 52.79,12.48 79.34,17.94 12,2.47 12.21,7.72 8.09,17.6 -5.7,13.7 -9.99,28.07 -10.05,43.17 -0.08,18.71 11.05,32.53 25.92,32.74 14.15,0.19 24.7,-11.94 26.36,-30.47 1.52,-17.01 -4.32,-32.72 -11.46,-52.8 32.83,10.17 62.11,19.12 91.31,28.38 8.26,2.62 8.12,8.19 4.98,15.4 -4.1,9.43 -7.26,19.3 -10.43,29.1 -2.2,6.85 -2.37,14.01 -1.25,21.12 2.7,17 13.98,30.18 25.63,30.13 12.02,-0.07 20.27,-12.44 21.41,-32.28 1.01,-17.74 -4.42,-34.18 -13.03,-54.21 30.12,9.32 56.47,18.76 81.96,30.4 9.47,4.32 3.86,10.17 -0.77,15.11 -14.51,15.46 -17.15,34.32 -14.41,54.22 1.35,9.94 5.48,19.21 17.15,20.7 10.4,1.33 17.01,-5.27 21.68,-13.45 11.3,-19.78 10.03,-40.74 1.87,-66.73 29.94,12.39 55.97,22.32 80.1,36.45 8.98,5.27 5.48,12.69 -0.13,19.62 -12.28,15.16 -14.34,32.71 -10.61,51.32 1.45,7.23 3.74,14.4 11.93,16.03 8.88,1.77 14.59,-4.14 18.9,-10.83 8.49,-13.16 9.27,-27.84 7.96,-42.98 -0.53,-6.18 -5.02,-12.26 -0.55,-19.32 15.4,2.31 26.66,11.42 36.76,22.58 17.48,19.3 37.29,35.96 60.25,48.2 10.97,5.84 24.13,13.79 34.48,-0.96 7.22,-10.29 0.8,-27.13 -13.53,-36.4 -18.02,-11.65 -38.83,-17.36 -58.45,-25.58 -5.95,-2.49 -12.17,-4.35 -18.14,-6.8 -26.82,-11.06 -26.93,-11.15 -16.16,-36.76 5.78,-13.77 5.48,-27.77 2.21,-41.85 -1.84,-7.89 -6.1,-14.66 -14.79,-16.22 -9.74,-1.74 -15.74,4.31 -20.28,11.87 -9.29,15.44 -8.21,33.39 -11.2,50.88 -23.39,-6.03 -43.98,-16.84 -65.4,-25.51 -8.22,-3.32 -9.05,-7.27 -3.66,-14.33 9.59,-12.59 15.45,-26.87 15.43,-43 -0.03,-18.27 -13.66,-34.22 -29.56,-35.02 -14.95,-0.76 -25.53,10.99 -28.6,30.72 -2.1,13.48 1.79,26.83 0.83,42.21 -24.84,-9.05 -48.31,-17.75 -71.9,-26.11 -10.34,-3.66 -6,-9.21 -2.52,-14.86 12.36,-20.1 18.2,-41.3 10.94,-64.71 -2.74,-8.86 -5.84,-17.94 -16.82,-18.86 -11.41,-0.97 -17.52,6.84 -21.88,16.02 -8.35,17.58 -8.42,36.34 -6.82,55.12 0.81,9.51 0.2,15.16 -11.93,11.3 -25.21,-8.04 -50.58,-15.69 -76.09,-22.71 -10.58,-2.92 -10.17,-7.26 -4.83,-14.86 11.4,-16.24 18.89,-33.96 16.99,-54.31 -1.11,-11.99 -4.14,-23.85 -17.94,-26.92 -13.6,-3.04 -21.74,6.14 -28.22,16.2 -10.42,16.15 -11.79,34.26 -7.72,52.33 3.42,15.18 -1.52,16.16 -14.55,12.8 -23.11,-5.95 -46.53,-10.96 -70.07,-14.95 -12.38,-2.09 -16.45,-5.89 -12.74,-18.89 5.32,-18.61 9.05,-37.79 7.79,-57.37 -0.49,-7.66 -1.79,-15.42 -3.9,-22.8 -2.07,-7.21 -7.12,-12.66 -15.24,-12.85 -8.01,-0.18 -13.05,4.98 -16.36,11.74 -5.93,12.14 -5.29,25.14 -4.29,38.05 0.48,6.42 2.5,12.76 2.64,19.17 0.28,11.95 12.03,26.1 3.54,34.03 -5.74,5.35 -21.89,-0.33 -33.36,-1.28 -23.18,-1.93 -46.31,-4.95 -69.51,-5.68 -14.97,-0.48 -19.84,-3.81 -13.2,-18.96 7.04,-16.07 10.18,-33.4 9.05,-51.1 -0.45,-7.04 -1.37,-14.25 -3.5,-20.93 -4.29,-13.47 -11.15,-26.6 -27.45,-25.47 -16.03,1.11 -18.74,15.56 -21.38,28.47 -4.66,22.78 -1.81,45.33 5.09,66.95 5.44,17.01 -0.71,19.82 -15.9,19.13 -31,-1.41 -62,-0.22 -92.79,4.39 -10.27,1.53 -20.38,3.16 -29.03,11.24"
         style="fill:#231f20;fill-opacity:1;fill-rule:nonzero;stroke:none"
         transform="matrix(0.13333333,0,0,-0.13333333,0,666.66667)" /><path
         id="path20"
         d="m 4291.27,2597.07 c 10.36,14.64 13.62,27.58 8.69,46.71 -11.2,-16.55 -14.69,-29.45 -8.69,-46.71 z m -16.67,-46.4 c -15.73,-14.73 -17.7,-25.65 -7.75,-44.95 7.92,14.68 10.03,28.82 7.75,44.95 z m 475.95,-170.7 c -5.64,-21.85 -7.73,-38.83 -4.01,-56.13 0.9,-4.17 1.37,-10 7.4,-9.38 4.14,0.42 5.31,5.19 5.83,8.94 2.5,17.96 0.42,35.25 -9.22,56.57 z m -539.66,228.4 c 1.01,1.39 2.03,2.79 3.06,4.19 -13.56,10.3 -26.8,21.04 -40.81,30.7 -5.1,3.52 -12.93,10.07 -17.99,1.01 -4.07,-7.29 2.09,-13.22 8.33,-17.13 14.68,-9.22 31.55,-12.65 47.41,-18.77 z m 179.21,-45.93 c 1.36,-5.68 -2.61,-15.96 5.43,-17.72 7.41,-1.63 10.26,8.21 13.31,14.35 4.02,8.13 6.39,16.89 5.93,26.07 -0.3,5.9 -1.38,12.37 -8.31,13.61 -6.19,1.11 -8.55,-4.64 -10.74,-9.23 -3.94,-8.26 -5.38,-17.13 -5.62,-27.08 z m 98.56,-168.65 c 13.02,22.23 14.21,43.5 7.44,67.41 -20.03,-21.25 -22.88,-44.38 -7.44,-67.41 z m 1.69,147.55 c 0.56,-6.25 0.67,-12.07 1.71,-17.72 1.24,-6.79 1.28,-16.86 8.26,-18.01 8.14,-1.33 8.53,9.36 11.57,15.16 2.98,5.66 4.63,11.99 4.22,18.59 -0.67,10.74 -3.07,23.46 -14.72,23.93 -14.51,0.6 -7.36,-14.55 -11.04,-21.95 z m 260.57,-110.46 c 6.88,22.33 11.57,40.1 6.72,59.06 -1.52,5.91 -4.22,11.79 -11.15,11.41 -6.21,-0.35 -7.42,-6.73 -8.37,-11.66 -3.73,-19.14 0.67,-36.78 12.8,-58.81 z m -126.73,-4.52 c -15.92,-17.62 -23.53,-34.89 -20.74,-55.94 0.59,-4.47 1.64,-9.32 6.85,-10.48 4.99,-1.12 8.41,2.37 11.13,5.99 14.01,18.74 8.67,38.09 2.76,60.43 z m 278.4,94.81 c -17.96,-29.1 -18.83,-58.69 -3.43,-88.84 10.08,29.19 11.1,58.84 3.43,88.84 z m -275.94,-64.94 c 8.95,15.96 14.61,31.29 13.64,48.27 -0.53,9.49 -5.02,18.45 -15.87,18.19 -9.37,-0.22 -11.42,-9.17 -12.12,-16.99 -1.54,-17.5 0.29,-34.2 14.35,-49.47 z m -243.68,53.5 c -15.33,-11.84 -21.15,-26.98 -20.99,-44.28 0.09,-9.45 4.44,-18.64 15.47,-18.86 10.64,-0.23 13.26,9.15 14.14,17.59 1.61,15.52 -1.5,30.35 -8.62,45.55 z m 517.29,-132.7 c -10.19,-22.4 -17.01,-44.75 -9.4,-68.93 1.94,-6.16 4.25,-13.96 11.54,-13.71 8.16,0.26 8.14,8.94 8.86,14.99 2.82,23.38 -0.53,46.01 -11,67.65 z m 158.81,30.4 c -7.98,-8.51 -18.7,-10.02 -29.41,-11.65 -30.13,-4.55 -60.44,-5.25 -90.84,-4.74 -22.12,0.37 -22.23,0.16 -17.21,-20.67 5.36,-22.19 7.92,-44.61 3.72,-67.22 -2.27,-12.24 -6.04,-25.6 -21.19,-26.45 -15.33,-0.87 -22.49,11.09 -26.85,23.83 -8.89,25.92 -3.86,51.23 5.77,75.67 5.14,13.07 1.67,16.11 -11.6,16.9 -31.58,1.87 -63.11,4.89 -94.53,8.54 -11.97,1.39 -15.11,-1.1 -12.2,-13.1 3.49,-14.39 5.46,-29.15 7.75,-43.8 1.42,-9.02 0.84,-18.13 -1.31,-26.96 -2.55,-10.52 -6.94,-20.65 -19.76,-20.18 -12,0.44 -15.62,10.68 -17.19,20.41 -3.67,22.68 -1.62,45.36 5.2,67.07 5.14,16.35 1.39,22.88 -15.96,25.16 -21.06,2.75 -41.76,8.33 -62.56,12.91 -19.18,4.23 -19.25,4.35 -17.26,-14.47 1.72,-16.29 2.07,-32.48 -6.66,-47.09 -6.77,-11.37 -15.1,-22.58 -30.53,-18.54 -14.37,3.76 -16.47,16.54 -17.19,29.38 -1.02,18.28 4.79,34.66 15.48,48.89 8.88,11.85 5.4,15.49 -7.53,18.82 -24.36,6.28 -48.35,14.02 -72.39,21.51 -9.25,2.88 -13.18,1.58 -11.53,-9.36 2.86,-18.8 1.46,-37.47 -5.88,-55.22 -4.1,-9.9 -10.11,-18.79 -22.55,-17.9 -12.15,0.87 -14.85,11.13 -17.4,20.51 -5.95,21.91 -1.93,42.58 10.51,61.08 7.16,10.64 5.31,15 -6.6,18.84 -22.04,7.13 -43.66,15.6 -66.32,23.82 -3.4,-11.94 2.38,-22.43 1.24,-33.17 -1.61,-15.13 -3.43,-30.15 -19.15,-37.63 -9.76,-4.64 -18.98,-1.59 -26.99,5.08 -12.93,10.76 -15.37,24.51 -11.77,40.29 2.5,10.91 6.6,21.05 13.43,29.78 5.49,7.06 6.68,11.71 -3.29,15.51 -18.67,7.1 -37.3,14.39 -55.5,22.57 -9.23,4.14 -11.42,1.08 -11.59,-7.47 -0.27,-12.99 -1.63,-25.84 -7.61,-37.66 -4.26,-8.4 -9.78,-15.97 -20.42,-15.05 -10.85,0.94 -14.62,9.54 -16.84,18.7 -4.13,17.11 -2.85,34.13 7.64,48.27 9.44,12.72 4.25,17.31 -7.45,21.89 -24.64,9.64 -49.05,19.85 -73.59,29.77 -10.3,4.17 -20.15,9.13 -26.85,18.32 -6.58,9.02 -8.89,19.21 -1.96,28.81 6.68,9.27 16.59,6.34 24.81,2.83 26,-11.11 46.98,-29.32 66.23,-49.56 8.07,-8.49 16.3,-16.35 27.04,-21.59 10.91,-5.33 15.86,-4.23 13.02,9.28 -3.26,15.53 -2.99,30.89 4.22,45.43 4.18,8.44 10.07,16.5 20.39,14.97 10.92,-1.62 12.6,-11.77 13.57,-20.97 1.84,-17.23 -0.06,-33.74 -12.1,-47.34 -7.39,-8.36 -6.42,-15.97 2.93,-20.5 24.08,-11.66 48.68,-22.26 76.62,-34.88 -4.04,17.46 -6.56,30.76 -4.49,44.2 0.88,5.69 2.16,11.53 4.48,16.75 4.89,10.96 11.4,21.59 25.6,19.16 13.44,-2.3 15.71,-13.93 16.55,-25.28 1.38,-18.65 -1.48,-36.19 -15.47,-50.12 -5.66,-5.64 -7.58,-11.33 1.12,-15.03 25.25,-10.75 50.77,-20.91 80.51,-29.11 -8.88,20.41 -14.44,38.07 -12.25,57.07 1.53,13.32 4.23,27.72 20.52,28.36 15.3,0.59 21.9,-12.32 24.91,-25.5 4.23,-18.56 -1.46,-35.86 -9.56,-52.35 -4.02,-8.14 -5.31,-14.79 5.44,-18.11 28.73,-8.88 57.47,-17.71 90.23,-27.81 -7.67,19.62 -12.98,35.27 -11.67,52.2 1.5,19.31 12.47,32.11 27.44,31.11 14.55,-0.97 25.8,-15.7 24.79,-33.91 -0.86,-15.59 -5.19,-30.56 -11.23,-44.92 -2.72,-6.45 -2.96,-11.41 4.92,-13.36 31.19,-7.72 62.24,-16.21 96.78,-20.63 -4.25,13.79 -8.15,25.59 -11.51,37.53 -3.2,11.35 -4.3,22.94 -0.48,34.36 2.82,8.44 8.1,15.58 17.48,16.02 9.66,0.45 15.02,-6.85 17.96,-15.12 6.72,-18.93 5.39,-38.46 0.68,-57.32 -3.9,-15.66 -0.54,-22.1 16.39,-23.03 29.63,-1.63 59.14,-5.57 88.75,-7.68 25.09,-1.79 25.35,-0.96 16.4,21.95 -11.74,30.1 -13.72,60.26 -0.3,90.4 3.41,7.65 6.77,16.69 17.19,15.7 9.33,-0.89 11.55,-9.84 13.37,-17.15 7.89,-31.42 6.04,-63.05 -2.33,-93.86 -4.44,-16.4 -0.11,-20.39 15.73,-20.38 43.22,0.03 86.45,-1.43 130.04,4.19"
         style="fill:#231f20;fill-opacity:1;fill-rule:nonzero;stroke:none"
         transform="matrix(0.13333333,0,0,-0.13333333,0,666.66667)" /><path
         id="path21"
         d="m 1226.57,1785.76 c 26.84,-0.05 44.58,11.91 53.19,34.7 -20.46,-7.17 -38.39,-15.13 -53.19,-34.7 z m 239.9,20.05 c -18.43,-7.1 -29.69,-17.66 -42.3,-25.96 -5.01,-3.29 -12.34,-8.2 -7.39,-15.04 4.02,-5.58 12.02,-3.55 17.76,-0.55 15.47,8.1 23.76,22.08 31.93,41.55 z m -261.05,79.56 c 1.23,21.3 -1.25,37.56 -9.83,52.47 -2.73,4.74 -5.77,11.91 -12.4,10.03 -6.96,-1.96 -5.58,-9.62 -4.61,-15.02 3.12,-17.27 10.7,-32.29 26.84,-47.48 z m 453.99,-71.26 c -22.42,0.48 -39.42,-11.94 -56.48,-24.11 -2.97,-2.13 -7.54,-4.37 -6.04,-8.77 1.89,-5.5 7.57,-4.1 11.65,-3.5 22.67,3.34 36.2,20.13 50.87,36.38 z m -325.77,114.29 c 0.73,-28.14 25.14,-58.04 51.09,-64.85 -11.18,26.33 -28.57,45.5 -51.09,64.85 z m -209.24,-57.65 c -25.02,-0.96 -42,-9.11 -55.27,-25.25 -2.52,-3.05 -4.84,-6.84 -2.56,-10.48 2.29,-3.65 6.9,-2.99 10.56,-2.13 20.42,4.78 33.75,18.22 47.27,37.86 z m 619.41,-40.8 c 0.35,24.72 -6.8,46.69 -23.64,65.23 -2.16,2.37 -5.04,4.88 -8.28,2.94 -3.91,-2.35 -2.86,-6.79 -2.2,-10.39 4.21,-23.26 15.94,-42.26 34.12,-57.78 z m -180.57,28.47 c -10.21,23.13 -29.6,36.97 -48.58,51.11 -4.91,3.67 -11.6,9.91 -16.94,4.89 -6.41,-6.05 0.01,-13.44 4.02,-18.66 15.48,-20.19 38.7,-28.21 61.5,-37.34 z m -477.64,62.92 c -4.35,20.33 -7.5,38.52 -12.31,56.25 -2.45,9.05 -9.09,16.85 -19.99,13.86 -10.17,-2.79 -10.34,-12.19 -9.28,-20.82 2.91,-23.89 15.44,-40.1 41.58,-49.29 z m 453.46,-71.83 c -12.41,7.7 -22.43,13.42 -31.91,19.94 -12,8.25 -21.17,19.02 -25.13,33.39 -5.68,20.59 5.52,31.77 26.18,25.96 10.76,-3.02 19.65,-9.73 28.24,-16.59 20.26,-16.19 40.71,-32.44 47.43,-59.33 1.9,-7.6 7.01,-8.16 13,-8.61 9.01,-0.67 18.05,-1.28 27.02,-2.35 17.91,-2.15 36.2,-2.96 53.56,-7.39 17.22,-4.37 33.49,-12.51 52.36,-19.85 -1.45,9.7 -6.89,14.38 -10.68,19.74 -11.75,16.63 -20.13,34.61 -22.89,54.91 -1.2,8.75 -0.01,17.13 8.43,22.07 8.81,5.16 16.61,0.79 22.93,-4.88 20.85,-18.72 31.71,-43.42 32.07,-70.42 0.38,-28.21 11.44,-47.03 34.4,-62.16 18.36,-12.1 33.25,-28.68 45.34,-47.32 4.05,-6.24 8.76,-12.43 8.8,-20.56 -8.29,-1.92 -9.62,4.4 -12.23,8.15 -34.68,49.8 -83.36,79.85 -139.43,99.77 -9.1,3.23 -15.33,2.5 -21.49,-5.94 -10.35,-14.19 -24.06,-25.24 -38.4,-35.25 -11.34,-7.93 -23.79,-13.19 -38.12,-10.8 -8.41,1.39 -17.05,3.32 -20.35,12.54 -3.6,10.06 1.66,17.67 8.99,23.67 11.34,9.26 23.1,18.01 38.24,29.73 -33.19,4.09 -62.61,3.23 -91.65,6.04 -27.14,2.64 -43.55,-4.85 -51.02,-32.27 -3.12,-11.45 -11.19,-21.7 -17.69,-32.07 -5.19,-8.28 -12.39,-14.94 -20.87,-19.92 -16.78,-9.86 -37.53,-7.38 -45.61,5.24 -7.69,12.03 -2.81,27.16 14.01,39.63 15.74,11.67 32.19,22.4 48.33,33.54 -0.41,1.44 -0.81,2.9 -1.22,4.34 -26.17,0 -52.35,-0.02 -78.52,0.03 -5.81,0.01 -11.77,-0.43 -17.41,0.66 -32.17,6.16 -57.83,3.76 -73.85,-32.58 -9.17,-20.78 -31.1,-34.37 -57.17,-33.91 -9.41,0.17 -18.32,1.94 -22.99,11.31 -4.89,9.81 0.54,17.48 6.47,24.55 14.99,17.84 36.22,26.29 56.49,35.72 -2.12,6.74 -7.31,5.82 -11.42,6.58 -32.4,6.01 -64.57,13.14 -95.91,23.35 -10.07,3.27 -16.51,1.91 -23.05,-6.91 -9.6,-12.92 -19.97,-25.39 -33.14,-35.13 -10.09,-7.48 -20.96,-12.56 -33.64,-13.61 -10.82,-0.9 -20.97,0 -27.34,10.23 -6.74,10.81 -3.58,21.24 2.75,30.89 8,12.21 19.14,20.87 32.53,26.62 5.88,2.52 11.79,4.93 20.51,8.57 -20.72,11.66 -41.06,19.49 -56.06,35.94 -12.94,14.19 -19.5,30.11 -20.31,48.87 -0.65,15.18 4.85,27.11 20.15,31.41 16.24,4.57 27.65,-3.75 34.96,-17.47 8.3,-15.59 11.49,-33.14 13.7,-50.25 2.77,-21.58 14.07,-32.98 33.92,-39 16.39,-4.96 31.81,-13.24 51.61,-15.72 -6.93,14.01 -14.08,25.48 -16.99,38.76 -4.65,21.28 0.29,37.95 13.16,42.32 12.57,4.27 27.42,-5.76 36.75,-25.17 8.04,-16.72 11.01,-34.62 8.94,-52.85 -1.47,-12.96 3.16,-18.42 15.66,-20.94 34.86,-7.02 69.88,-12.77 105.31,-15.83 5.39,-0.47 11.32,-2.67 17.72,2.31 -14.12,13.51 -28.07,26.99 -36.11,44.58 -5.98,13.07 -16.99,29.61 -2.03,40.44 14.94,10.82 27.19,-4.61 37.72,-14.53 18.12,-17.08 31.87,-37.28 39.4,-61.3 2.18,-6.94 3.97,-13.32 13.12,-14.49 10.94,-1.4 108.36,0.26 124.43,3.6"
         style="fill:#231f20;fill-opacity:1;fill-rule:nonzero;stroke:none"
         transform="matrix(0.13333333,0,0,-0.13333333,0,666.66667)" /><path
         id="path22"
         d="m 2897.26,1786.51 c -11.3,18.99 -29.26,27.26 -53.75,34.66 14.88,-22.46 29.73,-35.55 53.75,-34.66 z m -236.5,20 c 8.75,-21.2 17.41,-36.36 35.39,-43.39 5.17,-2.02 12.21,-3.4 15.37,2.89 2.75,5.49 -2.47,9.66 -6.52,12.46 -13.03,9.03 -25.23,19.45 -44.24,28.04 z m 262.31,78.11 c 14.81,17.43 24.61,33 26.07,52.75 0.32,4.39 -0.18,9.66 -5.4,10.94 -4.14,1.03 -6.83,-2.89 -8.99,-5.98 -11.38,-16.28 -14.33,-34.33 -11.68,-57.71 z m -456.79,-68.31 c 8.54,-14.91 20.88,-22.78 32.59,-31.19 7.47,-5.38 15.91,-8.44 25.27,-7.41 2.21,0.24 5.04,1.54 6.17,3.27 1.62,2.49 -0.69,4.87 -2.69,6.39 -17.83,13.41 -35.65,26.88 -61.34,28.94 z m 536.92,54 c 13.37,-19.07 26.24,-31.92 45.16,-37.15 4.33,-1.19 9.94,-2.2 12.66,1.7 2.94,4.21 -0.83,8.56 -3.79,11.92 -13.33,15.13 -29.79,23.39 -54.03,23.53 z m -259.84,-8.07 c 28.66,11.68 51.73,41.68 49.29,62.29 -20.39,-12.08 -39.32,-35.51 -49.29,-62.29 z m -359.91,-33.31 c 16.36,15.56 28.97,32.78 33.3,54.88 0.94,4.83 4.39,11.2 -1.06,14.02 -6.71,3.45 -10.01,-3.84 -13.22,-8.07 -13.56,-17.8 -19.79,-38.21 -19.02,-60.83 z m 182.01,28.1 c 10.14,4.96 20.46,9.58 30.38,14.96 13.02,7.06 25.71,14.82 32.82,28.61 2.2,4.26 6.45,9.35 1.56,13.93 -3.89,3.65 -8.75,0.78 -12.32,-1.68 -21.09,-14.48 -41.78,-29.45 -52.44,-55.82 z m 476.24,63.77 c 25.87,10.52 38.98,25.57 41.26,49.01 0.88,9 1.94,19.45 -9.99,21.82 -10.88,2.17 -16.91,-5.9 -19.27,-15.02 -4.45,-17.21 -7.56,-34.78 -12,-55.81 z m -17.81,-31.7 c 8.75,-3.88 15.83,-6.77 22.68,-10.1 14.3,-6.97 26.37,-16.66 33.09,-31.37 8.78,-19.2 -2.18,-35.64 -23.22,-35.43 -22.41,0.24 -41.63,10.49 -52.85,28.07 -18.72,29.31 -40.29,32.18 -70.83,20.26 -24.31,-9.5 -51,-12.9 -76.61,-19.07 -0.45,-0.11 -0.71,-1.04 -1.6,-2.46 15.64,-8.78 33.22,-14.47 46.56,-26.76 10.17,-9.38 23.7,-18.45 15.64,-35.57 -4.89,-10.38 -24.29,-13.81 -40.75,-7.22 -25.23,10.1 -42.46,28.87 -53.32,53.42 -3.68,8.31 -7.15,14.69 -18.09,13.36 -43.07,-5.22 -86.38,-4.25 -129.65,-4.17 -2.39,0.01 -5.26,0.65 -7.9,-4.28 12.09,-8.38 24.47,-16.91 36.79,-25.53 5.29,-3.69 10.92,-7.08 15.55,-11.48 9.74,-9.29 17.85,-19.99 10.2,-34.09 -7.92,-14.57 -22.01,-14.75 -35.73,-11.38 -15.21,3.73 -25.19,14.98 -33.89,27.4 -10.84,15.48 -17.51,33.05 -25.21,50.09 -2.46,5.43 -4.22,10.36 -11.81,10.5 -39.16,0.79 -78.15,-0.88 -122.19,-4.84 14.46,-10.89 25.24,-18.61 35.55,-26.9 8.65,-6.97 18.26,-14.86 12.6,-27.45 -5.62,-12.5 -18.46,-13.58 -30.14,-12.41 -21.93,2.21 -37.24,16.93 -52.37,31 -27.91,25.95 -27.92,26.57 -63,10.54 -45.33,-20.71 -85.29,-48.41 -113.23,-90.95 -2.06,-3.14 -3.78,-6.96 -9.46,-6.96 -3.05,8.51 3,14.39 6.8,20.41 14.73,23.31 34.88,41.45 57.13,57.23 14.25,10.11 20.95,22.77 21.35,40.53 0.64,28.36 8.33,54.97 27.4,76.92 7.22,8.31 15.97,17.04 28.26,11.32 12.74,-5.93 10.19,-18.21 8.27,-29.01 -3.1,-17.46 -10.87,-33.01 -21.17,-47.36 -3.97,-5.53 -7.82,-11.15 -11.79,-16.83 5.86,-3.42 9.24,-0.71 12.55,0.88 36.21,17.38 75.13,22.19 114.51,24.35 11.24,0.62 16.87,2.83 21.83,15.55 12.77,32.72 40.24,52.91 70.75,68.42 8.05,4.1 17.88,4.81 25.51,-2.24 8.03,-7.43 5.14,-16.49 2.31,-25.27 -4.82,-14.96 -15.45,-25.16 -28.03,-33.51 -8.49,-5.63 -17.47,-10.52 -27.52,-16.52 7.17,-5.76 14.34,-3.73 20.78,-3.82 31.64,-0.43 63.3,-0.1 94.93,-0.82 12.33,-0.28 18.42,4.2 22.04,16.28 8.4,28.05 26.09,50.27 48.44,68.64 7.87,6.48 17.42,13.63 28,6.58 11.01,-7.32 6.59,-18.53 3.37,-28.23 -7.73,-23.33 -23.29,-41.25 -43.28,-58.05 8.87,-4.26 16.48,-2.29 23.6,-1.59 34.71,3.44 69.12,8.78 103.25,16.17 10.9,2.36 15.12,7.02 13.95,18.37 -1.54,14.81 -0.73,29.67 4.18,44.05 3.37,9.89 7.84,19.13 15.15,26.73 7.07,7.33 15.32,12.68 25.85,9.01 11.37,-3.96 14.8,-13.99 15.11,-24.8 0.39,-13.11 -3.31,-25.52 -9.05,-37.28 -2.53,-5.18 -5.3,-10.23 -10.42,-20.07 29.5,7.59 54.3,16.08 77.09,29.72 3.42,2.06 4.24,9.09 5.51,14.01 4.67,18.13 8.13,36.61 13.72,54.44 6.19,19.68 22.25,29.98 37.5,26.13 16.19,-4.09 23.18,-18.71 20.37,-40.56 -3.55,-27.6 -20.89,-45.02 -42.82,-58.9 -9.72,-6.16 -20.36,-10.86 -32.24,-17.1"
         style="fill:#231f20;fill-opacity:1;fill-rule:nonzero;stroke:none"
         transform="matrix(0.13333333,0,0,-0.13333333,0,666.66667)" /><path
         id="path23"
         d="m 2466.93,2351.58 c 35.3,-3.37 69.41,-10.92 104.03,-13.97 19.13,-1.68 37.13,1.43 54.45,10.09 38.28,19.16 70.6,45.57 95.59,80.16 17.43,24.13 25.09,51 13.16,80.35 -6.91,17.01 -19.82,24.56 -38.26,23.27 -17.68,-1.22 -28.65,-10.74 -34.17,-26.87 -4.61,-13.47 -2.9,-26.46 9.82,-34.27 11.82,-7.26 20.54,0.29 27.86,9.67 3.05,3.91 6.77,9.45 12.47,4.58 4.52,-3.84 2.92,-9.5 0.62,-14.39 -9,-19.07 -37.55,-23.97 -52.92,-8.92 -13.35,13.08 -16.02,29.23 -11.3,46.52 5.09,18.71 16.92,31.92 35.93,37.23 30.97,8.65 57.37,-5.13 67.59,-35.73 11.19,-33.52 2.48,-63.94 -17.7,-91.29 -26.92,-36.48 -61.05,-64.68 -101.95,-84.49 -4.06,-1.97 -8.2,-3.8 -12.18,-5.93 -0.95,-0.51 -1.38,-1.97 -2.03,-3.01 99.68,-22.28 181.63,-11.3 246.78,74.65 18.81,24.81 26.42,52.86 19.29,84.06 -3.6,15.77 -12.65,25.41 -29.12,26.14 -14.62,0.66 -32.98,-14.09 -35.97,-27.91 -1.63,-7.48 -0.45,-14.36 5.76,-19.3 6.3,-5.01 13.01,-4.18 19.94,-0.6 4.9,2.53 11.01,11.54 15.43,1.4 3.55,-8.1 -4.68,-12.54 -11.02,-15.67 -18.62,-9.21 -39,2.47 -41.45,23.43 -2.58,22.03 15.5,45.28 39.3,50.6 21.76,4.85 42.33,-7.38 49.59,-29.85 14.8,-45.84 -1.07,-83.68 -31.63,-117.14 -19.47,-21.33 -41.71,-39.63 -69.99,-56.61 21.76,-2.33 38.28,2.91 54.89,6.45 43.54,9.3 83.29,27.38 119.53,53.14 26.21,18.63 43.91,43.59 52.92,74.36 10.59,36.17 -1.7,62.77 -35.66,78.5 -5.03,2.33 -9.68,4.69 -8.11,11.16 1.43,5.85 6.34,7.93 11.84,8.14 18.75,0.7 31.99,-9.18 41.93,-23.63 17.19,-24.96 16.68,-52.49 8.35,-80 -11.45,-37.84 -34.29,-67.47 -67.45,-89.33 -76.05,-50.16 -160.61,-63.68 -249.79,-61.03 -79.2,2.34 -156.39,18.1 -234.05,31.04 -53.4,8.89 -105.47,4.56 -156.64,-12.88 -5.28,-1.81 -13.26,-8.7 -16.43,0.01 -2.74,7.52 7.06,9.42 12.44,12.07 33.87,16.68 70.18,25.78 106.86,33.65 40.26,8.64 75.49,27.02 103.75,56.9 23.05,24.37 36.53,53.53 31.63,88.02 -3.02,21.3 -12.3,40.42 -34.18,47.99 -25.85,8.94 -51.32,6.96 -72.89,-11.86 -15.64,-13.65 -16.11,-44.89 -1.97,-60.19 11.48,-12.43 24.55,-10.7 34.76,4.94 3.42,5.24 5.63,13.96 13.68,8.46 6.41,-4.37 2.87,-11.77 -0.4,-17.52 -13.33,-23.41 -43.29,-25.35 -60.04,-3.95 -20.92,26.7 -13.88,68.63 14.61,86.93 27.28,17.54 70.58,17.74 93.74,0.44 24.07,-17.97 35.67,-59.05 26.79,-91.71 -14.66,-53.83 -52.9,-85.49 -100.58,-108.52 -5.74,-2.76 -11.63,-5.2 -17.45,-7.78"
         style="fill:#231f20;fill-opacity:1;fill-rule:nonzero;stroke:none"
         transform="matrix(0.13333333,0,0,-0.13333333,0,666.66667)" /><path
         id="path24"
         d="m 1328.39,2317.96 c -24.32,16.6 -46.43,35.2 -65.99,56.56 -30.1,32.87 -45.78,70.16 -32.23,115.41 6.83,22.8 26.6,35.72 48.59,31.78 23.7,-4.24 42.84,-27.16 41.07,-49.25 -0.94,-11.83 -5.95,-21.38 -17.37,-25.82 -10.97,-4.26 -21.7,-2.84 -30.87,5.03 -4.03,3.46 -7.77,8.04 -3.81,13.35 3.77,5.05 8.18,1.41 11.76,-1.16 8.96,-6.41 18.24,-8.51 25.64,1.18 7.37,9.68 4.24,19.99 -2.95,28.41 -9.14,10.69 -20.34,18.19 -35.51,15.19 -15.87,-3.15 -20.92,-14.94 -24.07,-29.18 -6.16,-27.91 0.99,-52.99 16.77,-75.3 43.9,-62.07 103.43,-93.52 180.45,-88.82 22.97,1.4 46,2.42 70.17,7.43 -3.79,7.75 -10.64,8.58 -15.98,11.22 -40.74,20.12 -75.03,48.26 -101.48,85.08 -22.03,30.67 -30.31,64.38 -12.58,100.21 12.26,24.75 39.05,34.19 66.25,24.91 23.86,-8.13 39.19,-35.13 33.72,-60.66 -3.33,-15.53 -11.84,-27.72 -28.35,-30.85 -14.68,-2.79 -26.59,3.78 -35.35,15.4 -3.94,5.21 -7.13,12.1 -0.07,17.06 5.95,4.18 9.26,-2.03 12.32,-5.82 6.98,-8.68 15.02,-15.4 26.45,-9.55 12.26,6.28 13.93,18.22 11.62,30.23 -3.2,16.68 -12.99,28.07 -30.45,30.86 -17.45,2.79 -32.17,-1.45 -40.91,-18.4 -13.97,-27.1 -8.91,-53.6 6.5,-77.3 28.21,-43.39 67.42,-74.41 115.48,-93.86 9.66,-3.9 20.14,-4.55 30.55,-4.05 37.87,1.82 74.95,11.01 113.43,12.34 -18.41,9.54 -36.63,18.46 -53.56,29.89 -32.94,22.23 -55.44,51.6 -65.64,90.36 -8.34,31.69 3.56,72.05 27.24,89.76 23.16,17.31 66.54,17.1 93.73,-0.44 28.95,-18.67 35.86,-59.79 14.61,-86.92 -17.77,-22.69 -50.96,-18.8 -61.91,7.27 -2.33,5.54 -4.59,11.71 2.52,15.08 6.44,3.06 8.97,-2.4 11.33,-7.2 4.56,-9.27 10.84,-16.72 22.35,-14.86 11.47,1.87 17.27,10.3 20.83,20.71 8.46,24.79 0.42,45.53 -23.08,56.5 -23.81,11.11 -49.05,12.11 -70.01,-3.77 -22.23,-16.87 -29.02,-42.4 -22.77,-69.77 13.38,-58.66 56.12,-89.18 108.46,-108.87 19.21,-7.23 39.96,-10.27 59.91,-15.62 27.46,-7.37 54.75,-15.34 79.88,-29.12 3.8,-2.08 9.08,-4.53 6.27,-10.12 -2.14,-4.23 -6.77,-2.65 -10.37,-1.19 -82.59,33.56 -165.01,15.75 -247.96,0.77 -91.88,-16.59 -184.36,-25.51 -277.25,-6.49 -46.86,9.6 -90.15,28.22 -128.63,56.33 -41.31,30.16 -65.87,70.56 -65.16,123.37 0.29,21.71 8.6,40.3 25.8,54.17 8.23,6.63 17.6,10.83 28.54,10.21 6.3,-0.35 12,-2.65 13.05,-9.3 0.99,-6.24 -4.44,-8.23 -9.42,-10.37 -30.71,-13.16 -43.1,-36.68 -36.74,-69.61 4.92,-25.48 16.43,-48.18 35.16,-65.65 53.2,-49.65 118.47,-70.97 190.02,-76.75"
         style="fill:#231f20;fill-opacity:1;fill-rule:nonzero;stroke:none"
         transform="matrix(0.13333333,0,0,-0.13333333,0,666.66667)" /><path
         id="path25"
         d="m 4833.62,2003.36 c 42.96,-40.58 167.46,-69.79 211.74,-48.46 -67.35,35.82 -134.7,57.22 -211.74,48.46 z m -53.18,7.71 c -59.54,31.76 -122.56,45.03 -188.25,27.77 -56.44,-14.82 -103.14,-50.98 -158.63,-79.24 26.02,-6.28 47.63,-7.65 69.44,-8.57 97.38,-4.09 184.61,39.01 277.44,60.04 z m -464.74,155.62 c -27.64,12.49 -58.13,-7.53 -64.59,-42.05 -3.42,-18.29 1.37,-35.15 11.28,-49.83 31.72,-46.97 70.97,-85.15 126.01,-104.37 13.02,-4.55 24.72,-4.96 37.18,1.47 35.57,18.34 71.71,35.59 107.1,54.3 80.78,42.71 161.81,36.81 242.51,1.12 20.02,-8.86 38.56,-13.83 61.03,-11.28 64.01,7.28 124.37,-8.43 182.19,-35.18 15.49,-7.17 28.52,-17.35 39.02,-33.8 -32.73,-14.07 -66.12,-14.62 -98.98,-9.15 -49.48,8.25 -95.8,26.46 -137.83,54.15 -10.43,6.88 -20.01,6.77 -31.15,4.62 -51.5,-9.96 -100.85,-27.56 -151.05,-42.1 -73.35,-21.24 -147.36,-25.64 -222.11,-9.13 -10.27,2.27 -18.88,0 -28.19,-2.82 -41.59,-12.61 -83.33,-23.25 -127.52,-14.93 -48.39,9.11 -87.7,33.44 -119.44,70.27 -23.82,27.65 -23.6,78.22 -0.56,102.23 17.71,18.48 39.87,17.85 52.58,-1.64 5.59,-8.58 8.33,-17.83 1.99,-27.14 -4.75,-6.95 -11.84,-9.86 -20.3,-8.3 -10.35,1.92 -14.79,9.27 -17.09,18.75 -0.85,3.53 0.66,7.95 -3.38,10.47 -23.9,-21.96 -24.2,-67.94 3.02,-93.47 45.08,-42.27 97.98,-66.91 161.87,-58.13 18.28,2.51 36.63,5.67 54.35,12.9 -3.11,7.99 -10.63,7.59 -15.89,10.53 -51.11,28.63 -95.37,63.73 -118.24,120.32 -16.34,40.43 1.24,72.72 32.53,96.11 17.4,13 49.94,7.13 64.02,-9.19 15.06,-17.45 8.95,-43.69 -12.1,-51.06 -11.49,-4.03 -22.17,-2.53 -28.83,8.66 -6.53,10.95 -0.69,19.53 7,27.48 4,4.12 10.93,4.27 13.57,10.19"
         style="fill:#231f20;fill-opacity:1;fill-rule:nonzero;stroke:none"
         transform="matrix(0.13333333,0,0,-0.13333333,0,666.66667)" /><path
         id="path26"
         d="m 5580.86,1999.98 c -49.36,17.54 -185.07,-14.93 -209.72,-49.52 76.92,-13.07 143.31,12.76 209.72,49.52 z m 47.3,10.38 c 116.86,-26.6 225.48,-80.31 350.68,-50.49 -33.23,18.28 -63.82,33.41 -92.67,51.35 -59.82,37.22 -123.51,41.48 -190.24,26.23 -22.67,-5.17 -43.88,-13.74 -67.77,-27.09 z m 467.32,156.56 c 7.04,-4.79 12.23,-7.5 16.41,-11.33 8.34,-7.64 12.55,-17.08 5.74,-27.58 -6.54,-10.06 -16.81,-11.55 -27.51,-7.93 -11.23,3.81 -18.33,11.91 -20.4,23.75 -2.35,13.33 2.38,24.16 12.82,32.44 21.08,16.71 51.14,14.18 70.35,-4.99 37.14,-37.06 36.58,-76.71 -4.22,-131.7 -13.84,-18.64 -32.24,-33.41 -50.06,-48.4 -17.41,-14.67 -37.49,-24.83 -60.98,-35.22 16.88,-9.53 33.23,-10.98 49.02,-13.9 66.11,-12.19 120.59,12.73 168.12,55.48 22.08,19.86 25.4,47 17.98,75.19 -2.1,8 -5.07,16 -14.38,19.96 -2.15,-6.9 -3.24,-13.91 -6.42,-19.79 -5.35,-9.92 -14.59,-12.7 -24.84,-8.45 -10.21,4.22 -14.49,12.36 -11.88,23.5 5.88,25.08 32.61,33.29 53.21,16.37 27.53,-22.63 29.53,-77.84 2.67,-107.62 -53.01,-58.76 -118.64,-85.01 -196.75,-66.26 -43.09,10.35 -84.11,14.41 -128.72,7.66 -61.1,-9.24 -122.22,0.93 -181.56,19.45 -46.19,14.43 -92.2,29.52 -139.78,39.13 -12.87,2.61 -22.86,0.33 -34.45,-6.49 -61,-35.9 -125.09,-61.96 -198.19,-52.94 -11.81,1.45 -30.43,0.94 -32.11,11.48 -1.74,10.93 13.76,20.46 25.23,26.44 63.35,33.06 130.43,48.78 201.96,40.21 14.2,-1.69 26.37,-0.1 39.01,6.33 58.7,29.88 120.83,41.23 185.94,29.81 36.63,-6.43 69.04,-24.95 101.8,-41.71 25.85,-13.23 50.98,-27.85 77.72,-39.39 10.14,-4.37 19.43,-4.6 29.91,-1.19 57.56,18.74 99.03,57.58 130.55,107.19 20.95,32.96 14.34,62.19 -14.82,88.23 -12.6,11.27 -25.78,9.21 -41.37,2.27"
         style="fill:#231f20;fill-opacity:1;fill-rule:nonzero;stroke:none"
         transform="matrix(0.13333333,0,0,-0.13333333,0,666.66667)" /><path
         id="path27"
         d="m 5248.35,4203.27 c -2.29,-36.72 -8.25,-73.54 -23.13,-108.42 -3.54,-8.3 -7.84,-16.88 -18.93,-16.91 -10.17,-0.02 -14.9,7.67 -18,15.39 -28.88,72.01 -33.06,144.06 0.93,215.87 3.34,7.05 6.18,13.46 16.33,13.76 10.9,0.33 14.41,-6.16 18.24,-13.96 16.26,-33.07 22.57,-68.39 24.56,-105.73"
         style="fill:#231f20;fill-opacity:1;fill-rule:nonzero;stroke:none"
         transform="matrix(0.13333333,0,0,-0.13333333,0,666.66667)" /><path
         id="path28"
         d="m 4968.79,4276.3 c 0.26,9.45 -1.34,15.64 4.18,18.97 7.01,4.23 14.33,1.16 19.35,-3.34 13.25,-11.86 26.14,-24.23 38.14,-37.33 42.98,-46.9 67.37,-103.45 83.46,-164.09 2.54,-9.6 6.57,-20.84 -3.13,-28.13 -11.48,-8.64 -20.5,1.7 -28.81,7.68 -71.82,51.68 -102.1,125.89 -113.19,206.24"
         style="fill:#231f20;fill-opacity:1;fill-rule:nonzero;stroke:none"
         transform="matrix(0.13333333,0,0,-0.13333333,0,666.66667)" /><path
         id="path29"
         d="m 5444.75,4275.75 c -11.19,-80.79 -41.77,-154.66 -113.65,-206.13 -7.87,-5.64 -16.3,-14.71 -26.95,-8.1 -10.62,6.59 -6.99,18.25 -4.65,27.65 19.32,77.78 55.89,145.62 116.71,199.12 6.49,5.71 14.01,10.99 23.02,7.46 7.11,-2.8 5.01,-10.29 5.52,-20"
         style="fill:#231f20;fill-opacity:1;fill-rule:nonzero;stroke:none"
         transform="matrix(0.13333333,0,0,-0.13333333,0,666.66667)" /><path
         id="path30"
         d="m 5573.14,4170.39 c -5.54,-14.17 -10.68,-28.89 -19.57,-41.72 -34.77,-50.22 -84.67,-75.74 -143.29,-86.17 -12.81,-2.28 -19.93,3.7 -14.1,17.58 3.27,7.81 7.26,15.44 11.84,22.57 32.44,50.59 80.61,80.49 135.39,101.03 18.02,6.75 30.51,0.25 29.73,-13.29"
         style="fill:#231f20;fill-opacity:1;fill-rule:nonzero;stroke:none"
         transform="matrix(0.13333333,0,0,-0.13333333,0,666.66667)" /><path
         id="path31"
         d="m 4864.97,4185.66 c 40.85,-14.21 81.52,-35.83 114.52,-69.97 15.09,-15.62 28.6,-32.78 37.08,-53.03 6.12,-14.61 0.88,-22.91 -13.14,-20.2 -72.28,13.99 -130.73,47.06 -159.45,119.34 -6.7,16.9 0,25.88 20.99,23.86"
         style="fill:#231f20;fill-opacity:1;fill-rule:nonzero;stroke:none"
         transform="matrix(0.13333333,0,0,-0.13333333,0,666.66667)" /><path
         id="path32"
         d="m 4788.42,4083.6 c 40.03,-2.43 73.07,-22.8 102.81,-49.98 3.96,-3.61 7.84,-8.01 4.4,-14.16 -3.06,-5.48 -6.26,-10.96 -14.01,-9.91 -38.29,5.18 -77.4,8.09 -108.91,34.32 -8.69,7.22 -22.11,15.07 -18.06,27.31 4.37,13.21 19.91,11.57 33.77,12.42"
         style="fill:#231f20;fill-opacity:1;fill-rule:nonzero;stroke:none"
         transform="matrix(0.13333333,0,0,-0.13333333,0,666.66667)" /><path
         id="path33"
         d="m 5539.36,4010.94 c -11.85,-2.7 -16.43,0.22 -20.26,6.14 -4.44,6.85 -1.74,11.93 3.15,16.33 31.79,28.65 66.53,51.15 111.59,49.7 9.78,-0.32 22.22,-0.81 25.87,-11.52 3.33,-9.81 -6.55,-16.63 -13.17,-22.83 -31.5,-29.5 -71.78,-34.22 -107.18,-37.82"
         style="fill:#231f20;fill-opacity:1;fill-rule:nonzero;stroke:none"
         transform="matrix(0.13333333,0,0,-0.13333333,0,666.66667)" /><path
         id="path34"
         d="m 5250.68,4004.33 c 0.74,-20.83 -23.62,-47.44 -43.59,-47.63 -19.3,-0.19 -42.59,23.72 -43.68,44.85 -0.96,18.5 17.62,34.92 40.92,36.17 23.04,1.24 45.72,-15.09 46.35,-33.39"
         style="fill:#231f20;fill-opacity:1;fill-rule:nonzero;stroke:none"
         transform="matrix(0.13333333,0,0,-0.13333333,0,666.66667)" /><path
         id="path35"
         d="m 5749.31,4050.34 c 7.77,-1.15 19.73,1.98 22.94,-9.21 3.29,-11.48 -8.84,-14.77 -15.92,-20.02 -23.68,-17.57 -50.88,-25.8 -79.79,-29.37 -7.26,-0.9 -14.94,-1.48 -18.58,5.75 -4.54,9 4.88,11.71 9.69,15.81 30.18,25.76 55.51,37.25 81.66,37.04"
         style="fill:#231f20;fill-opacity:1;fill-rule:nonzero;stroke:none"
         transform="matrix(0.13333333,0,0,-0.13333333,0,666.66667)" /><path
         id="path36"
         d="m 4744.73,3991.68 c -38.53,2.01 -69.57,14.86 -97.25,36.25 -4.39,3.39 -8.33,7.46 -6.14,13.75 1.72,4.89 6.19,6.34 10.81,7.64 25.81,7.23 90.74,-19.66 102.76,-44.08 6.36,-12.91 -6,-12.18 -10.18,-13.56"
         style="fill:#231f20;fill-opacity:1;fill-rule:nonzero;stroke:none"
         transform="matrix(0.13333333,0,0,-0.13333333,0,666.66667)" /></g></g></svg>
