<?xml version="1.0" encoding="UTF-8"?>
<!-- Created with Inkscape (http://www.inkscape.org/) -->
<svg width="49.398mm" height="6.9492mm" version="1.1" viewBox="0 0 49.398 6.9492" xml:space="preserve" xmlns="http://www.w3.org/2000/svg"><g transform="matrix(.26458 0 0 .26458 635.99 -51.858)"><g fill="#1e1c1a"><path d="m-2326.5 212.32c-1.132 1.7627-5.2613 3.9733-6.904 1.776-0.36-0.48-0.5413-1.1667-0.2213-1.7067 0.1773-0.29866 0.6093-0.29866 1.0493-0.29866 0.3653 0 0.7347 0 0.9653-0.17067 0.1547-0.11467 0.224-0.26 0.1854-0.45333-0.3094-1.512-2.544-1.0907-3.3467-0.31467-0.9373 0.90933-0.7653 2.412-0.2267 3.4653 0.732 1.428 2.4667 2.092 3.9907 1.9173 2.3693-0.27067 4.0547-1.8627 4.9933-3.9307 0.148-0.32533-0.2866-0.59467-0.4853-0.284"/><path d="m-2294.3 212.41c1.132 1.7627 5.2613 3.9733 6.904 1.776 0.36-0.48 0.5413-1.1667 0.2213-1.7067-0.1773-0.29866-0.6093-0.29866-1.0493-0.29866-0.3653 0-0.7347 0-0.9653-0.17067-0.1547-0.11467-0.224-0.26-0.1854-0.45333 0.3094-1.512 2.544-1.0907 3.3467-0.31467 0.9373 0.90933 0.7653 2.412 0.2267 3.4653-0.732 1.428-2.4667 2.092-3.9907 1.9173-2.3693-0.27067-4.0547-1.8627-4.9933-3.9307-0.148-0.32533 0.2866-0.59467 0.4853-0.284"/><path d="m-2313.2 208.46c-5.6254-0.37867-12.217 0.196-15.048 5.9387-1.9254 3.904 2.028 7.7827 5.7813 7.8293 2.8547 0.0347 6.6453-4.512 3.4293-6.6253-2.028-1.332-7.064-0.12133-5.2466 3.0053 0.34 0.58534 1.144 0.40667 1.352-0.17733 0.2946-0.828 0.3173-1.484 1.3666-1.616 0.816-0.10267 1.908 0.25733 1.74 1.276-0.5546 3.348-4.74 2.3853-6.3893 0.77733-3.0053-2.9307 0.828-6.4827 3.3507-7.9587 2.8133-1.6467 6.504-1.7787 9.664-2.0107 0.28-0.0213 0.2826-0.41867 0-0.43867"/><path d="m-2388.8 212.02c-2.572-1.608-5.4853-2.5627-8.5373-2.3493-2.248 0.15601-5.5267 1.504-6.2387 3.8947-1.1866 3.984 5.1347 6.2227 6.0334 2.1453 0.077-0.34934-0.2414-0.78267-0.6347-0.63467-0.9587 0.364-1.9547 1.0907-3.0027 0.64133-2.2773-0.976 0.5-3.2373 1.5094-3.824 3.1893-1.856 7.48-0.52133 10.673 0.59334 0.2827 0.0973 0.4347-0.31867 0.1973-0.46667"/><path d="m-2308.7 209.45c-3.724-5.1493-10.907-6.324-16.809-7.0333-9.7987-1.1773-19.484 2.3813-28.699 5.1773-5.064 1.5387-10.239 2.7933-15.429 3.8293-4.3147 0.86-9.0027 1.8133-13.417 1.2093-2.832-0.38666-5.6813-1.28-8.124-2.7733-1.4586-0.892-2.6666-2.288-2.2986-4.0933 0.1786-0.88134 0.8973-1.7 1.4586-2.34 0.7854-0.91467 1.812-1.4693 3.084-1.6627 1.3547 0.91733 1.48 1.64 0.3747 2.1693-0.968 0.78934 0.2693 2.2467 1.2947 1.6773 2.1906-1.2173 3.0906-4.6413-0.104-5.3867-3.5294-0.82133-6.6334 1.8293-7.648 5.1187-1.892 6.1307 9.004 8.4987 12.875 8.9293 5.348 0.59467 11.372-0.98933 16.557-2.12 7.1013-1.5493 13.985-3.7933 20.949-5.836 6.436-1.888 13.153-3.3093 19.879-2.5573 5.3546 0.6 11.8 1.9587 15.664 5.996 0.192 0.20133 0.5613-0.0707 0.3933-0.304"/><path d="m-2305.8 208.74c0 6.319-9.6667 6.3206-9.6667 0s9.6667-6.3189 9.6667 0"/><path d="m-2307.6 208.9c2.8534 0.20933 5.6907 0.48933 8.408 1.4333 2.8774 0.99867 7.1054 4.468 5.148 7.8347-1.4146 2.4307-4.9733 3.1133-6.6266 0.62133-0.7307-1.1013-0.071-1.8706 1.0653-1.9786 1.2347-0.11735 1.4053 0.69065 1.736 1.6213 0.2093 0.584 1.012 0.76267 1.352 0.17732 1.7773-3.0573-2.9307-4.1493-4.9587-3.1947-1.4133 0.66533-1.6453 2.3093-1.1986 3.6347 0.6413 1.904 2.4506 2.9667 4.3413 3.18 4.0733 0.45867 7.0733-4.068 5.852-7.664-2.044-6.0093-9.996-6.4493-15.119-6.104-0.2826 0.02-0.2813 0.41734 0 0.43867"/><path d="m-2231.8 212.49c3.0946-1.08 6.276-1.9133 9.5346-1.0573 1.4267 0.37467 4.56 2.1853 3.0854 3.9707-0.908 1.1-2.4427 0.0533-3.4387-0.324-0.392-0.148-0.7107 0.28533-0.6333 0.63467 0.8973 4.0773 7.2186 1.8387 6.032-2.1453-0.7187-2.4147-3.832-3.548-6.0414-3.8693-3.032-0.44-6.204 0.74134-8.7346 2.324-0.2374 0.148-0.087 0.564 0.196 0.46667"/><path d="m-2311.7 209.75c9.5527-9.9813 30.238-4.9455 35.544-3.4387 6.588 1.8707 13.065 3.988 19.739 5.5613 5.6066 1.32 11.967 2.8787 17.768 2.3947 4.5426-0.37999 13.956-2.6907 12.876-8.9293-0.4894-2.8293-4.0654-5.9534-7.0187-5.2653-3.2453 0.75467-3.624 3.928-0.736 5.5333 1.0253 0.56933 2.264-0.888 1.2947-1.6773-0.224-0.18266-0.4494-0.36533-0.6734-0.548 0.6014-2.0973 1.7814-2.2773 3.5427-0.54133 0.7067 0.54532 1.2453 1.328 1.7067 2.0787 1.032 1.68 0.093 3.2493-1.1907 4.3867-2.1827 1.9333-5.5133 2.712-8.3013 3.2293-4.192 0.77866-8.6667-0.16134-12.791-0.88667-5.2347-0.92-10.388-2.3-15.507-3.7187-13.673-3.9328-35.314-11.735-46.645 1.5173-0.1693 0.23333 0.1987 0.50533 0.392 0.30399"/><path d="m-2315 208.74c0 6.3196 9.6654 6.3202 9.6654 0s-9.6654-6.3196-9.6654 0"/></g><g fill="#1e1d1b"><path d="m-2315 209.1c-0.1107-0.0147-0.2147-0.032-0.3094-0.052 0-0.0267 0.1174-0.0387 0.3027-0.0453 1e-3 0.032 0 0.0653 0.01 0.0973"/><path d="m-2313.6 209.18c-0.532 0-1.0253-0.0187-1.4266-0.0733 0-0.032-0.01-0.0653-0.01-0.0973 0.1266-5e-3 0.2826-7e-3 0.452-7e-3 0.1133 0 0.2333 1e-3 0.3533 1e-3 0.1213 1e-3 0.2427 1e-3 0.3587 1e-3 0.2 0 0.3826-1e-3 0.5173-8e-3 0.128 0.0573 0.087 0.0747-0.033 0.0747-0.081 0-0.2-8e-3 -0.3253-0.016-0.124-8e-3 -0.256-0.016-0.364-0.016-0.1254 0-0.22 0.0107-0.2347 0.0453 0.2907 0.0267 0.5933 0.036 0.9 0.036 0.488 0 0.9893-0.0253 1.4747-0.0493 0.4853-0.0253 0.9546-0.0493 1.384-0.0493 0.3506 0 0.6733 0.016 0.9546 0.0627-0.1093-3e-3 -0.224-4e-3 -0.3453-4e-3 -0.5053 0-1.1147 0.024-1.7493 0.0493-0.636 0.024-1.2987 0.0493-1.9094 0.0493"/><path d="m-2310.9 209.53c-0.4573 0-0.944-0.02-1.4013-0.0387-0.456-0.02-0.884-0.04-1.2267-0.04-0.2026 0-0.3746 8e-3 -0.5066 0.0253-0.1747-0.0493 0.1013-0.068 0.56-0.068 0.2653 0 0.592 7e-3 0.9266 0.016 0.456 0.0187 0.932 0.0373 1.2974 0.052 0.3613 0.0187 0.6093 0.0373 0.6106 0.0507-0.085 1e-3 -0.172 3e-3 -0.26 3e-3"/><path d="m-2300.9 218.39c-0.02-9.9e-4 -0.041-9.9e-4 -0.061-3e-3 -0.6747-0.0693 0.1506-0.0733-0.12-0.19866-0.2827 0.0333-0.732 0.0493-1.316 0.0507 0.424 0.0693 0.2666 0.11734 0.045 0.11734-0.1827 0-0.408-0.0333-0.3813-0.11466-0.029 0.012-0.077 0.0227-0.1374 0.0307-0.011-0.0947-0.02-0.18934-0.024-0.284 0.268 0.0293 0.5134 0.0587 0.736 0.0893 0.1907-0.0507 0.4627-0.072 0.7574-0.072 0.1333 0 0.272 4e-3 0.4093 0.012 0.011 0.11733 0.04 0.24133 0.092 0.372"/></g></g><g transform="translate(-3.0999e-6 -1.3229)" fill="#1e1c1a"><path transform="matrix(.26458 0 0 .26458 635.99 -50.535)" d="m-2341.4 204.29c-3.412 0.26533-9.5547 1.4907-10.189-3.5467-0.18-1.4307 1.112-2.5573 2.3386-2.9493 0.5547-0.17867 1.2334-0.16667 1.7054 0.20934 0.9973 0.79199-0.3334 1.5973-0.8334 2.1427-0.3573 0.39066-0.2413 0.88666 0.1534 1.1867 1.0653 0.80934 2.368 0.02 2.8733-1.0693 0.5147-1.1107-0.04-2.4107-0.7613-3.28-1.464-1.7667-4.2094-0.796-5.608 0.464-2.204 1.9867-0.976 4.7693 0.7426 6.548 2.6387 2.728 6.492 1.3027 9.6227 0.62267 0.1827-0.04 0.144-0.34134-0.044-0.328"/><path transform="matrix(.26458 0 0 .26458 635.99 -50.535)" d="m-2356.6 213.72c-0.792 0.84-2.2107 2.556-3.496 2.3653-0.504-0.0747-1.0213-0.38133-1.032-0.93733-0.01-0.412 0.676-0.84 0.804-1.236 0.063-0.19467-0.043-0.388-0.2013-0.49467-0.9747-0.656-2.1534 0.396-2.364 1.34-0.2454 1.0987 0.4666 2.06 1.3826 2.5773 2.5174 1.4213 4.452-1.22 5.5707-3.104 0.2427-0.40934-0.332-0.86267-0.664-0.51067"/><path transform="matrix(.26458 0 0 .26458 635.99 -50.535)" d="m-2350.2 206.67c-3.7133 2.036-6.7213 5.144-6.864 9.5787-0.099 3.0493 2.8413 6.776 6.2173 5.7653 2.3374-0.70132 4.776-3.2746 2.6347-5.4933-2.1107-2.1867-5.984 0.228-4.888 2.9907 0.2093 0.52801 1.0227 0.64 1.1853 0 0.084-1.296 0.9107-1.316 2.4787-0.0573-0.5053 0.532-1.1107 0.89601-1.8147 1.096-3.5373 1.2107-4.628-3.508-4.2906-5.7947 0.4653-3.152 3.3786-5.7013 5.6693-7.66 0.2413-0.20667-0.067-0.56934-0.328-0.42534"/><path d="m32.891 3.5109c0.90276 0.070202 2.528 0.3944 2.6959-0.93839 0.04763-0.37853-0.29422-0.67663-0.61875-0.78034-0.14676-0.047273-0.32634-0.044098-0.45122 0.055388-0.26387 0.20955 0.08821 0.42263 0.2205 0.56691 0.09454 0.10336 0.06384 0.2346-0.04059 0.31397-0.28186 0.21414-0.62653 0.00529-0.76023-0.28293-0.13618-0.29386 0.01058-0.63782 0.20143-0.86783 0.38735-0.46743 1.1137-0.21061 1.4838 0.12277 0.58314 0.52564 0.25823 1.2619-0.19648 1.7325-0.69816 0.72178-1.7177 0.34466-2.546 0.16475-0.04834-0.010583-0.0381-0.090313 0.01164-0.086783"/><path d="m36.91 6.0047c0.20955 0.22225 0.58491 0.67628 0.92498 0.62583 0.13335-0.019764 0.27022-0.10089 0.27305-0.248 0.0026-0.10901-0.17886-0.22225-0.21272-0.32702-0.01667-0.051506 0.01138-0.10266 0.05326-0.13088 0.25789-0.17357 0.56975 0.10478 0.62548 0.35454 0.06493 0.29069-0.12346 0.54504-0.36581 0.68192-0.66606 0.37606-1.1779-0.32279-1.4739-0.82127-0.06421-0.1083 0.08784-0.22825 0.17568-0.13511"/><path d="m35.221 4.1403c0.98248 0.53869 1.7783 1.361 1.8161 2.5344 0.02619 0.8068-0.75176 1.7928-1.645 1.5254-0.61844-0.18556-1.2636-0.86642-0.6971-1.4534 0.55846-0.57856 1.5833 0.060325 1.2933 0.79128-0.05538 0.1397-0.27059 0.16933-0.31361 0-0.02223-0.3429-0.24096-0.34819-0.65582-0.015161 0.13369 0.14076 0.29387 0.23707 0.48014 0.28998 0.93591 0.32032 1.2245-0.92816 1.1352-1.5332-0.12311-0.83397-0.89392-1.5085-1.5-2.0267-0.06384-0.054681 0.01773-0.15064 0.08678-0.11254"/></g></svg>
