<?xml version="1.0" encoding="UTF-8"?>
<!-- Created with Inkscape (http://www.inkscape.org/) -->
<svg width="90" height="90" version="1.1" viewBox="0 0 23.812 23.812" xmlns="http://www.w3.org/2000/svg">
 <g fill="#1e1c1a">
  <path d="m0.47851 21.093c2.798-0.05648 6.8876-0.01809 9.6861-0.01809 2.8265 0 5.6532-0.01158 8.4797 0.02545 0.03414 5.4e-4 0.03414 0.05252 0 0.05298-2.7953 0.03658-5.5908 0.02551-8.3862 0.02551-2.8296 0-6.9504 0.03899-9.7795-0.01813-0.043661-8.02e-4 -0.043661-0.06686 0-0.0677" fill="#1e1c1a"/>
  <path d="m23.469 21.161c-1.7006 0.05651-4.4114 0.01812-6.1123 0.01812-1.718 0-3.436 0.01157-5.1538-0.0255-0.0208-5.41e-4 -0.0208-0.05249 0-0.05297 1.6989-0.03659 3.398-0.02546 5.0969-0.02546 1.7199 0 4.4497-0.03902 6.1691 0.01809 0.02659 8.01e-4 0.02659 0.06685 0 0.06769"/>
  <path d="m0.25455 21.146c0.40458-0.09662 0.64716-0.47535 0.64716-0.47535l-0.004608 0.91267s-0.2134-0.35149-0.64255-0.43733z" fill="#1e1c1a" stop-color="#000000" style="-inkscape-stroke:none;font-variation-settings:normal"/>
  <path d="m23.707 21.131c-0.40458-0.09662-0.64716-0.47535-0.64716-0.47535l0.0046 0.91267s0.2134-0.35149 0.64255-0.43732z" fill="#1e1c1a" stop-color="#000000" style="-inkscape-stroke:none;font-variation-settings:normal"/>
 </g>
</svg>
