<?xml version="1.0" encoding="UTF-8"?>
<!-- Created with Inkscape (http://www.inkscape.org/) -->
<svg width="127.09mm" height="115.11mm" version="1.1" viewBox="0 0 127.09 115.11" xml:space="preserve" xmlns="http://www.w3.org/2000/svg"><g transform="matrix(.26458 0 0 .26458 -61.091 -1070.4)"><g fill="#231f20"><path d="m447.79 4051.8c-77.4 24.787-67.413 98.137-55.973 129.1 11.44 30.965 43.413 68.609 86.2 73.725 0 0-141.91 20.084-160.43-55.813 0 0-20.093 7.42-21.84 23.283 0 0-50.627-10.431-64.853 38.576 9.0667 50.219 62.267 43.012 62.267 43.012 0.093 15.957 19.293 25.419 19.293 25.419 26.293-73.569 164.43-56.939 164.43-56.939-43.08 0.656-75.587 36.593-93.373 64.393-20.387 31.848-25.747 102.31 40.2 134.06 63.653 30.653 112.12-15.265 124.73-40.875 12.613-25.612 20.28-77.525-24.533-99.603-44.813-22.077-71.027-1.172-80.093 17.233-9.0666 18.409-6.1466 40.733 16.267 51.772 22.413 11.04 40.32 2.9533 48.2-13.053 7.88-16.007 5.04-24.369-3.7867-32.695-8.8266-8.3267-16.76-0.3-16.76-0.3 19.871 12.934 13.71 46.523-20.573 29.648-18.339-9.0372-8.7927-67.466 48.426-39.28 62.673 30.877 4.884 151.07-80.72 108.9-73.955-36.426-84.235-187.18 163.44-176.6 0 0-1.8667 19.96 21.333 31.392 21.107 10.392 48.227-4.4853 55.267-32.047h24.587c6.5734 0 11.867-5.4053 11.72-11.977l-0.013-0.236c-0.1333-6.3693-5.3333-11.459-11.707-11.459h-25.107c-6.3067-27.748-25.747-37.551-51.267-31.392-25.16 6.068-24.48 29.013-24.48 29.013-238.36 16.508-219.08-150.18-143.74-178 89.792-33.174 134.11 92.164 66.986 116.96-53.449 19.748-68.604-34.571-42.08-44.376 35.844-13.234 38.505 20.803 17.4 31.621 0 0 7.0533 8.804 16.693 1.4387 9.64-7.368 13.333-15.389 7.16-32.128-6.1866-16.737-23.16-26.636-46.6-17.979-23.427 8.656-28.653 30.56-21.533 49.808 7.1067 19.247 31 42.755 77.867 25.441 46.867-17.313 44.613-69.743 34.72-96.523-9.8934-26.78-44.653-76.919-117.72-53.517"/></g></g></svg>
