<?xml version="1.0" encoding="UTF-8"?>
<!-- Created with Inkscape (http://www.inkscape.org/) -->
<svg width="90" height="90" version="1.1" viewBox="0 0 23.812 23.812" xmlns="http://www.w3.org/2000/svg">
 <g fill="#1e1c1a">
  <path d="m0.59 19.878c-0.078602 0.03886-0.21451 0.10664-0.16324 0.2179 0.010502 0.02286 0.049169 0.02817 0.065088 0.0084 0.023573-0.02943 0.030318-0.06658 0.050646-0.09843 0.020181-0.03168 0.051565-0.06153 0.079628-0.08619 0.023895-0.02083-0.006438-0.0543-0.032115-0.04167"/>
  <path d="m0.58395 19.814c-0.12339 0.02687-0.26769 0.14324-0.25926 0.28279 0.003103 0.05165 0.079967 0.08362 0.10594 0.02866 0.021542-0.04563 0.032888-0.0927 0.058183-0.13701 0.028477-0.04988 0.066522-0.09448 0.11728-0.12192 0.029795-0.01601 0.008684-0.05919-0.022131-0.05251"/>
  <path d="m0.75599 19.807c-0.087068-0.06921-0.22335-0.0071-0.30869 0.03669-0.09447 0.04846-0.22574 0.15437-0.16909 0.27562 0.055357 0.1186 0.16854 0.08118 0.24033 0.0039 0.048319-0.05204 0.087179-0.11322 0.12755-0.17142 0.031124-0.04486 0.070094-0.0908 0.09112-0.14077l-0.011574-0.02043c-0.11776-0.01734-0.27573 0.33708-0.33834 0.30324-0.076244-0.04132 0.10372-0.15635 0.12674-0.16924 0.069358-0.03897 0.15672-0.07525 0.23495-0.0909 0.011013-0.0021 0.016171-0.01914 0.007002-0.02651"/>
  <path d="m0.26599 19.491c0.12305 0.03458 0.24365 0.08063 0.36824 0.10759 0.015927 0.0037 0.029358-0.01601 0.016466-0.0283-0.099626-0.09531-0.24533-0.11634-0.37734-0.13351-0.031673-0.0042-0.036385 0.04612-0.007351 0.05421"/>
  <path d="m0.31615 19.551c0.04954 0.02931 0.1106 0.0359 0.16504 0.05326 0.050683 0.01625 0.098409 0.03377 0.15182 0.02357 0.018709-0.0036 0.019669-0.026 0.010095-0.03809-0.033852-0.04269-0.086076-0.06081-0.1368-0.07648-0.057497-0.01782-0.12306-0.03802-0.18254-0.02085-0.026646 0.0077-0.031794 0.04441-0.007613 0.05858"/>
  <path d="m0.78723 19.628c-0.084276-0.02146-0.16843-0.04998-0.25201-0.07458-0.047617-0.01403-0.096495-0.02779-0.14154-0.04893-0.030138-0.01406-0.049437-0.03896-0.077497-0.05452-0.030023-0.01668-0.076244-0.0032-0.083428 0.03385-0.040988 0.21244 0.43079 0.19915 0.5474 0.19621 0.029545-8.04e-4 0.036652-0.0445 0.007096-0.05204"/>
  <path d="m0.83533 19.648c-0.09281-0.02264-0.19056-0.02472-0.28482-0.04019-0.051886-0.0086-0.29476-0.03288-0.30073-0.10692-0.009069-0.11352 0.32979 0.06157 0.36239 0.07882 0.060254 0.03178 0.2222 0.14976 0.29462 0.1005 0.008496-0.0057 0.010137-0.01451 0.006219-0.02368-0.020446-0.04749-0.10593-0.08213-0.14766-0.10702-0.093148-0.05543-0.19053-0.10549-0.28947-0.14961-0.1208-0.05404-0.28964-0.08914-0.33944 0.07156-0.079402 0.25628 0.56843 0.26512 0.69888 0.23477 0.029098-0.0068 0.028732-0.05118 0-0.05827"/>
  <path d="m0.9413 19.54c-0.047956-0.11183-0.10128-0.2214-0.14689-0.33425-0.037753-0.09336-0.051528-0.21687-0.13382-0.28213-0.019134-0.01518-0.042758-0.0094-0.051706 0.01367-0.039996 0.10316 0.023683 0.2243 0.066447 0.31859 0.054763 0.1208 0.12059 0.22913 0.20869 0.32824 0.029871 0.03369 0.0723-0.0091 0.057273-0.04411"/>
  <path d="m0.96211 19.589c-0.10283-0.10343-0.21827-0.20987-0.27893-0.34464-0.032898-0.07287-0.028286-0.14622-0.011951-0.22242 0.009071-0.04225-0.02224-0.01772-0.015795-0.01124 0.012164 0.01198 0.02053 0.02854 0.028955 0.04329 0.10055 0.17565 0.10807 0.41308 0.24854 0.56423 0.013121 0.01404 0.031122-0.0012 0.028944-0.01692-0.02066-0.14829-0.079034-0.29878-0.13222-0.43889-0.026194-0.06912-0.071745-0.23638-0.16136-0.25027-0.1214-0.01907-0.13444 0.19963-0.12151 0.27215 0.036461 0.20498 0.21753 0.34357 0.38633 0.44231 0.023601 0.01384 0.04821-0.01831 0.028988-0.03765"/>
  <path d="m7.3738 19.488c-0.029319-0.23366-0.3203-0.44268-0.54735-0.43941-0.20065 0.0031-0.32813 0.16689-0.27919 0.35842 0.038854 0.152 0.20951 0.31079 0.37282 0.22291 0.092122-0.04961 0.13719-0.13411 0.091083-0.23226-0.03988-0.08506-0.17085-0.11134-0.23242-0.03986-0.037803 0.04396 0.00907 0.10633 0.061574 0.07985 0.02951-0.01492 0.05421-0.01256 0.074581 0.01633 0.027063 0.03844-0.053651 0.06796-0.074018 0.07448-0.040918 0.01283-0.084675-0.0086-0.11559-0.03415-0.067885-0.05616-0.10401-0.14762-0.081275-0.23399 0.035167-0.13345 0.22299-0.12692 0.32257-0.0927 0.1585 0.05421 0.28871 0.19086 0.37565 0.32898 0.00823 0.013 0.033841 0.0093 0.031587-0.0086"/>
  <path d="m3.6148 19.659c0.04309-0.04583 0.082598-0.09495 0.12644-0.14022 0.049021-0.05042 0.12465-0.07796 0.16803-0.13105 0.012087-0.015 0.00764-0.03482-0.010979-0.04128-0.070905-0.02535-0.15265 0.03439-0.20112 0.0808-0.058459 0.0561-0.1024 0.12946-0.12427 0.20744-0.00657 0.02376 0.024508 0.0428 0.04186 0.02432"/>
  <path d="m1.5286 19.773c-0.17868-0.0459-0.39474-0.1235-0.57411-0.03656-0.15498 0.07515-0.23422 0.22461-0.19892 0.39443 0.03027 0.14593 0.17222 0.2126 0.30758 0.17444 0.14696-0.0415 0.26339-0.23208 0.11002-0.33774-0.020927-0.01445-0.049361-0.01101-0.070614 0l-0.016916 0.0088c-0.025312 0.01302-0.027844 0.04345-0.017451 0.06649 0.01427 0.03176 0.047361 0.04147 0.020579 0.0758-0.031455 0.04031-0.09333 0.05748-0.14107 0.04553-0.075573-0.01893-0.069906-0.14483-0.055978-0.19874 0.063352-0.24564 0.45263-0.1684 0.63093-0.14899 0.025254 0.0029 0.02951-0.03736 0.00594-0.04339"/>
  <path d="m1.5867 20.456c0.2922 0.10071 0.62118 0.03882 0.89076-0.09845 0.020286-0.01035 0.011574-0.04611-0.011814-0.04394-0.2922 0.02817-0.57856 0.07144-0.87218 0.09241-0.028757 0.0019-0.034321 0.04045-0.00667 0.04998"/>
  <path d="m1.5211 20.462c0.069019 0.18361 0.37989 0.15127 0.53236 0.12663 0.29098-0.04686 0.60732-0.20365 0.79505-0.43429 0.014248-0.01772 0.00155-0.04967-0.024044-0.04128-0.22837 0.07382-0.42459 0.21779-0.65692 0.29135-0.2163 0.06855-0.40931 0.0046-0.62128 0.02454-0.015369 0.0012-0.03159 0.01584-0.025175 0.03307"/>
  <path d="m1.9705 20.556c-0.099472-0.01145-0.20225-0.02913-0.30022-0.05016-0.26156-0.05613 0.018568-0.08762 0.087503-0.08655 0.20009 0.0031 0.39149-0.02585 0.58384-0.08195 0.5235-0.15286 0.89509-0.57101 1.2782-0.93281 0.013579-0.01294-0.0037-0.03112-0.018867-0.02434-0.35688 0.16105-0.60232 0.51906-0.95233 0.70735-0.30663 0.16493-0.63532 0.21104-0.97675 0.2134-0.073829 5.41e-4 -0.29041 0.02708-0.22328 0.1565 0.10419 0.20077 0.3417 0.12814 0.52189 0.13098 0.021492 2.67e-4 0.020262-0.03007 0-0.03241"/>
  <path d="m3.2497 20.211c-0.04686 0.17521-0.11598 0.38332-0.015369 0.55068 0.013101 0.02185 0.04328 0.01101 0.045261-0.01227 0.014987-0.17735 0.00596-0.35245 0.02951-0.53038 0.00455-0.03439-0.050728-0.04007-0.059402-0.0081"/>
  <path d="m3.2658 20.291c-0.029605 0.10438-0.052612 0.21185-0.056944 0.32058-0.00179 0.0492-0.011103 0.10232 0.010262 0.14814 0.01698 0.03628 0.078925 0.03628 0.095894 0 0.020549-0.04396 0.012459-0.09363 0.010502-0.14089-0.00417-0.10371-0.00155-0.20471 0.013473-0.30766 0.00679-0.04714-0.059497-0.06854-0.073268-0.02019"/>
  <path d="m3.3363 20.443c-0.00706 0.1322-0.013018 0.26776-0.00585 0.40007 0.00382 0.06957 0.10711 0.07042 0.10862 0 0.00274-0.13286-0.020655-0.26751-0.029127-0.40007-0.00299-0.04734-0.071096-0.04763-0.073639 0"/>
  <path d="m3.2608 20.349c-0.00489 0.08232-0.10532 0.71564 0.12465 0.61694 0.02481-0.01045 0.039032-0.03773 0.023496-0.0625-0.029987-0.04763-0.049128-0.08196-0.059031-0.13956-0.023579-0.13616-0.0024-0.27779-0.00585-0.41488-0.00132-0.05394-0.080046-0.05326-0.083255 0"/>
  <path d="m3.2519 20.349c-0.0093 0.18821-0.0776 0.47182 0.047994 0.63495 0.025071 0.03263 0.081371 0.02546 0.081657-0.02205 5.323e-4 -0.0938-0.029032-0.18718-0.037339-0.28107-0.00967-0.10987-0.011103-0.22168-0.014892-0.33182-0.00179-0.04997-0.074962-0.04969-0.077408 0"/>
  <path d="m3.2358 20.375c-0.043089 0.10684-0.23648 0.66909 0.039511 0.62401 0.033936-0.0055 0.036204-0.04826 0.018388-0.06977-0.052612-0.06315-0.040249-0.17046-0.034976-0.24581 0.00679-0.09645 0.016408-0.19716 0.039605-0.29108 0.010262-0.04166-0.047243-0.05514-0.062515-0.01735"/>
  <path d="m3.5567 19.62c-0.17038 0.24166-0.3038 0.50453-0.33388 0.80268-0.017266 0.17171-0.067408 0.42467 0.00179 0.5881 0.028198 0.06638 0.11551 0.02309 0.12116-0.03293 0.01698-0.16611-0.00382-0.34678-0.00132-0.5148 0.00406-0.28666 0.10438-0.57668 0.24581-0.82345 0.012732-0.02214-0.019426-0.03988-0.033663-0.01961"/>
  <path d="m4.1392 19.225c-0.73216 0.04026-1.0765 0.99561-1.0801 1.6154-0.00132 0.25344 0.24892 0.50802 0.38716 0.18526 0.078637-0.18375 0.018282-0.39996-0.018387-0.58589-0.064116-0.3254 0.045726-0.60857 0.23544-0.86992 0.012732-0.01753-0.012636-0.04316-0.030261-0.03019-0.19471 0.1435-0.32719 0.39422-0.33369 0.63908-0.00382 0.14681 0.024605 0.286 0.05204 0.42968 0.027339 0.1439 0.034044 0.2762-0.028854 0.41244-0.11569-0.01709-0.16595-0.07722-0.15105-0.18047-0.00132-0.03819-0.00113-0.07639 0.00155-0.11448 0.023389-0.59808 0.3566-1.2947 0.97344-1.4474 0.029605-0.0072 0.023759-0.05517-0.00727-0.05348"/>
  <path d="m4.1687 19.219c-0.38385-0.08023-0.7332 0.25006-0.97939 0.49805-0.16482 0.16596-0.31974 0.34076-0.4953 0.4958-0.27325 0.24147-0.60044 0.32596-0.95921 0.33944-0.021968 8.03e-4 -0.027542 0.03338-0.00525 0.03904 0.48814 0.12597 0.91225-0.18107 1.2375-0.51067 0.16538-0.16754 0.32058-0.34408 0.49662-0.50076 0.21366-0.19009 0.42892-0.26855 0.7051-0.31823 0.021493-0.0039 0.020858-0.03832 0-0.04266"/>
  <path d="m4.5576 19.243c-0.37499-0.14332-0.84107 0.18839-1.0213 0.497-0.21649 0.37065 0.031491 0.89793 0.46155 0.9559 0.22865 0.03075 0.72933-0.24135 0.43798-0.50735-0.1866-0.17032-0.63891-0.08703-0.50294 0.22618 0.02395 0.05518 0.12145 0.02847 0.11466-0.03101-0.039319-0.34302 0.62627-0.01838 0.13766 0.16313-0.29531 0.10983-0.54848-0.14269-0.62269-0.40991-0.074306-0.26758 0.15793-0.53167 0.355-0.67284 0.19565-0.14012 0.40441-0.15691 0.63419-0.17838 0.024879-0.0023 0.029127-0.03377 0.00585-0.04273"/>
  <path d="m7.6626 19.727c-0.28975-0.38736-0.6721-0.77064-1.1356-0.93727-0.28881-0.1038-0.67474-0.12784-0.7992 0.21064-0.069593 0.18906 0.04328 0.39903 0.17698 0.52537 0.078172 0.07403 0.2593 0.12777 0.32691 0.01227 0.18773-0.32041-0.39725-0.4691-0.58036-0.49164-0.23733-0.02901-0.85691-0.04193-0.88727 0.31672-0.0093 0.11034 0.077981 0.32209 0.22912 0.28051 0.15671-0.04306 0.057706-0.22618-0.013018-0.29842-0.27995-0.28626-0.84578-0.17178-1.1904-0.1218-0.31059 0.04505-0.61487 0.10917-0.91952 0.18472-0.35528 0.08827-0.70057 0.21638-1.056 0.29956-0.23921 0.05598-0.80563-0.0597-0.62722-0.43035 0.063362-0.13171 0.21074-0.1523 0.33558-0.13351 0.086181 0.01279 0.32634 0.16585 0.083727 0.21572-0.10617 0.02181-0.061478 0.18634 0.044796 0.16258 0.29532-0.06594 0.24384-0.37378 0.018389-0.48305-0.24194-0.1174-0.64299-0.0057-0.65761 0.30946-0.018224 0.39241 0.42095 0.53631 0.74106 0.50453 0.24713-0.02448 0.48088-0.1418 0.71811-0.20829 0.31587-0.08843 0.63221-0.17565 0.95336-0.24316 0.41101-0.08647 0.9247-0.19897 1.335-0.06865 0.054593 0.01927 0.10324 0.04809 0.14606 0.08696-0.10353-0.08684 0.13832-0.20744 0.19235-0.22839 0.06309-0.02442 0.13955-0.02666 0.20574-0.03254 0.19292-0.01699 0.39121-0.0035 0.57772 0.04901 0.092874 0.02622 0.18028 0.07374 0.23393 0.15599-0.027911 0.14658-0.088912 0.16035-0.1832 0.04116-0.099854-0.09297-0.13465-0.24855-0.10522-0.37742 0.058077-0.25414 0.39743-0.20416 0.5779-0.15786 0.50832 0.13042 0.82343 0.5731 1.1948 0.90574 0.032256 0.02876 0.09174-0.01035 0.06309-0.04862"/>
  <path d="m1.7112 19.805c2.798 0.05648 5.5998 0.01809 8.3983 0.01809 2.8265 0 5.6532 0.01158 8.4797-0.02545 0.03414-5.4e-4 0.03414-0.05252 0-0.05298-2.7953-0.03658-5.5908-0.02551-8.3862-0.02551-2.8296 0-5.6626-0.03899-8.4917 0.01813-0.043661 8.02e-4 -0.043661 0.06686 0 0.0677"/>
  <path d="m23.246 19.919c0.02895 0.02539 0.05693 0.05498 0.07967 0.08619 0.02234 0.03075 0.02687 0.06872 0.05073 0.09844 0.01585 0.01977 0.05451 0.01447 0.06497-0.0084 0.05131-0.11127-0.08459-0.17905-0.16322-0.2179-0.02565-0.01264-0.05602 0.02084-0.03216 0.04166"/>
  <path d="m23.262 19.867c0.04781 0.02585 0.07749 0.06395 0.10815 0.10769 0.033 0.04702 0.04318 0.1005 0.06723 0.15123 0.02592 0.05495 0.10288 0.02302 0.106-0.02867 0.0084-0.13956-0.13587-0.25591-0.2593-0.2828-0.03084-0.0066-0.05196 0.03648-0.02205 0.05252"/>
  <path d="m23.119 19.833c0.05545 0.01101 0.47079 0.17621 0.36179 0.26015-0.02931 0.02243-0.14964-0.15587-0.16567-0.17672-0.03933-0.05091-0.09957-0.13728-0.17274-0.12652l-0.01158 0.02043c0.01963 0.04646 0.05592 0.08328 0.08195 0.12681 0.0364 0.06093 0.08136 0.11948 0.12682 0.17399 0.06968 0.08372 0.19169 0.13303 0.25024 0.0076 0.05479-0.11731-0.06534-0.21573-0.15426-0.2677-0.08524-0.04957-0.23412-0.11551-0.32351-0.0446-0.0092 0.0073-0.0041 0.02434 7e-3 0.02652"/>
  <path d="m23.594 19.437c-0.13201 0.01716-0.27768 0.03819-0.37735 0.13352-0.0129 0.01227 5.41e-4 0.03179 0.0165 0.0283 0.12456-0.02695 0.24506-0.07301 0.3682-0.10759 0.02905-0.0082 0.02432-0.05837-0.0073-0.05421"/>
  <path d="m23.544 19.493c-0.05451-0.01566-0.10985 1e-3 -0.16312 0.01518-0.05638 0.01509-0.1188 0.03482-0.15624 0.08213-0.0095 0.01208-0.0088 0.03463 0.01 0.0381 0.05308 0.01 0.10155-0.0068 0.15181-0.02358 0.05439-0.01802 0.11532-0.02395 0.1651-0.05326 0.02406-0.01413 0.01887-0.05084-0.0075-0.05858"/>
  <path d="m23.088 19.68c0.11663 0.0031 0.58837 0.01623 0.54745-0.1962-0.0072-0.03699-0.05346-0.05054-0.08343-0.03386-0.0278 0.01537-0.04856 0.03913-0.0774 0.05452-0.04366 0.02309-0.09476 0.0343-0.14163 0.04893-0.08288 0.02585-0.16802 0.05319-0.25203 0.07458-0.02962 0.0074-0.02247 0.05131 7e-3 0.05204"/>
  <path d="m23.032 19.706c0.15162 0.03525 0.72283 0.03093 0.70105-0.21922-0.01537-0.17584-0.21989-0.13757-0.32926-0.09241-0.09588 0.0396-0.1866 0.09101-0.27721 0.14118-0.04734 0.02611-0.14935 0.0677-0.17217 0.12077-0.0041 0.0092-0.0023 0.0179 6e-3 0.02367 0.06704 0.04556 0.21187-0.0561 0.26806-0.08637 0.06382-0.03439 0.32718-0.20206 0.38452-0.10729 0.04958 0.08184-0.51926 0.14634-0.58111 0.16143-0.02875 7e-3 -0.02913 0.0515 0 0.05827"/>
  <path d="m22.984 19.585c0.08817-0.09912 0.15398-0.20744 0.20866-0.32824 0.04281-0.09429 0.10645-0.21544 0.06649-0.31859-0.0089-0.02309-0.03252-0.02885-0.05166-0.01367-0.07327 0.05808-0.08818 0.15956-0.1189 0.24382-0.0464 0.12711-0.10853 0.24828-0.1618 0.37256-0.015 0.03507 0.02734 0.07779 0.05724 0.04411"/>
  <path d="m22.935 19.627c0.16331-0.09553 0.3303-0.22394 0.38159-0.41565 0.0198-0.07403 0.01339-0.31918-0.11673-0.29882-0.08597 0.01329-0.12842 0.16681-0.15473 0.23293-0.05725 0.14387-0.11757 0.30343-0.13889 0.45624-0.0021 0.01559 0.01585 0.03094 0.02895 0.01693 0.13286-0.14295 0.15699-0.37783 0.24138-0.55057 0.0084-0.01716 0.01829-0.03311 0.02905-0.04877 0.01953-0.0283-0.0166-0.02884-0.01145-0.01113 0.01819 0.06449 0.02217 0.13418 0.0052 0.19896-0.03997 0.1516-0.18679 0.27502-0.29333 0.38224-0.01914 0.01934 0.0055 0.0515 0.02905 0.03765"/>
  <path d="m16.526 19.497c0.08383-0.13315 0.19414-0.238 0.33397-0.31079 0.11088-0.0578 0.28749-0.06866 0.35726 0.05651 0.04423 0.0792-0.0054 0.18387-0.06204 0.24107-0.03084 0.03112-0.06902 0.04877-0.11276 0.04791-0.0877-0.0015-0.11371-0.14368-0.01451-0.09363 0.05252 0.02648 0.09948-0.0359 0.06156-0.07986-0.05987-0.0696-0.17057-0.04603-0.22102 0.02399-0.06881 0.09573-0.01479 0.19716 0.07978 0.2481 0.16896 0.09089 0.32605-0.07452 0.37282-0.22291 0.06412-0.2035-0.09202-0.33726-0.27919-0.35841-0.22375-0.02524-0.5201 0.22177-0.54744 0.43941-0.0019 0.01782 0.02338 0.02158 0.03158 0.0086"/>
  <path d="m20.295 19.635c-0.02072-0.07404-0.061-0.139-0.11259-0.1954-0.0475-0.05204-0.13794-0.11963-0.21271-0.09286-0.01858 0.0064-0.02302 0.0263-0.01101 0.04128 0.03922 0.04818 0.10909 0.07688 0.15595 0.11938 0.05064 0.04611 0.09166 0.10213 0.13842 0.15189 0.01733 0.0185 0.04846-5.4e-4 0.04185-0.02432"/>
  <path d="m19.832 20.651c-0.18764-0.09975-0.51529-0.15492-0.5465 0.1338-0.01567 0.14519 0.11343 0.266 0.25798 0.24401 0.10268-0.01574 0.25524-0.13098 0.1189-0.22195-0.0544-0.03622-0.13342 0.03782-0.09258 0.09267 0.01772-0.03043 0.01699-0.03693-0.0019-0.01951-0.01247 7e-3 -0.02575 0.0122-0.03969 0.01535-0.04338 0.01301-0.09486-0.0086-0.12163-0.04374-0.04686-0.06186 1e-3 -0.15444 0.06402-0.17728 0.10448-0.03779 0.24459-7.4e-5 0.35227 0.01101 0.01848 0.0017 0.02481-0.02599 0.0093-0.03432"/>
  <path d="m22.345 19.817c0.19358-0.02113 0.50049-0.0876 0.61845 0.11793 0.03809 0.0664 0.0297 0.16324-0.02358 0.21793-0.03601 0.03694-0.09703 0.0088-0.13267-0.01024-0.06506-0.03449-0.02687-0.05651-0.0077-0.09919 0.01045-0.02302 0.0081-0.05348-0.01734-0.0665l-0.017-0.0088c-0.0213-0.01101-0.04959-0.01443-0.07062 0-0.14332 0.09884-0.05101 0.27211 0.08306 0.3267 0.15096 0.06157 0.28768-0.0098 0.33454-0.1634 0.04668-0.15259-0.04243-0.30165-0.16878-0.37981-0.1799-0.11145-0.41959-0.02545-0.6043 0.02194-0.02358 0.0059-0.01932 0.04624 0.0059 0.04339"/>
  <path d="m22.274 20.406c-0.29352-0.02096-0.57988-0.06423-0.87218-0.09242-0.02339-0.0019-0.03216 0.03355-0.01193 0.04395 0.26967 0.13728 0.59855 0.19915 0.89076 0.09845 0.02763-0.0095 0.02217-0.0479-0.0066-0.04998"/>
  <path d="m22.321 20.429c-0.19452-0.01831-0.37301 0.03148-0.57376-0.01215-0.2575-0.05603-0.45956-0.2246-0.70444-0.30372-0.02555-0.0084-0.03829 0.02357-0.02394 0.04129 0.18773 0.23064 0.50398 0.38744 0.79496 0.43429 0.15247 0.02464 0.46334 0.05698 0.53245-0.12663 0.0064-0.01723-0.0097-0.03167-0.02525-0.03307"/>
  <path d="m21.897 20.589c0.18019-0.0029 0.4178 0.0698 0.52189-0.13098 0.06818-0.13134-0.15058-0.15299-0.22328-0.1565-0.3499-0.01708-0.65437-0.05535-0.97665-0.2134-0.36066-0.17687-0.59242-0.54489-0.95242-0.70736-0.01507-0.0068-0.03242 0.01145-0.01876 0.02434 0.39451 0.37263 0.75281 0.75318 1.2781 0.93281 0.18613 0.06376 0.3881 0.08644 0.58394 0.08195 0.02358-5.41e-4 0.2229-0.0096 0.18745 0.03457-0.06674 0.08328-0.30229 0.0909-0.40026 0.10213-0.02018 0.0023-0.02141 0.03279 0 0.03241"/>
  <path d="m20.559 20.219c0.02357 0.17793 0.01444 0.35303 0.02942 0.53038 0.0017 0.02329 0.03216 0.03415 0.04535 0.01226 0.1005-0.16736 0.03149-0.37547-0.01548-0.55068-0.0086-0.03205-0.06394-0.02636-0.05932 0.0081"/>
  <path d="m20.529 20.311c0.015 0.10295 0.01765 0.20394 0.01349 0.30766-0.0017 0.04726-0.01 0.09695 0.01045 0.14089 0.01699 0.03628 0.07883 0.03628 0.0958 0 0.0214-0.04584 0.01236-0.09893 0.01024-0.14814-0.0043-0.10873-0.02735-0.2162-0.05694-0.32058-0.01375-0.04837-0.08006-0.02696-0.07318 0.02019"/>
  <path d="m20.458 20.443c-0.0084 0.13256-0.03186 0.26721-0.02905 0.40007 0.0012 0.07042 0.10476 0.06957 0.10853 0 0.0072-0.13231 0.0012-0.26788-0.0057-0.40007-0.0027-0.04763-0.07063-0.04734-0.07373 0"/>
  <path d="m20.524 20.349c-0.0035 0.12917 0.0075 0.2576-0.0028 0.38688-0.0048 0.06148-0.02026 0.11106-0.05715 0.15963-0.01988 0.02611-0.01181 0.05748 0.01838 0.07042 0.23007 0.09871 0.12965-0.53462 0.12465-0.61694-0.0033-0.05326-0.08184-0.05394-0.08317 0"/>
  <path d="m20.538 20.349c-0.0035 0.09654-0.0082 0.1933-0.01227 0.28994-0.0046 0.1088-0.04073 0.21517-0.04007 0.32294 2.67e-4 0.0475 0.05667 0.0547 0.08166 0.02205 0.12559-0.16313 0.05733-0.44674 0.048-0.63495-0.0023-0.04969-0.07562-0.04997-0.07733 0"/>
  <path d="m20.569 20.393c0.02142 0.08684 0.02763 0.17776 0.03724 0.26648 0.0088 0.08044 0.02376 0.20261-0.03273 0.27042-0.01782 0.02152-0.01549 0.06431 0.01847 0.06977 0.27599 0.04508 0.0825-0.51716 0.03941-0.62401-0.01518-0.03779-0.0727-0.0243-0.06243 0.01735"/>
  <path d="m20.277 19.639c0.14219 0.24799 0.23987 0.53594 0.24591 0.82345 0.0036 0.16839-0.01848 0.34829-0.0015 0.5148 0.0057 0.05603 0.09297 0.09929 0.12116 0.03293 0.06978-0.16427 0.01801-0.41535 0.0019-0.5881-0.02754-0.29738-0.16434-0.56235-0.33388-0.80268-0.01433-0.02028-0.0464-0.0027-0.03375 0.01961"/>
  <path d="m19.721 19.279c0.63184 0.1565 0.92988 0.84692 0.97345 1.4474 0.0053 0.07233 0.0014 0.14306-0.01035 0.21488-0.10551 0.12165-0.16491 0.11411-0.17812-0.02272-0.01247-0.06153-0.01518-0.12331-0.0083-0.18537 0.0091-0.16339 0.06174-0.32236 0.07223-0.48652 0.01668-0.2646-0.12588-0.55189-0.33558-0.70651-0.01755-0.013-0.04301 0.01264-0.03017 0.03017 0.16029 0.22091 0.27429 0.46606 0.25515 0.74489-0.01667 0.24213-0.11409 0.45399-0.04394 0.69719 0.08986 0.31152 0.37508 0.1333 0.38951-0.11271 0.03705-0.63199-0.33662-1.6336-1.0767-1.6742-0.03092-0.0015-0.03686 0.04619-0.0072 0.05348"/>
  <path d="m19.699 19.262c0.2575 0.04626 0.45532 0.1152 0.66172 0.28154 0.19764 0.15896 0.36406 0.35573 0.54 0.53745 0.32134 0.33196 0.75262 0.6358 1.2375 0.51067 0.02234-0.0057 0.01668-0.03819-0.0053-0.03902-0.34161-0.01294-0.64616-0.08911-0.91678-0.30372-0.1816-0.14409-0.33605-0.32265-0.49634-0.48916-0.25176-0.26166-0.61902-0.62442-1.0208-0.5404-0.02072 0.0043-0.0214 0.0388 0 0.04267"/>
  <path d="m19.316 19.286c0.4425 0.04141 0.95138 0.22485 0.99778 0.74658 0.02716 0.30549-0.29079 0.58648-0.5829 0.52851-0.13549-0.02702-0.36754-0.22906-0.13644-0.32191 0.11409-0.04592 0.24138 0.0088 0.22582 0.14482-0.0069 0.05948 0.09072 0.0862 0.11457 0.03101 0.12154-0.27974-0.2874-0.4228-0.47513-0.25157-0.30144 0.27525 0.13182 0.57008 0.41016 0.53274 0.40384-0.05451 0.66399-0.53969 0.48625-0.90518-0.16331-0.33594-0.65399-0.69756-1.046-0.54772-0.02319 9e-3 -0.01907 0.04045 0.0058 0.04272"/>
  <path d="m16.268 19.776c0.36612-0.32784 0.66389-0.73138 1.1483-0.89196 0.16755-0.05554 0.36763-0.08693 0.52708 0.0054 0.19103 0.11062 0.09644 0.38641-8e-3 0.51613-0.1305 0.16246-0.22941 0.0057-0.1469-0.08941 0.0379-0.04372 0.10164-0.07163 0.15341-0.09278 0.16407-0.06667 0.35331-0.07175 0.52784-0.06891 0.08014 0.0012 0.1602 0.0095 0.23893 0.02319 0.0577 0.01009 0.09817 0.02799 0.15294 0.05761 0.0364 0.03536 0.07298 0.07061 0.10948 0.1059-0.03046 0.09628-0.01133 0.10607 0.05781 0.02931 0.17368-0.11599 0.43939-0.09291 0.6373-0.08051 0.23063 0.01433 0.46287 0.05458 0.6903 0.09502 0.29324 0.05234 0.58101 0.1338 0.86784 0.213 0.2907 0.08026 0.57517 0.20102 0.87228 0.25308 0.26854 0.04706 0.77818-0.08855 0.76139-0.4491-0.01584-0.34125-0.35066-0.47502-0.64277-0.3698-0.25053 0.09013-0.29306 0.42468 1e-3 0.49031 0.10616 0.02376 0.15096-0.14078 0.04471-0.16258-0.2856-0.05864 0.07524-0.21857 0.16284-0.22309 0.2643-0.01337 0.35208 0.27683 0.18821 0.45296-0.28362 0.30474-0.78515 0.04858-1.1038-0.04893-0.57677-0.1766-1.1811-0.30305-1.7819-0.36076-0.21809-0.02094-0.43666-0.01685-0.64598 0.05282-0.10494 0.035-0.33699 0.17197-0.28966 0.31606 0.08296 0.25252 0.51388-0.14379 0.18179-0.38007-0.28249-0.20102-0.74894-0.16368-1.0612-0.05638-0.11126 0.03818-0.24449 0.12022-0.27844 0.24165-0.03716 0.13321-5.4e-4 0.2541 0.15265 0.24979 0.37131-0.01074 0.47616-0.5913 0.223-0.79903-0.24496-0.20104-0.68152-0.03415-0.91885 0.09675-0.34698 0.19138-0.64994 0.5116-0.88472 0.8257-0.02866 0.03827 0.03084 0.07738 0.063 0.04861"/>
  <path d="m22.406 19.737c-1.7006-0.05651-3.4034-0.01812-5.1043-0.01812-1.718 0-3.436-0.01157-5.1538 0.0255-0.0208 5.41e-4 -0.0208 0.05249 0 0.05297 1.6989 0.03659 3.398 0.02546 5.0969 0.02546 1.7199 0 3.4417 0.03902 5.1611-0.01809 0.02659-8.01e-4 0.02659-0.06685 0-0.06769"/>
  <path d="m0.56807 3.6425c-0.078602-0.03886-0.21451-0.10664-0.16324-0.2179 0.010502-0.02286 0.049169-0.02817 0.065088-0.0084 0.023573 0.02943 0.030318 0.06658 0.050646 0.09843 0.020181 0.03168 0.051565 0.06153 0.079628 0.08619 0.023895 0.02083-0.00644 0.0543-0.032115 0.04167"/>
  <path d="m0.56202 3.7062c-0.12339-0.02687-0.26769-0.14324-0.25926-0.28279 0.0031-0.05165 0.079967-0.08362 0.10594-0.02866 0.021542 0.04563 0.032888 0.0927 0.058183 0.13701 0.028477 0.04988 0.066522 0.09448 0.11728 0.12192 0.029795 0.01601 0.00868 0.05919-0.022131 0.05251"/>
  <path d="m0.73407 3.7133c-0.087068 0.06921-0.22335 0.0071-0.30869-0.03669-0.09447-0.04846-0.22574-0.15437-0.16909-0.27562 0.055357-0.1186 0.16854-0.08118 0.24033-0.0039 0.048319 0.05204 0.087179 0.11322 0.12755 0.17142 0.031124 0.04486 0.070094 0.0908 0.09112 0.14077l-0.011574 0.02043c-0.11776 0.01734-0.27573-0.33708-0.33834-0.30324-0.076244 0.04132 0.10372 0.15635 0.12674 0.16924 0.069359 0.03897 0.15672 0.07525 0.23495 0.0909 0.011013 0.0021 0.016171 0.01914 7e-3 0.02651"/>
  <path d="m0.24406 4.0291c0.12305-0.03458 0.24365-0.08063 0.36824-0.10759 0.015927-0.0037 0.029358 0.01601 0.016466 0.0283-0.099625 0.09531-0.24533 0.11634-0.37734 0.13351-0.031673 0.0042-0.036385-0.04612-0.00735-0.05421"/>
  <path d="m0.29422 3.9691c0.04954-0.02931 0.1106-0.0359 0.16504-0.05326 0.050683-0.01625 0.098409-0.03377 0.15182-0.02357 0.018709 0.0036 0.019669 0.026 0.010095 0.03809-0.033852 0.04269-0.086076 0.06081-0.1368 0.07648-0.057497 0.01782-0.12306 0.03802-0.18254 0.02085-0.026646-0.0077-0.031794-0.04441-0.00761-0.05858"/>
  <path d="m0.7653 3.8927c-0.084276 0.02146-0.16843 0.04998-0.25201 0.07458-0.047617 0.01403-0.096495 0.02779-0.14154 0.04893-0.030138 0.01406-0.049437 0.03896-0.077497 0.05452-0.030023 0.01668-0.076244 0.0032-0.083429-0.03385-0.040988-0.21244 0.43079-0.19915 0.5474-0.19621 0.029545 8.04e-4 0.036652 0.0445 0.0071 0.05204"/>
  <path d="m0.8134 3.8727c-0.09281 0.02264-0.19056 0.02472-0.28482 0.04019-0.051886 0.0086-0.29476 0.03288-0.30073 0.10692-0.00907 0.11352 0.32979-0.06157 0.36239-0.07882 0.060254-0.03178 0.2222-0.14976 0.29462-0.1005 0.0085 0.0057 0.010137 0.01451 0.00622 0.02368-0.020445 0.04749-0.10593 0.08213-0.14766 0.10702-0.093148 0.05543-0.19053 0.10549-0.28947 0.14961-0.1208 0.05404-0.28964 0.08914-0.33944-0.07156-0.079402-0.25628 0.56843-0.26512 0.69888-0.23477 0.029098 0.0068 0.028732 0.05118 0 0.05827"/>
  <path d="m0.91937 3.9798c-0.047956 0.11183-0.10128 0.2214-0.14689 0.33425-0.037753 0.09336-0.051528 0.21687-0.13382 0.28213-0.019134 0.01518-0.042758 0.0094-0.051706-0.01367-0.039996-0.10316 0.023683-0.2243 0.066447-0.31859 0.054763-0.1208 0.12059-0.22913 0.20869-0.32824 0.029871-0.03369 0.0723 0.0091 0.057273 0.04411"/>
  <path d="m0.94018 3.9312c-0.10283 0.10343-0.21827 0.20987-0.27893 0.34464-0.032898 0.07287-0.028286 0.14622-0.011951 0.22242 0.00907 0.04225-0.02224 0.01772-0.015795 0.01124 0.012164-0.01198 0.02053-0.02854 0.028955-0.04329 0.10055-0.17565 0.10807-0.41308 0.24854-0.56423 0.013121-0.01404 0.031122 0.0012 0.028944 0.01692-0.02066 0.14829-0.079034 0.29878-0.13222 0.43889-0.026194 0.06912-0.071745 0.23638-0.16136 0.25027-0.1214 0.01907-0.13444-0.19963-0.12151-0.27215 0.036461-0.20498 0.21753-0.34357 0.38633-0.44231 0.023601-0.01384 0.04821 0.01831 0.028988 0.03765"/>
  <path d="m7.3519 4.0321c-0.029319 0.23366-0.3203 0.44268-0.54735 0.43941-0.20065-0.0031-0.32813-0.16689-0.27919-0.35842 0.038854-0.152 0.20951-0.31079 0.37282-0.22291 0.092122 0.04961 0.13719 0.13411 0.091083 0.23226-0.03988 0.08506-0.17085 0.11134-0.23242 0.03986-0.037803-0.04396 0.00907-0.10633 0.061574-0.07985 0.02951 0.01492 0.05421 0.01256 0.074581-0.01633 0.027063-0.03844-0.053651-0.06796-0.074018-0.07448-0.040918-0.01283-0.084675 0.0086-0.11559 0.03415-0.067885 0.05616-0.10401 0.14762-0.081275 0.23399 0.035167 0.13345 0.22299 0.12692 0.32257 0.0927 0.1585-0.05421 0.28871-0.19086 0.37565-0.32898 0.00823-0.013 0.033841-0.0093 0.031587 0.0086"/>
  <path d="m3.5928 3.8612c0.04309 0.04583 0.082598 0.09495 0.12644 0.14022 0.049021 0.05042 0.12465 0.07796 0.16803 0.13105 0.012087 0.015 0.00764 0.03482-0.010979 0.04128-0.070905 0.02535-0.15265-0.03439-0.20112-0.0808-0.058459-0.0561-0.1024-0.12946-0.12427-0.20744-0.00657-0.02376 0.024508-0.0428 0.04186-0.02432"/>
  <path d="m1.5067 3.747c-0.17868 0.0459-0.39474 0.1235-0.57411 0.03656-0.15498-0.07515-0.23422-0.22461-0.19892-0.39443 0.03027-0.14593 0.17222-0.2126 0.30758-0.17444 0.14696 0.0415 0.26339 0.23208 0.11002 0.33774-0.020927 0.01445-0.049361 0.01101-0.070614 0l-0.016916-0.0088c-0.025312-0.01302-0.027844-0.04345-0.017451-0.06649 0.01427-0.03176 0.047361-0.04147 0.020579-0.0758-0.031455-0.04031-0.093329-0.05748-0.14107-0.04553-0.075573 0.01893-0.069906 0.14483-0.055979 0.19874 0.063353 0.24564 0.45263 0.1684 0.63093 0.14899 0.025254-0.0029 0.02951 0.03736 0.00594 0.04339"/>
  <path d="m1.5647 3.0647c0.2922-0.10071 0.62118-0.03882 0.89076 0.09845 0.020286 0.01035 0.011574 0.04611-0.011814 0.04394-0.2922-0.02817-0.57856-0.07144-0.87218-0.09241-0.028757-0.0019-0.034321-0.04045-0.00667-0.04998"/>
  <path d="m1.4991 3.0587c0.069019-0.18361 0.37989-0.15127 0.53236-0.12663 0.29098 0.04686 0.60732 0.20365 0.79505 0.43429 0.014248 0.01772 0.00155 0.04967-0.024044 0.04128-0.22837-0.07382-0.42459-0.21779-0.65692-0.29135-0.2163-0.06855-0.40931-0.0046-0.62128-0.02454-0.015369-0.0012-0.03159-0.01584-0.025175-0.03307"/>
  <path d="m1.9486 2.964c-0.099472 0.01145-0.20225 0.02913-0.30022 0.05016-0.26156 0.05613 0.018568 0.08762 0.087503 0.08655 0.20009-0.0031 0.39149 0.02585 0.58384 0.08195 0.5235 0.15286 0.89509 0.57101 1.2782 0.93281 0.013579 0.01294-0.0037 0.03112-0.018867 0.02434-0.35688-0.16105-0.60232-0.51906-0.95233-0.70735-0.30663-0.16493-0.63532-0.21104-0.97675-0.2134-0.073829-5.41e-4 -0.29041-0.02708-0.22328-0.1565 0.10419-0.20077 0.3417-0.12814 0.52189-0.13098 0.021492-2.67e-4 0.020262 0.03007 0 0.03241"/>
  <path d="m3.2277 3.3094c-0.04686-0.17521-0.11598-0.38332-0.015369-0.55068 0.013101-0.02185 0.04328-0.01101 0.045261 0.01227 0.014987 0.17735 0.00596 0.35245 0.02951 0.53038 0.00455 0.03439-0.050728 0.04007-0.059402 0.0081"/>
  <path d="m3.2439 3.2289c-0.029605-0.10438-0.052612-0.21185-0.056944-0.32058-0.00179-0.0492-0.011103-0.10232 0.010262-0.14814 0.01698-0.03628 0.078925-0.03628 0.095894 0 0.020549 0.04396 0.012459 0.09363 0.010502 0.14089-0.00417 0.10371-0.00155 0.20471 0.013473 0.30766 0.00679 0.04714-0.059497 0.06854-0.073268 0.02019"/>
  <path d="m3.3144 3.0774c-0.00706-0.1322-0.013018-0.26776-0.00585-0.40007 0.00382-0.06957 0.10711-0.07042 0.10862 0 0.00274 0.13286-0.020655 0.26751-0.029127 0.40007-0.00299 0.04734-0.071096 0.04763-0.073639 0"/>
  <path d="m3.2389 3.1717c-0.00489-0.08232-0.10532-0.71564 0.12465-0.61694 0.02481 0.01045 0.039032 0.03773 0.023496 0.0625-0.029987 0.04763-0.049128 0.08196-0.059031 0.13956-0.023579 0.13616-0.0024 0.27779-0.00585 0.41488-0.00132 0.05394-0.080046 0.05326-0.083255 0"/>
  <path d="m3.23 3.1717c-0.0093-0.18821-0.0776-0.47182 0.047994-0.63495 0.025071-0.03263 0.081371-0.02546 0.081657 0.02205 5.323e-4 0.0938-0.029032 0.18718-0.037339 0.28107-0.00967 0.10987-0.011103 0.22168-0.014892 0.33182-0.00179 0.04997-0.074962 0.04969-0.077408 0"/>
  <path d="m3.2139 3.145c-0.043089-0.10684-0.23648-0.66909 0.039511-0.62401 0.033936 0.0055 0.036204 0.04826 0.018388 0.06977-0.052612 0.06315-0.040249 0.17046-0.034976 0.24581 0.00679 0.09645 0.016408 0.19716 0.039605 0.29108 0.010262 0.04166-0.047243 0.05514-0.062515 0.01735"/>
  <path d="m3.5347 3.9005c-0.17038-0.24166-0.3038-0.50453-0.33388-0.80268-0.017266-0.17171-0.067408-0.42467 0.00179-0.5881 0.028198-0.06638 0.11551-0.02309 0.12116 0.03293 0.01698 0.16611-0.00382 0.34678-0.00132 0.5148 0.00406 0.28666 0.10438 0.57668 0.24581 0.82345 0.012732 0.02214-0.019426 0.03988-0.033663 0.01961"/>
  <path d="m4.1173 4.2951c-0.73216-0.04026-1.0765-0.99561-1.0801-1.6154-0.00132-0.25344 0.24892-0.50802 0.38716-0.18526 0.078637 0.18375 0.018282 0.39996-0.018387 0.58589-0.064116 0.3254 0.045726 0.60857 0.23544 0.86992 0.012732 0.01753-0.012636 0.04316-0.030261 0.03019-0.19471-0.1435-0.32719-0.39422-0.33369-0.63908-0.00382-0.14681 0.024605-0.286 0.05204-0.42968 0.027339-0.1439 0.034044-0.2762-0.028854-0.41244-0.11569 0.01709-0.16595 0.07722-0.15105 0.18047-0.00132 0.03819-0.00113 0.07639 0.00155 0.11448 0.023389 0.59808 0.3566 1.2947 0.97344 1.4474 0.029605 0.0072 0.023759 0.05517-0.00727 0.05348"/>
  <path d="m4.1468 4.3009c-0.38385 0.08023-0.7332-0.25006-0.97939-0.49805-0.16482-0.16596-0.31974-0.34076-0.4953-0.4958-0.27325-0.24147-0.60044-0.32596-0.95921-0.33944-0.021968-8.03e-4 -0.027542-0.03338-0.00525-0.03904 0.48814-0.12597 0.91225 0.18107 1.2375 0.51067 0.16538 0.16754 0.32058 0.34408 0.49662 0.50076 0.21366 0.19009 0.42892 0.26855 0.7051 0.31823 0.021493 0.0039 0.020858 0.03832 0 0.04266"/>
  <path d="m4.5356 4.2771c-0.37499 0.14332-0.84107-0.18839-1.0213-0.497-0.21649-0.37065 0.031491-0.89793 0.46155-0.9559 0.22865-0.03075 0.72933 0.24135 0.43798 0.50735-0.1866 0.17032-0.63891 0.08703-0.50294-0.22618 0.02395-0.05518 0.12145-0.02847 0.11466 0.03101-0.039319 0.34302 0.62627 0.01838 0.13766-0.16313-0.29531-0.10983-0.54848 0.14269-0.62269 0.40991-0.074306 0.26758 0.15793 0.53167 0.355 0.67284 0.19565 0.14012 0.40441 0.15691 0.63419 0.17838 0.024879 0.0023 0.029127 0.03377 0.00585 0.04273"/>
  <path d="m7.6407 3.7931c-0.28975 0.38736-0.6721 0.77064-1.1356 0.93727-0.28881 0.1038-0.67474 0.12784-0.7992-0.21064-0.069593-0.18906 0.04328-0.39903 0.17698-0.52537 0.078172-0.07403 0.2593-0.12777 0.32691-0.01227 0.18773 0.32041-0.39725 0.4691-0.58036 0.49164-0.23733 0.02901-0.85691 0.04193-0.88727-0.31672-0.0093-0.11034 0.077981-0.32209 0.22912-0.28051 0.15671 0.04306 0.057706 0.22618-0.013018 0.29842-0.27995 0.28626-0.84578 0.17178-1.1904 0.1218-0.31059-0.04505-0.61487-0.10917-0.91952-0.18472-0.35528-0.08827-0.70057-0.21638-1.056-0.29956-0.23921-0.05598-0.80563 0.0597-0.62722 0.43035 0.063362 0.13171 0.21074 0.1523 0.33558 0.13351 0.086181-0.01279 0.32634-0.16585 0.083727-0.21572-0.10617-0.02181-0.061478-0.18634 0.044796-0.16258 0.29532 0.06594 0.24384 0.37378 0.018389 0.48305-0.24194 0.1174-0.64299 0.0057-0.65761-0.30946-0.018224-0.39241 0.42095-0.53631 0.74106-0.50453 0.24713 0.02448 0.48088 0.1418 0.71811 0.20829 0.31587 0.08843 0.63221 0.17565 0.95336 0.24316 0.41101 0.08647 0.9247 0.19897 1.335 0.06865 0.054593-0.01927 0.10324-0.04809 0.14606-0.08696-0.10353 0.08684 0.13832 0.20744 0.19235 0.22839 0.06309 0.02442 0.13955 0.02666 0.20574 0.03254 0.19292 0.01699 0.39121 0.0035 0.57772-0.04901 0.092874-0.02622 0.18028-0.07374 0.23393-0.15599-0.027911-0.14658-0.088912-0.16035-0.1832-0.04116-0.099854 0.09297-0.13465 0.24855-0.10522 0.37742 0.058077 0.25414 0.39743 0.20416 0.5779 0.15786 0.50832-0.13042 0.82343-0.5731 1.1948-0.90574 0.032256-0.02876 0.09174 0.01035 0.06309 0.04862"/>
  <path d="m1.6893 3.7154c2.798-0.05648 5.5998-0.01809 8.3983-0.01809 2.8265 0 5.6532-0.01158 8.4797 0.02545 0.03414 5.4e-4 0.03414 0.05252 0 0.05298-2.7953 0.03658-5.5908 0.02551-8.3862 0.02551-2.8296 0-5.6626 0.03899-8.4917-0.01813-0.043661-8.02e-4 -0.043661-0.06686 0-0.0677"/>
  <path d="m23.224 3.6008c0.02895-0.02539 0.05693-0.05498 0.07967-0.08619 0.02234-0.03075 0.02687-0.06872 0.05073-0.09844 0.01585-0.01977 0.05451-0.01447 0.06497 0.0084 0.05131 0.11127-0.08459 0.17905-0.16322 0.2179-0.02565 0.01264-0.05602-0.02084-0.03216-0.04166"/>
  <path d="m23.24 3.6537c0.04781-0.02585 0.07749-0.06395 0.10815-0.10769 0.033-0.04702 0.04318-0.1005 0.06723-0.15123 0.02592-0.05495 0.10288-0.02302 0.106 0.02867 0.0084 0.13956-0.13587 0.25591-0.2593 0.2828-0.03084 0.0066-0.05196-0.03648-0.02205-0.05252"/>
  <path d="m23.097 3.6868c0.05545-0.01101 0.47079-0.17621 0.36179-0.26015-0.02931-0.02243-0.14964 0.15587-0.16567 0.17672-0.03933 0.05091-0.09957 0.13728-0.17274 0.12652l-0.01158-0.02043c0.01963-0.04646 0.05592-0.08328 0.08195-0.12681 0.0364-0.06093 0.08136-0.11948 0.12682-0.17399 0.06968-0.08372 0.19169-0.13303 0.25024-0.0076 0.05479 0.11731-0.06534 0.21573-0.15426 0.2677-0.08524 0.04957-0.23412 0.11551-0.32351 0.0446-0.0092-0.0073-0.0041-0.02434 7e-3 -0.02652"/>
  <path d="m23.572 4.0833c-0.13201-0.01716-0.27768-0.03819-0.37735-0.13352-0.0129-0.01227 5.41e-4 -0.03179 0.0165-0.0283 0.12456 0.02695 0.24506 0.07301 0.3682 0.10759 0.02905 0.0082 0.02432 0.05837-0.0073 0.05421"/>
  <path d="m23.522 4.0277c-0.05451 0.01566-0.10985-1e-3 -0.16312-0.01518-0.05638-0.01509-0.1188-0.03482-0.15624-0.08213-0.0095-0.01208-0.0088-0.03463 0.01-0.0381 0.05308-0.01 0.10155 0.0068 0.15181 0.02358 0.05439 0.01802 0.11532 0.02395 0.1651 0.05326 0.02406 0.01413 0.01887 0.05084-0.0075 0.05858"/>
  <path d="m23.066 3.8406c0.11663-0.0031 0.58837-0.01623 0.54745 0.1962-0.0072 0.03699-0.05346 0.05054-0.08343 0.03386-0.0278-0.01537-0.04856-0.03913-0.0774-0.05452-0.04366-0.02309-0.09476-0.0343-0.14163-0.04893-0.08288-0.02585-0.16802-0.05319-0.25203-0.07458-0.02962-0.0074-0.02247-0.05131 7e-3 -0.05204"/>
  <path d="m23.011 3.8144c0.15162-0.03525 0.72283-0.03093 0.70105 0.21922-0.01537 0.17584-0.21989 0.13757-0.32926 0.09241-0.09588-0.0396-0.1866-0.09101-0.27721-0.14118-0.04734-0.02611-0.14935-0.0677-0.17217-0.12077-0.0041-0.0092-0.0023-0.0179 6e-3 -0.02367 0.06704-0.04556 0.21187 0.0561 0.26806 0.08637 0.06382 0.03439 0.32718 0.20206 0.38452 0.10729 0.04958-0.08184-0.51926-0.14634-0.58111-0.16143-0.02875-7e-3 -0.02913-0.0515 0-0.05827"/>
  <path d="m22.962 3.9356c0.08817 0.09912 0.15398 0.20744 0.20866 0.32824 0.04281 0.09429 0.10645 0.21544 0.06649 0.31859-0.0089 0.02309-0.03252 0.02885-0.05166 0.01367-0.07327-0.05808-0.08818-0.15956-0.1189-0.24382-0.0464-0.12711-0.10853-0.24828-0.1618-0.37256-0.015-0.03507 0.02734-0.07779 0.05724-0.04411"/>
  <path d="m22.913 3.8936c0.16331 0.09553 0.3303 0.22394 0.38159 0.41565 0.0198 0.07403 0.01339 0.31918-0.11673 0.29882-0.08597-0.01329-0.12842-0.16681-0.15473-0.23293-0.05725-0.14387-0.11757-0.30343-0.13889-0.45624-0.0021-0.01559 0.01585-0.03094 0.02895-0.01693 0.13286 0.14295 0.15699 0.37783 0.24138 0.55057 0.0084 0.01716 0.01829 0.03311 0.02905 0.04877 0.01953 0.0283-0.0166 0.02884-0.01145 0.01113 0.01819-0.06449 0.02217-0.13418 0.0052-0.19896-0.03997-0.1516-0.18679-0.27502-0.29333-0.38224-0.01914-0.01934 0.0055-0.0515 0.02905-0.03765"/>
  <path d="m16.504 4.0235c0.08383 0.13315 0.19414 0.238 0.33397 0.31079 0.11088 0.0578 0.28749 0.06866 0.35726-0.05651 0.04423-0.0792-0.0054-0.18387-0.06204-0.24107-0.03084-0.03112-0.06902-0.04877-0.11276-0.04791-0.0877 0.0015-0.11371 0.14368-0.01451 0.09363 0.05252-0.02648 0.09948 0.0359 0.06156 0.07986-0.05987 0.0696-0.17057 0.04603-0.22102-0.02399-0.06881-0.09573-0.01479-0.19716 0.07978-0.2481 0.16896-0.09089 0.32605 0.07452 0.37282 0.22291 0.06412 0.2035-0.09202 0.33726-0.27919 0.35841-0.22375 0.02524-0.5201-0.22177-0.54744-0.43941-0.0019-0.01782 0.02338-0.02158 0.03158-0.0086"/>
  <path d="m20.273 3.8855c-0.02072 0.07404-0.061 0.139-0.11259 0.1954-0.0475 0.05204-0.13794 0.11963-0.21271 0.09286-0.01858-0.0064-0.02302-0.0263-0.01101-0.04128 0.03922-0.04818 0.10909-0.07688 0.15595-0.11938 0.05064-0.04611 0.09166-0.10213 0.13842-0.15189 0.01733-0.0185 0.04846 5.4e-4 0.04185 0.02432"/>
  <path d="m19.81 2.8694c-0.18764 0.09975-0.51529 0.15492-0.5465-0.1338-0.01567-0.14519 0.11343-0.266 0.25798-0.24401 0.10268 0.01574 0.25524 0.13098 0.1189 0.22195-0.0544 0.03622-0.13342-0.03782-0.09258-0.09267 0.01772 0.03043 0.01699 0.03693-0.0019 0.01951-0.01247-7e-3 -0.02575-0.0122-0.03969-0.01535-0.04338-0.01301-0.09486 0.0086-0.12163 0.04374-0.04686 0.06186 1e-3 0.15444 0.06402 0.17728 0.10448 0.03779 0.24459 7.4e-5 0.35227-0.01101 0.01848-0.0017 0.02481 0.02599 0.0093 0.03432"/>
  <path d="m22.323 3.7036c0.19358 0.02113 0.50049 0.0876 0.61845-0.11793 0.03809-0.0664 0.0297-0.16324-0.02358-0.21793-0.03601-0.03694-0.09703-0.0088-0.13267 0.01024-0.06506 0.03449-0.02687 0.05651-0.0077 0.09919 0.01045 0.02302 0.0081 0.05348-0.01734 0.0665l-0.017 0.0088c-0.0213 0.01101-0.04959 0.01443-0.07062 0-0.14332-0.09884-0.05101-0.27211 0.08306-0.3267 0.15096-0.06157 0.28768 0.0098 0.33454 0.1634 0.04668 0.15259-0.04243 0.30165-0.16878 0.37981-0.1799 0.11145-0.41959 0.02545-0.6043-0.02194-0.02358-0.0059-0.01932-0.04624 0.0059-0.04339"/>
  <path d="m22.252 3.1147c-0.29352 0.02096-0.57988 0.06423-0.87218 0.09242-0.02339 0.0019-0.03216-0.03355-0.01193-0.04395 0.26967-0.13728 0.59855-0.19915 0.89076-0.09845 0.02763 0.0095 0.02217 0.0479-0.0066 0.04998"/>
  <path d="m22.3 3.0918c-0.19452 0.01831-0.37301-0.03148-0.57376 0.01215-0.2575 0.05603-0.45956 0.2246-0.70444 0.30372-0.02555 0.0084-0.03829-0.02357-0.02394-0.04129 0.18773-0.23064 0.50398-0.38744 0.79496-0.43429 0.15247-0.02464 0.46334-0.05698 0.53245 0.12663 0.0064 0.01723-0.0097 0.03167-0.02525 0.03307"/>
  <path d="m21.875 2.9316c0.18019 0.0029 0.4178-0.0698 0.52189 0.13098 0.06818 0.13134-0.15058 0.15299-0.22328 0.1565-0.3499 0.01708-0.65437 0.05535-0.97665 0.2134-0.36066 0.17687-0.59242 0.54489-0.95242 0.70736-0.01507 0.0068-0.03242-0.01145-0.01876-0.02434 0.39451-0.37263 0.75281-0.75318 1.2781-0.93281 0.18613-0.06376 0.3881-0.08644 0.58394-0.08195 0.02358 5.41e-4 0.2229 0.0096 0.18745-0.03457-0.06674-0.08328-0.30229-0.0909-0.40026-0.10213-0.02018-0.0023-0.02141-0.03279 0-0.03241"/>
  <path d="m20.537 3.3014c0.02357-0.17793 0.01444-0.35303 0.02942-0.53038 0.0017-0.02329 0.03216-0.03415 0.04535-0.01226 0.1005 0.16736 0.03149 0.37547-0.01548 0.55068-0.0086 0.03205-0.06394 0.02636-0.05932-0.0081"/>
  <path d="m20.507 3.2088c0.015-0.10295 0.01765-0.20394 0.01349-0.30766-0.0017-0.04726-0.01-0.09695 0.01045-0.14089 0.01699-0.03628 0.07883-0.03628 0.0958 0 0.0214 0.04584 0.01236 0.09893 0.01024 0.14814-0.0043 0.10873-0.02735 0.2162-0.05694 0.32058-0.01375 0.04837-0.08006 0.02696-0.07318-0.02019"/>
  <path d="m20.436 3.0774c-0.0084-0.13256-0.03186-0.26721-0.02905-0.40007 0.0012-0.07042 0.10476-0.06957 0.10853 0 0.0072 0.13231 0.0012 0.26788-0.0057 0.40007-0.0027 0.04763-0.07063 0.04734-0.07373 0"/>
  <path d="m20.502 3.1717c-0.0035-0.12917 0.0075-0.2576-0.0028-0.38688-0.0048-0.06148-0.02026-0.11106-0.05715-0.15963-0.01988-0.02611-0.01181-0.05748 0.01838-0.07042 0.23007-0.09871 0.12965 0.53462 0.12465 0.61694-0.0033 0.05326-0.08184 0.05394-0.08317 0"/>
  <path d="m20.517 3.1717c-0.0035-0.09654-0.0082-0.1933-0.01227-0.28994-0.0046-0.1088-0.04073-0.21517-0.04007-0.32294 2.67e-4 -0.0475 0.05667-0.0547 0.08166-0.02205 0.12559 0.16313 0.05733 0.44674 0.048 0.63495-0.0023 0.04969-0.07562 0.04997-0.07733 0"/>
  <path d="m20.548 3.1277c0.02142-0.08684 0.02763-0.17776 0.03724-0.26648 0.0088-0.08044 0.02376-0.20261-0.03273-0.27042-0.01782-0.02152-0.01549-0.06431 0.01847-0.06977 0.27599-0.04508 0.0825 0.51716 0.03941 0.62401-0.01518 0.03779-0.0727 0.0243-0.06243-0.01735"/>
  <path d="m20.255 3.8809c0.14219-0.24799 0.23987-0.53594 0.24591-0.82345 0.0036-0.16839-0.01848-0.34829-0.0015-0.5148 0.0057-0.05603 0.09297-0.09929 0.12116-0.03293 0.06978 0.16427 0.01801 0.41535 0.0019 0.5881-0.02754 0.29738-0.16434 0.56235-0.33388 0.80268-0.01433 0.02028-0.0464 0.0027-0.03375-0.01961"/>
  <path d="m19.699 4.2416c0.63184-0.1565 0.92988-0.84692 0.97345-1.4474 0.0053-0.07233 0.0014-0.14306-0.01035-0.21488-0.10551-0.12165-0.16491-0.11411-0.17812 0.02272-0.01247 0.06153-0.01518 0.12331-0.0083 0.18537 0.0091 0.16339 0.06174 0.32236 0.07223 0.48652 0.01668 0.2646-0.12588 0.55189-0.33558 0.70651-0.01755 0.013-0.04301-0.01264-0.03017-0.03017 0.16029-0.22091 0.27429-0.46606 0.25515-0.74489-0.01667-0.24213-0.11409-0.45399-0.04394-0.69719 0.08986-0.31152 0.37508-0.1333 0.38951 0.11271 0.03705 0.63199-0.33662 1.6336-1.0767 1.6742-0.03092 0.0015-0.03686-0.04619-0.0072-0.05348"/>
  <path d="m19.677 4.2583c0.2575-0.04626 0.45532-0.1152 0.66172-0.28154 0.19764-0.15896 0.36406-0.35573 0.54-0.53745 0.32134-0.33196 0.75262-0.6358 1.2375-0.51067 0.02234 0.0057 0.01668 0.03819-0.0053 0.03902-0.34161 0.01294-0.64616 0.08911-0.91678 0.30372-0.1816 0.14409-0.33605 0.32265-0.49634 0.48916-0.25176 0.26166-0.61902 0.62442-1.0208 0.5404-0.02072-0.0043-0.0214-0.0388 0-0.04267"/>
  <path d="m19.294 4.2343c0.4425-0.04141 0.95138-0.22485 0.99778-0.74658 0.02716-0.30549-0.29079-0.58648-0.5829-0.52851-0.13549 0.02702-0.36754 0.22906-0.13644 0.32191 0.11409 0.04592 0.24138-0.0088 0.22582-0.14482-0.0069-0.05948 0.09072-0.0862 0.11457-0.03101 0.12154 0.27974-0.2874 0.4228-0.47513 0.25157-0.30144-0.27525 0.13182-0.57008 0.41016-0.53274 0.40384 0.05451 0.66399 0.53969 0.48625 0.90518-0.16331 0.33594-0.65399 0.69756-1.046 0.54772-0.02319-9e-3 -0.01907-0.04045 0.0058-0.04272"/>
  <path d="m16.246 3.7444c0.36612 0.32784 0.66389 0.73138 1.1483 0.89196 0.16755 0.05554 0.36763 0.08693 0.52708-0.0054 0.19103-0.11062 0.09644-0.38641-8e-3 -0.51613-0.1305-0.16246-0.22941-0.0057-0.1469 0.08941 0.0379 0.04372 0.10164 0.07163 0.15341 0.09278 0.16407 0.06667 0.35331 0.07175 0.52784 0.06891 0.08014-0.0012 0.1602-0.0095 0.23893-0.02319 0.0577-0.01009 0.09817-0.02799 0.15294-0.05761 0.0364-0.03536 0.07298-0.07061 0.10948-0.1059-0.03046-0.09628-0.01133-0.10607 0.05781-0.02931 0.17368 0.11599 0.43939 0.09291 0.6373 0.08051 0.23063-0.01433 0.46287-0.05458 0.6903-0.09502 0.29324-0.05234 0.58101-0.1338 0.86784-0.213 0.2907-0.08026 0.57517-0.20102 0.87228-0.25308 0.26854-0.04706 0.77818 0.08855 0.76139 0.4491-0.01584 0.34125-0.35066 0.47502-0.64277 0.3698-0.25053-0.09013-0.29306-0.42468 1e-3 -0.49031 0.10616-0.02376 0.15096 0.14078 0.04471 0.16258-0.2856 0.05864 0.07524 0.21857 0.16284 0.22309 0.2643 0.01337 0.35208-0.27683 0.18821-0.45296-0.28362-0.30474-0.78515-0.04858-1.1038 0.04893-0.57677 0.1766-1.1811 0.30305-1.7819 0.36076-0.21809 0.02094-0.43666 0.01685-0.64598-0.05282-0.10494-0.035-0.33699-0.17197-0.28966-0.31606 0.08296-0.25252 0.51388 0.14379 0.18179 0.38007-0.28249 0.20102-0.74894 0.16368-1.0612 0.05638-0.11126-0.03818-0.24449-0.12022-0.27844-0.24165-0.03716-0.13321-5.4e-4 -0.2541 0.15265-0.24979 0.37131 0.01074 0.47616 0.5913 0.223 0.79903-0.24496 0.20104-0.68152 0.03415-0.91885-0.09675-0.34698-0.19138-0.64994-0.5116-0.88472-0.8257-0.02866-0.03827 0.03084-0.07738 0.063-0.04861"/>
  <path d="m22.384 3.7831c-1.7006 0.05651-3.4034 0.01812-5.1043 0.01812-1.718 0-3.436 0.01157-5.1538-0.0255-0.0208-5.41e-4 -0.0208-0.05249 0-0.05297 1.6989-0.03659 3.398-0.02546 5.0969-0.02546 1.7199 0 3.4417-0.03902 5.1611 0.01809 0.02659 8.01e-4 0.02659 0.06685 0 0.06769"/>
 </g>
</svg>
