<?xml version="1.0" encoding="UTF-8"?>
<!-- Created with Inkscape (http://www.inkscape.org/) -->
<svg width="34.811mm" height="11.213mm" version="1.1" viewBox="0 0 34.811 11.213" xml:space="preserve" xmlns="http://www.w3.org/2000/svg"><path d="m0.001653 7.634c0.71402-0.78244 1.5988-1.2132 2.5939-1.4157 1.3631-0.27694 2.704-0.63711 4.0375-1.0287 0.31644-0.093132 0.56549-0.2293 0.77821-0.49987 1.2079-1.5374 2.7561-2.4341 4.7561-2.3932 0.31398 0.00635 0.70132-0.34395 0.88759-0.057853 0.22542 0.34713-0.28186 0.5422-0.44098 0.81456-0.95495 1.6319-2.3675 2.4063-4.2817 2.1727-0.48683-0.059618-0.92674 0.094897-1.3557 0.32948 1.7438-0.047979 3.4787 0.00132 5.2101 0.10019 2.3181 0.13229 4.5349-0.27588 6.6907-1.1028 0.43391-0.16651 0.71754-0.36795 0.76588-0.90309 0.05574-0.61348 0.48717-1.0739 0.93802-1.4661 0.78985-0.68719 1.6041-1.3462 2.4087-2.0164 0.12206-0.1016 0.24483-0.22401 0.42261-0.13864 0.17921 0.08643 0.16933 0.26141 0.15028 0.41838-0.14605 1.1899-0.4406 2.3258-1.1987 3.2964-0.50834 0.65087-1.2224 0.89462-1.9875 0.90029-1.2414 0.00847-2.2803 0.7299-3.4716 0.91545 0.51858 0 1.0379 0.013414 1.5564-0.00212 2.7942-0.085018 5.5287-0.52421 8.1911-1.3935 0.38277-0.12453 0.67592-0.30726 0.91367-0.65015 1.1169-1.6104 2.614-2.5008 4.6323-2.3745 0.24447 0.015531 0.49564-0.044449 0.74117-0.085017 0.20178-0.033514 0.41626-0.12453 0.54961 0.1083 0.12241 0.21308-0.0028 0.40674-0.12453 0.56586-1.0093 1.3215-2.2246 2.3537-3.9182 2.6606-0.6424 0.11606-1.2753 0.28117-1.9582 0.095249-0.28223-0.076905-0.64841 0.15134-0.97543 0.24377-0.71894 0.20285-1.4372 0.40745-2.1576 0.61171 0.02822 0.24024 0.20426 0.15734 0.31255 0.16933 1.064 0.11677 2.1297 0.21801 3.1932 0.33866 0.28575 0.032456 0.51858-0.00987 0.76445-0.18309 0.96273-0.67767 2.039-0.84525 3.1922-0.67275 0.87663 0.13088 1.73 0.41169 2.6289 0.39933 0.16333-0.00238 0.32774 0.027868 0.36089 0.23318 0.0314 0.19403-0.10125 0.29138-0.24624 0.36652-1.3183 0.68262-2.6619 1.3003-4.1399 1.5571-0.93238 0.16192-1.6227-0.31186-2.2567-0.90029-0.15028-0.13934-0.2653-0.28469-0.49601-0.31996-2.4765-0.37959-4.9405-0.71614-7.4717-0.46955-2.7217 0.26529-5.462 0.25259-8.1975 0.12171-0.18027-0.00881-0.3616-0.00132-0.55173-0.00132 0.02646 0.17921 0.17992 0.17745 0.29175 0.21307 1.7138 0.54715 3.429 1.089 5.1424 1.6362 0.32631 0.10407 0.64663 0.21484 0.99977 0.17674 1.9858-0.21554 3.902 0.1531 5.7954 0.70167 0.18908 0.054681 0.4378 0.065264 0.44238 0.34078 0.0042 0.23848-0.18556 0.35348-0.37218 0.44555-2.0934 1.0343-4.161 0.9532-5.9549-0.5295-0.83184-0.68791-1.7434-1.0082-2.6799-1.3589-2.2235-0.8329-4.4854-1.5247-6.8873-1.6062-1.3169-0.044801-2.6232 0.035983-3.9457 0.26035 0.073731 0.2727 0.26776 0.2092 0.40039 0.254 0.47413 0.16051 0.97014 0.27305 1.421 0.48331 1.0855 0.50659 2.136 1.0386 3.3951 1.0559 0.75175 0.010239 1.4129 0.47484 2.0528 0.87806 0.65227 0.41097 1.2643 0.8837 2.056 1.0463 0.43886 0.090309 0.46143 0.43743 0.07902 0.74366-0.46672 0.37324-1.0372 0.50516-1.6058 0.49318-1.4195-0.03034-2.7633-0.31961-3.8121-1.392-0.36652-0.37465-0.7553-0.72495-0.77363-1.3141-0.0088105-0.28011-0.26492-0.41452-0.47659-0.53551-1.2026-0.68825-2.4899-1.1186-3.8774-1.2224-0.76868-0.057504-1.4901 0.098069-2.171 0.47484-0.30445 0.16863-0.64274 0.27622-0.9659 0.41097" fill="#231f20" stroke-width=".26458"/></svg>
